<?xml version="1.0" encoding="utf-8"?>
<!-- Generator: Adobe Illustrator 27.1.1, SVG Export Plug-In . SVG Version: 6.00 Build 0)  -->
<svg version="1.1" xmlns="http://www.w3.org/2000/svg" xmlns:xlink="http://www.w3.org/1999/xlink" x="0px" y="0px"
	 viewBox="0 0 336.08 369.36" style="enable-background:new 0 0 336.08 369.36;" xml:space="preserve">
<style type="text/css">
	.st0{fill:#FFFFFF;}
	.st1{fill:#575756;}
	.st2{fill:#3C3C3B;}
	.st3{fill:#5A082C;}
</style>
<g id="Camada_3">
	<path d="M313.26,222.01c-2.67-7.11-5.8-15.14-11.65-19.58c-0.88-5.15-3.43-9.59-5.36-14.41c-2.17-5.41-2.77-11.26-4.63-16.75
		c-1.36-4.02-3.71-7.13-6.63-9.64c-0.74-1.59-1.51-3.17-2.34-4.73c-3.9-7.26-8.65-14.11-13.68-20.64
		c-5.54-7.19-13.2-6.39-21.08-3.42c-1.5,0.56-2.89,1.6-3.92,2.9c-10.48-0.61-20.96-1.19-31.44-1.88
		c-5.56-0.36-11.12-0.81-16.59-1.92c-4.7-0.95-9.23-2.56-13.92-3.52c-0.49-0.53-1.08-0.98-1.76-1.31c-8-3.8-16.28-10.46-24.53-4.16
		c-3.27,2.5-6.24,5.57-8.97,8.64c-2.72,3.06-5.05,6.66-8.6,8.82c-1.87,1.13-2.93,2.66-3.37,4.29c-8.81,4.47-16.82,11.8-18.88,20.77
		c-2.73,0.88-4.85,2.84-5.23,6.03c-0.4,3.38,1.65,7.59,5.37,8.23c3.22,0.55,6.27,1.17,9.23,1.23c0.74,0.83,1.4,1.83,2.07,2.49
		c2.65,2.59,5.88,4.69,9.63,5.06c0.05,0.28,0.11,0.56,0.2,0.83c1.12,3.46,4.2,5.63,7.68,5.46c0.42,0.22,0.84,0.48,1.12,0.61
		c1.34,0.65,2.68,1.31,4.02,1.96c0.09,0.04,0.19,0.07,0.28,0.11c1.14,2,3.2,3.45,6.21,3.45c4.71,0,7.12-3.57,7.23-7.22
		c0.08-0.13,0.17-0.25,0.24-0.39c1.85-3.51,0.94-7.13-1.83-9.58c1.77-5.44,4.34-10.43,7.7-14.95c0.92-0.09,1.87-0.32,2.82-0.73
		c6.79-2.95,14.72-2.36,21.93-2.08c2.09,0.08,3.88-0.8,5.2-2.18c1.69,1.37,3.52,2.58,5.44,3.56c0.45,0.23,0.91,0.41,1.4,0.56
		c3.85,3.71,7.19,7.8,9.99,12.22c-0.56,1.02-0.84,2.23-0.69,3.62c0.75,7.25,1.05,14.5,0.94,21.78c-1.32-0.46-2.75-0.52-4.12,0.02
		c-1.19,0.47-2.37,0.94-3.56,1.41c-4.73,1.88-8.06,8.51-3.31,12.54c0.1,0.09,0.21,0.17,0.31,0.25c-0.79,2.22-1.41,4.46-1.81,6.78
		c-0.72,4.26-1.39,9.5-0.14,13.74c1.3,4.42,4.92,6.11,8.96,7.37c5.22,1.62,10.44,3.28,15.69,4.79c4.51,1.3,8.35,0.92,11.99-2.23
		c2.97-2.57,5.71-5.76,6.98-9.54c0.83-2.49,1.04-5.14,1.11-7.81c0.44,0.09,0.9,0.16,1.39,0.19c9.92,0.47,19.85,0.66,29.78,0.52
		c9.02-0.13,19.26,0.58,27.91-2.36C311.59,230.02,314.75,225.98,313.26,222.01z"/>
	<path d="M174.54,45.69c-4.77,8.6-7.13,18.15-6.59,27.99c0.53,9.6,15.53,9.66,15,0c-0.4-7.29,0.99-14.02,4.54-20.42
		C192.18,44.81,179.23,37.24,174.54,45.69z"/>
	<path class="st0" d="M290.49,42.07c-1.38-7.59-3.12-18.84-10.95-22.49c-3.69-1.72-8.04-1.06-10.26,2.69
		c-3.76,6.34-7.42,12.75-10.97,19.2c-7.03-2.79-15.08-4.19-22.18-5.28c-2.64-0.4-5.27-0.73-7.91-0.99
		c-10.4-2.6-20.88-4.91-31.41-6.94c-1.68-0.56-3.38-1.04-5.11-1.36c-0.18-0.03-0.36-0.06-0.54-0.09c-1.9-2.15-3.85-4.25-5.96-6.2
		c-0.6-0.55-1.25-1.09-1.91-1.63c-1-3.01-2.11-6.09-3.78-8.38c-4.68-6.44-12.57-4.63-15.77,0.28c-1.3,0.85-2.38,2.15-2.98,4
		c-0.19,0.58-0.37,1.16-0.56,1.74c-2.27,0.79-4.28,2.39-5.66,4.43c-0.19,0.28-0.36,0.56-0.51,0.84c-0.66,0.72-1.25,1.51-1.8,2.32
		c-0.12,0.23-0.25,0.45-0.4,0.66c-0.08,0.74-0.32,1.41-0.67,2c-0.09,0.18-0.18,0.35-0.29,0.51c-0.06,0.3-0.16,0.59-0.27,0.88
		c-0.1,0.96-0.43,1.88-1.01,2.64c-0.08,0.36-0.2,0.72-0.35,1.05c-0.11,0.49-0.28,0.97-0.51,1.41c0,0.02,0,0.04-0.01,0.05
		c-0.77,2.65-1.19,5.53-1.8,8.03l-1.23,5.05c-1.03,1.31-1.66,2.99-1.84,4.78c-0.63,6.4-1.19,12.81-1.68,19.22
		c-1.23,3.14-1.79,6.51-1.56,9.86c-1.53,8.07-0.96,15.96,5.86,22.51c2.05,1.97,4.39,3.86,6.91,5.49c0.29,1.23,0.94,2.43,2.05,3.48
		c21.82,20.73,56.78,27.09,85.83,22.88c14.83-2.15,29.14-8.9,38.2-21.16c9.17-12.43,11.86-29.32,12.74-44.39
		C292.72,60.12,292.12,51.01,290.49,42.07z"/>
	<path class="st0" d="M207.8,168.96c-9.03-4.94-22.66-6.94-32.47-3.62c-10.48,3.54-14.59,12.44-12.95,23
		c0.39,2.48,0.96,4.96,2.14,6.97c0.34,0.91,0.72,1.79,1.16,2.59c2.75,5.07,9.26,6.24,14.4,7.38c5.7,1.26,11.48,2.02,16.55,5.1
		c3.15,1.92,7.2,0.98,9.48-1.63c0.02,0,0.03,0,0.05-0.01c0.91-0.03,1.8-0.18,2.66-0.45c1.8-0.5,3.52-1.41,4.86-2.73
		c1.95-1.92,3.09-4.67,3.36-7.4c0.62-0.98,1.05-2.16,1.17-3.54C219.09,184.5,217.49,174.27,207.8,168.96z"/>
	<path class="st0" d="M297.97,232.62c-10.26,0.43-20.51,0.86-30.77,1.29c-4.05,0.17-8.59-0.18-12.58,0.76
		c-5.08,1.21-5.92,4.68-7.27,8.93c-0.63,1.98-4.65,5.58-6.71,7.56c-2.64,2.55-5.42,4.95-8.17,7.38
		c-5.58,4.92-10.87,9.97-15.23,15.96c-0.65,0.84-1.26,1.71-1.82,2.64c-1.57,2.65-1.37,5.18-0.2,7.16c0.14,0.83,0.42,1.67,0.89,2.49
		c0.67,1.18,1.8,2.18,3.12,2.86c1.83,1.98,4.68,2.63,7.58,2.23c11.04-1.54,21.14-6.42,31-11.41c4.85-2.06,9.71-4.08,14.41-6.44
		c13.12-6.57,30.42-16,32.99-31.92C305.94,237.57,303.28,232.4,297.97,232.62z"/>
	<path class="st0" d="M129.3,185.34c-3.05-2.79-7.25-4.67-11.46-4.2c-2.05,0.23-3.79,0.69-5.3,2.2c-1.3,1.3-2.28,3.44-2.2,5.3
		c0.09,1.94,0.72,3.95,2.2,5.3c1.37,1.26,3.37,2.41,5.3,2.2c0.32-0.04,0.64-0.05,0.96-0.05c0.01,0,0.03,0.01,0.04,0.01
		c0.04,0.02,0.08,0.04,0.11,0.06c2.92,2.45,7.61,2.78,10.35-0.21C131.95,193.07,132.4,188.17,129.3,185.34z"/>
	<path d="M129.12,169.14c-9.65,0-9.67,15,0,15C138.77,184.14,138.79,169.14,129.12,169.14z"/>
	<path class="st0" d="M122.46,200.63c-4.45-1.73-9.16-1.78-13.81-0.96c-3.87,0.69-6.4,5.62-5.24,9.23c1.35,4.16,5.08,5.97,9.23,5.24
		c0.15-0.03,0.25-0.05,0.34-0.07c0.08,0.01,0.18,0.02,0.32,0.03c0.44-0.02,0.89-0.02,1.33,0c0.09,0.01,0.16,0.01,0.23,0.02
		c0.34,0.07,1.24,0.2,1.4,0.25c0.76,0.19,1.49,0.45,2.22,0.73c3.67,1.42,8.39-1.56,9.23-5.24
		C128.68,205.56,126.39,202.15,122.46,200.63z"/>
	<path class="st1" d="M277.8,272.75c-4.43,2.13-8.43,5-12.23,8.16c-1.4,0.18-2.83,0.8-4.16,1.98c-3.41,3.03-9.16,3.45-13.05,5.95
		c-0.38,0.25-0.75,0.51-1.12,0.77c-1.31-0.47-2.87-0.48-4.62,0.18c-7.66,2.91-21.7,7.34-26.72-2.37c-1.89-3.66,0.16-8.76,1.41-12.33
		c1.87-5.36,4.9-9.54,10.08-11.98c5.53-2.61,4.51-12.77-1.79-13.71c-7.13-1.06-14-2.97-20.49-6.12c-1-0.49-1.99-0.77-2.95-0.88
		c1.12-5.88,1.74-11.86,1.76-17.83c0.02-8.57-3.01-14.49-11.6-17.02c-18.37-5.42-37.35-9.3-55.95-13.85
		c-0.35-0.09-0.69-0.14-1.02-0.18c-0.57-0.33-1.22-0.61-1.95-0.81c-10.43-2.79-20.85-5.57-31.28-8.36
		c-10.05-2.69-20.44-4.87-30.06-8.91c-2.13-0.89-4.48-0.23-6.3,1.15c-12.99-4.59-25.97-9.23-39.72-10.25
		c-2.53-8.23-15.92-4.18-14.23,4.94c0.01,0.04,0.02,0.09,0.02,0.13c-0.08,0.25-0.14,0.51-0.19,0.77c-0.04,0.06-0.08,0.11-0.11,0.18
		c-0.25,0.6-0.5,1.19-0.76,1.79c-0.36,1.33-0.36,2.66,0,3.99c0.25,0.6,0.5,1.19,0.76,1.79c0.07,0.12,0.15,0.23,0.23,0.34
		c-0.17,1.06-0.12,2.11,0.17,3.17l0.63,3.85c0.11,0.7,0.46,1.42,0.93,2.09c-0.01,0.15-0.01,0.29-0.02,0.44
		c-0.47,6.72-1.37,13.44-2.08,20.14c-0.32,3,1.91,5.68,4.62,6.86c0.17,8.3,1.13,16.6,1.24,24.9c0.15,11.63-0.42,23.27,0.36,34.89
		c0.66,9.81,1.55,21.13,7.09,29.59c5.85,8.92,18.18,13.63,28.6,13.4c1.16-0.03,2.18-0.27,3.06-0.67c0.58,0.37,1.21,0.67,1.87,0.85
		c8.22,2.19,16.44,4.37,24.65,6.56c7.19,1.91,14.51,4.47,21.99,4.9c7.42,3.4,15.39,5.85,22.74,8.1c7.59,2.32,15.14,4.64,22.54,7.51
		c7.99,3.1,15.72,5.82,24.36,6.28c0.95,0.05,1.81-0.05,2.57-0.28c2.47,0.86,4.75,0.72,6.77-0.14c2.45,0.44,4.96,1.55,7.16,2.15
		c3.95,1.07,7.99,1.72,12.06,1.08c2.64,2.21,6.38,2.66,9.23-0.84c3.4-4.18,6.8-8.37,10.21-12.55c0.05-0.06,0.08-0.12,0.13-0.17
		c1.66-0.41,3.23-1.41,4.44-3.16c2.37-3.62,4.73-7.24,7.14-10.84c1.02-0.3,2.02-0.83,2.97-1.65c4.39-3.82,8.7-7.74,12.96-11.7
		c4.06-3.66,8.11-7.32,12.17-10.99c7.24-6.53,14.2-14.05,23.08-18.33C294.06,281.51,286.47,268.57,277.8,272.75z"/>
	<path class="st2" d="M257.52,278.58c-4.49,0-6.89,3.24-7.21,6.71c-1.75-0.6-3.79-0.48-5.87,0.77c-5.41,3.26-11.64,7.47-18.27,5.96
		c-2.24-0.51-4.49,0.16-6.27,1.47c-1.2-2.74-2.8-5.36-3.15-8.26c-0.52-4.3,1.2-9.32,2.16-13.62c1.05-1.3,1.78-3.13,1.7-4.75
		c-0.09-1.94-0.72-3.95-2.2-5.3c-1.39-1.27-3.35-2.38-5.3-2.2c-0.16,0.02-0.32,0.02-0.47,0.02c-0.22-0.07-0.44-0.14-0.65-0.23
		c-1-0.31-1.99-0.36-2.99-0.13c-0.12,0.01-0.24,0.03-0.35,0.04c-0.1-0.13-0.2-0.26-0.3-0.39c-0.58-0.58-1.24-1.03-1.95-1.39
		c-0.24-0.22-0.49-0.43-0.76-0.61c-0.72-0.66-1.57-1.11-2.55-1.34c-1-0.31-1.99-0.36-2.99-0.13c-1,0.05-1.93,0.34-2.79,0.89
		c-1.6,1.03-3.01,2.57-3.45,4.48c-0.09,0.66-0.18,1.33-0.27,1.99c0,1.35,0.35,2.62,1.02,3.79c0.82,1.58,2.04,2.59,3.45,3.6
		c0.44,0.32,0.92,0.48,1.44,0.69c0.52,0.22,1,0.47,1.55,0.56c0.87,0.27,1.74,0.33,2.62,0.19c-0.73,3.45-1.44,6.91-1.79,10.4
		c-0.56,5.65,1.03,10.04,3.35,15.07c1.88,4.07,1.67,8.42,1.63,12.84c-0.04,4.22-0.29,8.42-0.7,12.61
		c-4.72,3.8-3.21,13.49,4.56,13.49c2.69,0,4.64-1.17,5.83-2.86c2.04-1.05,3.36-3.07,3.93-5.42c0.15-0.18,0.3-0.37,0.44-0.56
		c0.55-0.76,1.12-1.5,1.7-2.24c2.67,0.41,5.62-0.57,7.63-3.39c1.6-2.25,2.88-4.66,3.89-7.19c0.34-0.14,0.68-0.29,1-0.49
		c1-0.61,1.88-1.31,2.67-2.09c0.11-0.09,0.22-0.16,0.32-0.25c2.53-2.27,5.06-4.55,7.59-6.82c0.87-0.79,1.48-1.81,1.82-2.94
		c1.5-0.81,2.99-1.66,4.47-2.56c2.38-1.43,3.44-3.53,3.56-5.68c0.6,0.15,1.24,0.23,1.95,0.23
		C267.17,293.58,267.19,278.58,257.52,278.58z"/>
	<path class="st0" d="M254.69,269.03c-4.82,3.29-10.09,4.58-15.84,3.18c-9.38-2.29-13.38,12.18-3.99,14.46
		c9.42,2.3,19.33,0.82,27.39-4.69C270.18,276.58,262.69,263.57,254.69,269.03z"/>
	<path class="st1" d="M199.65,249.94c-3.05-9.11-17.54-5.2-14.46,3.99c1.7,5.09,2.34,10,2,15.35c-0.25,4.05,3.63,7.5,7.5,7.5
		c4.27,0,7.25-3.44,7.5-7.5C202.6,262.75,201.72,256.15,199.65,249.94z"/>
</g>
<g id="Camada_2">
	<path class="st3" d="M198.84,102.01c-0.2-0.6-0.57-1.19-1.15-1.49c-0.59-0.31-1.27-0.44-1.93-0.25c-0.05,0.01-0.11,0.02-0.16,0.03
		c-0.07,0-0.14,0-0.21,0c-0.07-0.02-0.14-0.03-0.2-0.05c-0.11-0.06-0.22-0.12-0.32-0.19c-0.09-0.09-0.19-0.18-0.28-0.28
		c-0.34-0.43-0.77-0.77-1.32-0.92c-0.33-0.1-0.66-0.12-1-0.04c-0.33,0.02-0.64,0.11-0.93,0.3c-0.53,0.34-1,0.86-1.15,1.49
		c-0.14,0.64-0.12,1.36,0.25,1.93c0.22,0.34,0.47,0.63,0.73,0.91c0.03,0.08,0.05,0.17,0.09,0.24c0.1,0.31,0.27,0.58,0.52,0.8
		c0.23,0.24,0.49,0.42,0.8,0.52c0.3,0.16,0.62,0.23,0.96,0.22c0.2-0.03,0.41-0.05,0.61-0.08c0.38,0.08,0.77,0.14,1.14,0.17
		c0.59,0.03,1.21-0.05,1.78-0.21c0.61-0.18,1.17-0.6,1.49-1.15C198.9,103.4,199.03,102.61,198.84,102.01z"/>
	<path class="st3" d="M229.33,143.71c-9.17,0.7-18.66,0.78-27.78-0.63c-7.54-1.16-15.53-3.97-19.7-10.81
		c-1.67-2.74-6-0.23-4.32,2.52c4.67,7.66,13.22,11.51,21.78,12.96c9.84,1.67,20.08,1.71,30.02,0.95c1.35-0.1,2.5-1.08,2.5-2.5
		C231.83,144.94,230.68,143.61,229.33,143.71z"/>
	<path class="st3" d="M317.76,227.5c-0.1-0.1-0.19-0.22-0.28-0.33c-0.58-0.39-1.03-0.87-1.38-1.43c-0.03-0.01-0.06-0.03-0.1-0.04
		c0.01-0.04,0-0.08,0-0.12c-0.23-0.39-0.43-0.8-0.6-1.24c-0.03-0.09-0.06-0.19-0.09-0.28c0,0,0-0.01-0.01-0.01c0,0,0,0,0.01,0.01
		c-0.01-0.04-0.03-0.09-0.04-0.13c-0.33-0.56-0.56-1.15-0.67-1.8c-6.43-12.19-9.96-25.61-14.75-38.48
		c-4.89-13.12-11.39-25.59-19.57-36.96c-4.47-6.21-9.38-12.09-14.7-17.59c0.58-0.32,1.16-0.63,1.73-0.96
		c2.97-1.73,5.78-3.73,8.46-5.88c0.01-0.01,0.01-0.02,0.01-0.02c0.33-0.56,0.75-1.04,1.26-1.43c0.68-1,1.51-1.93,2.4-2.82
		c0.05-0.05,0.11-0.09,0.16-0.13c0.05-0.09,0.11-0.18,0.17-0.27c-0.01-0.07-0.01-0.14-0.02-0.2c4-3.65,6.77-8.4,8.82-13.47
		c2.83-6.99,4.62-14.56,5.96-21.97c0.77-4.28,1.27-8.6,1.41-12.95c-0.08-0.37-0.13-0.74-0.14-1.12c-0.27-0.71-0.39-1.49-0.36-2.26
		c0-0.01-0.01-0.01-0.01-0.02c0.78-11.63-0.83-23.46-4.79-34.43c-1.87-5.19-4.17-10.64-8.86-13.9c-2.37-1.65-5.53-2.43-8.23-1.11
		c-2.6,1.27-4.31,4.37-6.03,6.58c-4.39,5.63-8.78,11.27-13.16,16.9c-15.66-3.84-31.31-7.68-46.97-11.52
		c-4.67-1.15-9.35-2.29-14.02-3.44c-0.27-0.07-0.51-0.08-0.75-0.07c-4.08-6.35-8.31-12.79-14.01-17.82
		c-1.51-1.33-3.11-2.68-5.06-3.28c-2.15-0.66-4.34-0.07-6.26,0.96c-3.14,1.67-6.01,4.18-8.29,6.91c-2.4,2.88-4.26,6.11-5.55,9.61
		c-0.1,0.54-0.27,1.07-0.52,1.55c-0.03,0.14-0.05,0.27-0.06,0.4c-0.43,1.02-0.84,2.04-1.25,3.07c-0.08,0.25-0.17,0.49-0.29,0.71
		c-0.25,0.64-0.49,1.27-0.74,1.91c-0.12,0.74-0.38,1.45-0.79,2.07c-2.92,7.8-5.38,15.75-7.31,23.86c-2.69,11.3-5.14,23.35-2.9,34.93
		c2.27,11.69,9.55,20.97,18.75,28.13c-4.3,2.22-8.31,5.01-11.89,8.27c-3.85,3.5-6.78,7.76-10.36,11.5c-3.6,3.77-8.33,6.13-12.01,9.8
		c-3.12,3.11-5.39,6.95-7.65,10.7c-2.37,3.95-4.84,8.12-8.71,10.79c-0.11,0.08-0.21,0.17-0.31,0.25c-1.85-0.48-4.13,1.5-2.89,3.65
		c1.62,2.81,3.94,4.99,6.54,6.83c-0.14,0.21-0.26,0.44-0.33,0.69c-0.25,0.84-0.5,1.67-0.75,2.51c-0.08,0.26-0.09,0.51-0.07,0.77
		c-22.2-6.11-44.4-12.21-66.69-17.94c-4.15-1.07-8.31-2.12-12.48-3.16c-4.03-1-8.12-2.15-12.3-2.26c-3.7-0.1-7.85,0.82-9.59,4.47
		c-1.16,2.45-1.02,5.17-0.48,7.78c-0.4,0.44-0.65,1-0.6,1.6c1.9,22.67,3.81,45.33,5.71,68c0.95,11.38,1.91,22.75,2.86,34.13
		c0.46,5.52,0.89,11.04,1.39,16.55c0.39,4.29,0.91,8.67,2.56,12.68c1.75,4.26,4.68,7.75,8.87,9.77c4.61,2.22,9.8,3.22,14.72,4.53
		c11.01,2.93,22.03,5.86,33.04,8.78c21.95,5.82,43.9,11.63,65.86,17.42c10.94,2.89,21.88,5.77,32.82,8.64
		c5.47,1.44,10.94,2.88,16.41,4.31c2.74,0.72,5.47,1.44,8.21,2.15c0.83,0.22,1.66,0.44,2.5,0.58c0.04,0.02,0.06,0.05,0.1,0.08
		c0.36,0.25,0.71,0.49,1.07,0.74c0.29,0.18,0.6,0.28,0.93,0.3c0.33,0.07,0.66,0.06,1-0.04c0.21-0.05,0.4-0.14,0.58-0.25
		c0.65,0.19,1.38,0.11,2.05-0.19c6.15-2.71,10.33-8.18,14.17-13.47c2.07-2.86,4.15-5.69,6.48-8.34c2.69-3.06,5.57-5.95,8.44-8.83
		c11.42-11.46,22.87-22.94,35.46-33.13c6.64-5.38,13.61-10.47,19.07-17.11c0.55-0.67,0.81-1.5,0.66-2.29
		c0.24-0.55,0.4-1.14,0.44-1.74c0.11-1.59-0.69-3.16-1.91-4.15c-1.19-0.95-2.52-1.48-3.9-2.07l-0.35-0.15
		c5.89-3.86,11.04-8.98,14.64-15.05c3.99-6.71,5.2-14.66,3.35-22.25c3.75-0.78,7.46-1.73,11.12-2.85
		C317.65,230.13,318.08,228.7,317.76,227.5z M145.27,91.75c-0.34-1.13-0.6-2.26-0.83-3.4c0.93,0.69,1.86,1.38,2.79,2.07
		c0.2,0.15,0.47,0.23,0.76,0.28c-0.43,3.05-0.25,6.09,1.04,9.03c0.28,0.65,0.61,1.28,0.96,1.9
		C147.96,98.58,146.33,95.29,145.27,91.75z M153.05,90.69c-0.06-0.67,0-1.34,0.17-1.98c-0.01-0.61,0.06-1.22,0.23-1.8
		c-0.06-0.15-0.12-0.31-0.21-0.44c0.06-0.08,0.13-0.16,0.19-0.26c3.08-5.11,10.18-3.67,14.8-2.1c4.72,1.6,11.4,3.42,12.26,9.17
		c0.8,5.38-0.74,11.38-5.81,14.03c-4.66,2.44-10.07,1.39-14.26-1.48c-2.5-1.71-4.58-4.1-6.1-6.71
		C152.72,96.38,152.54,93.6,153.05,90.69z M154.84,107.7c0.25,0.23,0.49,0.45,0.75,0.67c5.34,4.54,12.67,6.79,19.44,4.22
		c3.22-1.22,6.04-3.27,7.91-6.19c1.77-2.77,2.49-6.13,2.64-9.41c7.02-2.09,14.94-0.64,20.53,4.24c0.97,0.85,2.4,0.98,3.4,0.11
		c-0.1,6.03,2.18,12.06,6.59,16.29c5.39,5.17,13.57,7.44,20.82,5.44c7.35-2.03,11.22-9.31,12.71-16.41c2.04,0.33,4.08,0.67,6.13,1
		c0.68,0.11,1.31,0.11,1.93-0.25c0.52-0.3,1.01-0.9,1.15-1.49c0.15-0.64,0.11-1.36-0.25-1.93c-0.33-0.51-0.86-1.05-1.49-1.15
		c-2.23-0.36-4.47-0.73-6.7-1.09c-0.08-0.01-0.16-0.02-0.25-0.03c-0.13-1.32-0.58-2.56-1.47-3.71c-1.16-1.51-2.71-2.73-4.3-3.76
		c-0.48-0.31-0.97-0.58-1.47-0.85c2.77-0.07,5.54-0.29,8.25-0.55c1.34-0.13,2.5-1.06,2.5-2.5c0-1.25-1.15-2.63-2.5-2.5
		c-8.88,0.86-19.54,1.97-26.75-4.49c-2.39-2.14-5.94,1.38-3.54,3.54c1.2,1.07,2.47,1.97,3.78,2.73c-1.01-0.03-2.01-0.04-3.02-0.04
		c-4.72,0.01-9.45,1.5-11.28,6.24c-0.05,0.13-0.08,0.27-0.1,0.4c-0.09,0.18-0.17,0.38-0.22,0.62c-0.08,0.36-0.14,0.71-0.2,1.07
		c-0.06-0.07-0.11-0.15-0.19-0.21c-6.6-5.75-15.93-8.02-24.38-5.81c-0.53-2.62-1.72-5.02-3.84-6.85c-0.37-0.32-0.76-0.62-1.16-0.91
		c1.28,0.01,2.35-1.28,2.35-2.49c0-1.46-1.15-2.38-2.5-2.5c-4.04-0.37-8.05-1.52-11.67-3.35c-1.87-0.94-3.68-2.05-5.34-3.33
		c-1.24-0.96-2.78-2.16-2.62-3.83c0.13-1.35-1.24-2.5-2.5-2.5c-1.46,0-2.37,1.15-2.5,2.5c-0.25,2.67,1.39,5.06,3.32,6.74
		c0.94,0.82,1.94,1.58,2.98,2.29c-0.87-0.04-1.73-0.03-2.61,0.07c-4.06,0.48-7.89,2.38-10.05,5.96c-0.36,0.6-0.43,1.19-0.31,1.71
		c-1.61-1.2-3.22-2.39-4.84-3.59c-0.08-0.06-0.18-0.1-0.28-0.14c-0.26-7.49,1.23-15.11,2.81-22.33
		c2.69-12.29,6.54-24.36,11.52-35.92c0.17-0.4,0.26-0.83,0.28-1.24c1.15-2.99,2.83-5.78,4.98-8.16c1.24-1.37,2.61-2.66,4.12-3.73
		c1.34-0.95,3.33-2.63,5.06-1.87c1.76,0.77,3.29,2.48,4.63,3.82c1.52,1.53,2.94,3.16,4.28,4.85c2.69,3.41,5.02,7.09,7.36,10.74
		c0.57,0.89,1.43,1.21,2.26,1.14c0.27,0.23,0.6,0.41,1.03,0.52c16.28,3.99,32.56,7.98,48.84,11.97c4.67,1.15,9.35,2.29,14.02,3.44
		c1.5,0.37,2.59-0.56,2.96-1.71l10.48-13.45c1.81-2.32,3.62-4.65,5.43-6.97c0.59-0.76,1.29-1.95,2.25-2.26
		c0.84-0.27,1.86,0.2,2.57,0.62c3.92,2.3,5.77,7.3,7.23,11.35c1.88,5.2,3.23,10.59,4.03,16.07c0.7,4.78,0.91,9.64,0.72,14.47
		c0.1,0.62,0.18,1.25,0.25,1.88c0.04,0.29,0.13,0.65,0.13,0.96c0.03,0.16,0.06,0.33,0.09,0.49c0.18,0.94,0.13,1.85-0.09,2.67
		c-0.26,7.34-1.66,14.55-3.49,21.66c-1.6,6.2-3.38,12.51-6.83,17.97c-0.75,1.19-1.59,2.3-2.52,3.34c-1.17,2.47-3.04,4.81-5.44,6.18
		c0.01,0.06,0.02,0.12,0.03,0.18c-11.36,9.11-25.77,14.3-40.33,14.67c-3.59,0.09-7.18-0.13-10.74-0.64
		c-0.25,0.04-0.49,0.06-0.75,0.05h-0.18c-0.28,0-0.56-0.03-0.83-0.08c-0.26,0.05-0.53,0.08-0.79,0.08c-0.24,0-0.48-0.03-0.72-0.05
		c-0.37,0.02-0.73,0-1.08-0.05c-0.09,0.05-0.18,0.09-0.26,0.14c-10.55-0.27-20.98-2.18-30.94-5.68c-9.05-3.18-17.95-7.62-25.41-13.7
		C158.61,111.44,156.65,109.64,154.84,107.7z M214.85,98.15c0.04-0.17,0.05-0.34,0.06-0.5c0.1-0.16,0.19-0.34,0.26-0.52
		c1.04-2.69,5.14-2.6,7.41-2.56c2.97,0.05,5.97,0.16,8.92,0.55c2.79,0.37,5.68,1.01,8.23,2.24c1.87,0.9,5.49,2.74,5.5,5.17
		c0.01,1.53-0.46,3.14-0.87,4.61c-0.45,1.61-1.02,3.18-1.78,4.68c-1.28,2.54-3.04,4.91-5.76,6.02c-5.17,2.09-11.55,0.69-15.89-2.62
		C215.82,111.32,213.47,104.38,214.85,98.15z M202.33,354.38c-0.36,0.52-0.42,1.16-0.28,1.76c-2.58-0.68-5.16-1.35-7.74-2.03
		c-5.31-1.39-10.62-2.79-15.93-4.19c-10.54-2.77-21.08-5.55-31.61-8.32c-21.15-5.58-42.3-11.17-63.45-16.78
		c-10.53-2.79-21.07-5.59-31.6-8.39c-5.08-1.35-10.18-2.63-15.24-4.07c-3.93-1.11-7.83-2.63-10.13-6.21c-2.1-3.26-2.9-7.21-3.35-11
		c-0.6-5.04-0.9-10.12-1.33-15.18c-0.91-10.88-1.83-21.75-2.74-32.63c-1.83-21.84-3.67-43.67-5.5-65.51
		c-0.17-2.07-0.35-4.14-0.52-6.21c0.69-0.54,1.11-1.4,0.8-2.51c-0.54-1.94-1.45-4.86-0.24-6.71c1.38-2.11,5.48-1.49,7.55-1.2
		c3.31,0.47,6.57,1.42,9.82,2.23c3.52,0.88,7.04,1.77,10.55,2.67c13.9,3.57,27.76,7.32,41.61,11.1c16.85,4.6,33.7,9.22,50.54,13.83
		c0.18,0.1,0.36,0.19,0.55,0.24c0.22,0.06,0.44,0.08,0.64,0.08c10.48,2.87,20.97,5.74,31.45,8.61c7.86,2.15,15.72,4.3,23.59,6.45
		c3.2,0.88,6.61,1.58,9.42,3.45c2.19,1.46,3.79,4.1,2.87,6.73c-0.22,0.63-0.1,1.3,0.23,1.87c-1.48,7.99-1.75,16.13-1.7,24.24
		c0.06,9.01,0.25,18.02,0.48,27.02c0.45,18.04,1.17,36.08,2.15,54.1c0.27,4.98,0.57,9.96,0.87,14.95
		C204.34,346.71,204.66,350.97,202.33,354.38z M114.46,184.61c0.14-0.21,0.25-0.44,0.33-0.69c0.18-0.62,0.37-1.24,0.56-1.85
		c0.66,0.37,1.32,0.72,1.98,1.07c4.42,2.31,9.01,4.3,13.7,6.03C125.5,187.65,119.98,186.13,114.46,184.61z M203.46,206.39
		c-0.62,0.93-0.69,2.03-0.73,3.12c-0.01,0.26-0.02,0.52-0.03,0.78c-1.62-1.25-3.49-2.16-5.46-2.88c-3.39-1.23-6.97-2.04-10.45-2.99
		c-2.29-0.63-4.58-1.25-6.87-1.88c0.04-0.19,0.08-0.38,0.08-0.58c-0.03-0.22-0.06-0.44-0.09-0.66c-0.12-0.42-0.33-0.79-0.64-1.1
		c-0.24-0.24-0.48-0.48-0.72-0.72c-0.23-0.24-0.49-0.42-0.8-0.52c-0.3-0.16-0.62-0.23-0.96-0.22c-0.34-0.01-0.67,0.06-0.96,0.22
		c-0.31,0.1-0.58,0.27-0.8,0.52c-0.13,0.17-0.26,0.34-0.39,0.51c-0.18,0.32-0.28,0.66-0.31,1.02c-2.32-0.63-4.63-1.27-6.95-1.9
		c0.76-4.11-2.01-7.57-2.01-11.64c0-4.16,1.63-8.35,2.84-12.33c0.79-0.07,1.52-0.53,2.02-1.23c5.33-7.42,16.52-7.99,24.69-6.45
		c4.73,0.89,9.55,2.59,13.2,5.82c3.71,3.27,5.69,7.71,6.43,12.55c0.81,5.38,0.2,10.95-0.54,16.32c-0.7,0.27-1.27,0.84-1.53,1.63
		c-0.01,0.01-0.01,0.01-0.02,0.03c-0.01,0.02-0.02,0.03-0.02,0.05c-0.07,0.06-0.21,0.17-0.27,0.24c0,0-0.01,0.01-0.01,0.01
		c-0.12,0.07-0.25,0.14-0.37,0.2c-0.02,0.01-0.04,0.01-0.07,0.02c-0.17,0.05-0.34,0.1-0.51,0.14l-0.19,0.04
		c-0.28,0.05-0.25,0.04,0.09-0.01c-0.01,0.12-2.3,0.01-2.52,0c-0.85-0.04-1.66-0.03-2.5,0.14
		C205,204.85,204.05,205.49,203.46,206.39z M205.65,251.28c-0.02-1.85-0.04-3.71-0.05-5.57c8.11,3.43,16.22,6.87,24.33,10.3
		c-1.31,1.29-2.62,2.57-3.93,3.86c-0.49,0.48-0.98,0.97-1.47,1.47c-0.4-0.4-0.96-0.67-1.7-0.67c-0.52,0-0.94,0.14-1.29,0.35
		c-0.25-0.2-0.54-0.36-0.87-0.46c-1.9-0.56-3.78-1.2-5.62-1.93c-0.23-0.09-0.45-0.18-0.68-0.27c-0.04-0.02-0.29-0.12-0.44-0.18
		c-0.11-0.05-0.46-0.2-0.5-0.21c-0.22-0.1-0.45-0.2-0.67-0.3c-0.92-0.41-1.83-0.85-2.73-1.3c-1.17-0.59-2.76-0.35-3.42,0.9
		c-0.6,1.14-0.35,2.79,0.9,3.42c3.79,1.91,7.76,3.49,11.84,4.69c0.32,0.09,0.65,0.09,0.98,0.04c0.03,0.06,0.05,0.12,0.08,0.17
		c-3.74,4.12-6.95,8.68-8.15,14.21c-0.05,0.22-0.06,0.43-0.06,0.64c-1.55,4.69,1.23,9.92,5.23,12.45
		c5.02,3.18,11.48,2.64,17.05,1.61c5.99-1.1,11.74-3.22,17.35-5.55c3.52-1.46,6.98-3.03,10.41-4.69c0.21,0.26,0.45,0.5,0.75,0.66
		c-0.07,0.12-0.14,0.23-0.22,0.35c-0.23,0.27-0.48,0.54-0.73,0.8c-0.31,0.13-0.61,0.33-0.89,0.64
		c-12.91,14.22-26.69,27.65-41.25,40.17c-3.67,3.16-7.41,6.25-11.18,9.3c-0.07-1.03-0.14-2.07-0.2-3.1
		c-0.52-9.05-0.97-18.11-1.35-27.16C206.4,287.7,205.89,269.49,205.65,251.28z M287.07,276.18c0.18,0.09,0.5,0.22,0.74,0.36
		c0.01,0.01,0.02,0.03,0.07,0.07c0.03,0.03,0.07,0.06,0.1,0.09c-0.82,0.59-1.29,1.72-1,2.69c-4.51,5.02-9.84,9.2-15.11,13.39
		c-6.21,4.94-12.19,10.15-17.99,15.57c-5.91,5.53-11.66,11.24-17.38,16.98c-5.56,5.58-11.15,11.1-15.85,17.45
		c-3.37,4.55-6.57,9.59-11.2,12.89c-0.34-0.54-0.95-0.91-1.59-1.05c1.16-2.74,1.44-5.82,1.38-8.79c-0.03-1.45-0.1-2.9-0.18-4.35
		c0.65,0,1.31-0.26,1.86-0.7c14.98-12.02,29.23-24.94,42.62-38.71c3.78-3.89,7.49-7.84,11.13-11.85c0.01-0.01,0.02-0.03,0.03-0.04
		c0.29-0.12,0.55-0.29,0.78-0.52c0.61-0.62,1.2-1.27,1.67-2c0.55-0.84,0.87-1.83,0.91-2.84c0.04-1.05-0.33-2.16-0.98-3.03
		c0.4-0.21,0.8-0.41,1.19-0.62c4.39-2.34,8.67-4.86,12.85-7.55c1.63,0.7,3.27,1.39,4.9,2.09
		C286.38,275.87,286.73,276.02,287.07,276.18z M297.1,253.56c-2.86,4.68-6.76,8.7-11.22,11.89c-0.65,0.78-1.51,1.38-2.49,1.63
		c-0.52,0.13-1.03,0.29-1.54,0.46c-0.17,0.06-0.34,0.12-0.51,0.17c-0.18,0.1-0.36,0.2-0.54,0.31c-0.29,0.19-0.6,0.33-0.9,0.44
		c-8.09,5.29-16.57,9.97-25.39,13.92c-4.95,2.22-10,4.28-15.21,5.81c-4.79,1.41-10.36,2.81-15.37,1.85
		c-2.25-0.43-4.44-1.34-5.84-3.22c-1.27-1.71-1.68-3.67-0.87-5.64c0.13-0.33,0.16-0.67,0.1-1.01c1.94-7.17,7.78-12.42,12.92-17.46
		c6.73-6.61,13.47-13.22,20.21-19.84c0.58-0.57,0.79-1.23,0.74-1.85c0.04-0.18,0.07-0.36,0.07-0.55v-1.8
		c0.01-0.34-0.06-0.67-0.22-0.96c-0.07-0.23-0.2-0.43-0.35-0.61c16.52,0.19,33.1,0.07,49.42-2.73c0.01,0.11,0.02,0.22,0.05,0.34
		C301.76,241.21,300.58,247.88,297.1,253.56z M261.06,232.17c-4.14,0.01-8.29-0.04-12.43-0.09c2.38-10.58,3.57-21.43,3.51-32.28
		c-0.02-3.22-5.02-3.22-5,0c0.07,11.49-1.28,22.92-4.05,34.07c-0.39,1.59,0.76,3.14,2.41,3.16c0.21,0,0.42,0.01,0.63,0.01
		c-0.23,0.68-0.18,1.44,0.13,2.08v0.85c-4.2,4.12-8.4,8.25-12.6,12.37c-0.16-0.16-0.33-0.29-0.54-0.39
		c-8.91-3.77-17.82-7.54-26.73-11.31c-0.25-0.1-0.5-0.17-0.75-0.22c0.12-6.16,0.55-12.3,1.81-18.35c0.12-0.6,0.05-1.2-0.19-1.72
		c0.19-1.32,0.07-2.67-0.29-3.95c0.31-0.41,0.51-0.92,0.53-1.49l0.22-5.21c0-0.07,0.01-0.15,0.01-0.22c0.18,0,0.36,0,0.55,0
		c1.67,0.06,3.44,0.17,5.04-0.43c1.28-0.49,2.34-1.26,3.11-2.3c0.27-0.68,0.67-1.29,1.21-1.79c0.19-0.54,0.47-1.04,0.83-1.49
		c0.12-0.38,0.29-0.75,0.49-1.09c1.43-10.93,2.06-23.19-6.24-31.63c-7.82-7.95-20.88-10.2-31.53-8.38
		c-6.06,1.04-11.64,3.93-15.27,8.97c-0.05,0-0.09,0.01-0.14,0.01c-0.25,0.44-0.57,0.83-0.96,1.17c-0.37,0.62-0.88,1.16-1.54,1.55
		c-1.23,4.07-2.66,8.2-2.91,12.45c-0.13,2.2,0.24,4.35,0.96,6.43c0.52,1.5,1.34,3.18,1.18,4.81c-8.13-2.22-16.26-4.45-24.38-6.67
		c2.34-6.07,5.01-12,8.01-17.78c0.62-1.2,0.31-2.72-0.9-3.42c-1.12-0.66-2.8-0.31-3.42,0.9c-2.46,4.74-4.7,9.59-6.75,14.53
		c-5.08-1.74-10.03-3.82-14.8-6.29c-3.37-1.74-6.93-3.63-9.53-6.45c3.48-2.55,6.08-5.92,8.37-9.55c2.24-3.56,4.18-7.37,6.9-10.6
		c3.26-3.88,7.73-6.24,11.51-9.53c3.94-3.43,6.8-7.9,10.47-11.6c3.96-4,8.54-7.25,13.58-9.76c0.46-0.23,0.77-0.54,0.98-0.88
		c5.7,3.83,11.9,6.94,17.98,9.38c11.75,4.71,24.37,7.21,37.03,7.46c0.62,0.01,1.12-0.17,1.5-0.46c7.54,1.24,15.23,1.23,22.75,0.07
		c-0.54,0.53-1.11,1.02-1.71,1.49c-0.73,0.54-1.49,1.05-2.28,1.49c-0.54,0.31-0.98,0.9-1.15,1.49c-0.16,0.6-0.09,1.4,0.25,1.93
		c0.74,1.15,2.2,1.59,3.42,0.9c2.49-1.41,4.77-3.28,6.59-5.49c0.43-0.53,0.73-1.06,0.73-1.77c0-0.36-0.11-0.76-0.28-1.12
		c4.68-1.1,9.25-2.67,13.63-4.67c0.12,0.23,0.26,0.46,0.47,0.68c9.63,9.86,17.87,20.99,24.48,33.08c3.28,5.99,6.14,12.2,8.57,18.58
		c2.57,6.76,4.75,13.67,7.13,20.5c2.7,7.71,5.69,15.35,9.69,22.48c0.02,0.03,0.03,0.05,0.05,0.07
		C295.04,231.24,277.99,232.14,261.06,232.17z"/>
	<path class="st3" d="M207.02,192.03c-0.25-1.84-1.53-3.33-3.03-4.33c-2.49-1.66-6.01-1.61-8.7-0.51c-1.82,0.74-3.45,1.93-4.68,3.43
		c-0.81,0.53-1.54,1.2-1.99,2c-0.22,0.39-0.36,0.8-0.44,1.2c-0.17,0.15-0.33,0.32-0.48,0.51c-1.37,1.8-0.13,4.4,1.69,5.3
		c2.11,1.04,3.96-0.07,5.74-1.16c1.23-0.76,2.35-1.02,3.91-0.92c1.9,0.12,3.75,0.33,5.5-0.63
		C206.34,195.94,207.29,194.05,207.02,192.03z"/>
	<path class="st3" d="M175.59,191.38c-0.02-0.04-0.05-0.08-0.08-0.12c0-0.04,0.02-0.08,0.02-0.12c0.03-0.45-0.05-0.91-0.12-1.34
		c-0.08-0.42-0.26-0.81-0.43-1.2c-0.1-0.22-0.21-0.44-0.36-0.64c-0.25-0.34-0.51-0.71-0.83-1c-0.43-0.4-0.87-0.7-1.35-0.95
		c-0.22-0.22-0.46-0.42-0.73-0.57c-0.78-0.45-1.64-0.52-2.51-0.33c-0.54,0.12-1,0.47-1.33,0.92c-0.03,0.03-0.06,0.05-0.09,0.08
		c-0.24,0.23-0.42,0.49-0.52,0.8c-0.16,0.3-0.23,0.62-0.22,0.96c0.03,0.65,0.24,1.32,0.73,1.77c0.17,0.13,0.34,0.26,0.51,0.39
		c0.28,0.16,0.59,0.25,0.91,0.29c0.32,0.92,0.57,1.85,0.73,2.81c0.06,0.53,0.11,1.05,0.12,1.59c0.03,1.56,1.58,2.92,3.16,2.41
		c1.03-0.33,1.97-1.02,2.42-2.03c0.27-0.6,0.45-1.15,0.45-1.82C176.09,192.59,175.89,191.99,175.59,191.38z"/>
	<path class="st3" d="M178.63,188.94c-0.45-0.78-3.19,0.27-2.9,0.78c0.98,1.69,1.36,3.71,1,5.64c-0.1,0.54,0.89,0.42,1.18,0.37
		c0.38-0.07,0.76-0.17,1.1-0.35c0.18-0.1,0.54-0.26,0.58-0.49C179.99,192.84,179.67,190.73,178.63,188.94z"/>
	<path class="st3" d="M205.63,201.57c-0.31-0.17-0.63-0.18-0.98-0.18c-0.73,0.01-1.44,0.06-2.16,0.2c-0.76,0.15-1.58,0.46-2.18,0.95
		c-0.6,0.49-1.03,1.06-1.26,1.81c-0.19,0.62-0.07,1.24,0.25,1.78c0.14,0.23,0.57,0.33,0.81,0.36c0.36,0.03,0.81-0.05,1.14-0.21
		c0.29-0.14,0.62-0.34,0.76-0.64c0.12-0.25,0.11-0.46-0.03-0.7c0.02,0.04,0.04,0.07,0.05,0.11c-0.07-0.15-0.11-0.3-0.14-0.46
		c0-0.14,0.02-0.28,0.06-0.41c0.06-0.15,0.14-0.28,0.22-0.41c0.04-0.05,0.09-0.1,0.13-0.15c0.02-0.02,0.05-0.03,0.07-0.05
		c0.05-0.02,0.1-0.04,0.15-0.07c0.06-0.02,0.13-0.04,0.19-0.05c0.04-0.01,0.08-0.02,0.12-0.03c0.17-0.02,0.35-0.04,0.52-0.05
		c0.33-0.02,0.66-0.03,0.98-0.03c0.35,0,0.81-0.19,1.09-0.39c0.21-0.15,0.5-0.43,0.52-0.71
		C205.99,201.95,205.88,201.71,205.63,201.57z"/>
	<path class="st3" d="M280.97,223.84c-8.75,0.93-17.55,0.85-26.29-0.23c-1.35-0.17-2.99,1.75-1.03,1.99
		c8.97,1.11,18.04,1.19,27.03,0.23c0.59-0.06,1.54-0.42,1.61-1.12C282.35,224.01,281.52,223.78,280.97,223.84z"/>
	<path class="st3" d="M305.91,220.12c-0.46-0.47-1.4-0.29-1.93-0.06c-0.21,0.09-0.43,0.19-0.65,0.27c-0.07,0.03-0.63,0.28-0.66,0.25
		l0.19-0.07c-0.06,0.02-0.13,0.04-0.19,0.06c-0.1,0.03-0.19,0.06-0.29,0.09c-0.22,0.07-0.45,0.13-0.67,0.19
		c-0.21,0.06-0.42,0.11-0.63,0.16c-0.11,0.03-0.23,0.05-0.34,0.07c0,0,0,0-0.01,0c-0.46,0.08-0.92,0.15-1.38,0.2
		c-0.37,0.04-0.78,0.18-1.1,0.38c-0.19,0.12-0.51,0.38-0.54,0.64c-0.08,0.66,0.81,0.73,1.27,0.68c2.13-0.22,4.22-0.78,6.18-1.64
		c0.27-0.12,0.61-0.32,0.77-0.59C306.04,220.56,306.08,220.29,305.91,220.12z"/>
	<path class="st3" d="M133.04,179.1c-5.91-1.06-11.14-4.67-14.38-9.7c-0.49-0.76-3.31,0.16-2.7,1.11c3.42,5.32,9.07,8.98,15.29,10.1
		c0.67,0.12,1.54-0.09,2.05-0.55C133.74,179.66,133.65,179.21,133.04,179.1z"/>
</g>
</svg>
