<?xml version="1.0" encoding="UTF-8"?>
<svg width="1530px" height="1202px" viewBox="0 0 1530 1202" version="1.1" xmlns="http://www.w3.org/2000/svg" xmlns:xlink="http://www.w3.org/1999/xlink">
    <!-- Generator: Sketch 50.2 (55047) - http://www.bohemiancoding.com/sketch -->
    <title>Asset 1</title>
    <desc>Created with Sketch.</desc>
    <defs></defs>
    <g id="Page-1" stroke="none" stroke-width="1" fill="none" fill-rule="evenodd">
        <g id="Asset-1" transform="translate(764.500000, 601.000000) scale(-1, 1) translate(-764.500000, -601.000000) translate(-1.000000, 0.000000)">
            <g id="Group-2" transform="translate(0.000000, 373.000000)" fill-rule="nonzero">
                <polygon id="Shape" fill="#9D89EF" points="8.93591788 488.72 615.045918 828.06 1358.89592 397.35 752.785918 58.01"></polygon>
                <polygon id="Shape" fill="#414042" points="0.735917875 431.12 615.045918 774.98 1358.89592 344.27 744.585918 0.41"></polygon>
                <polygon id="Shape" fill="#414042" points="1270.12592 515.56 1427.86592 515.56 1427.86592 488.85 1277.20592 488.85 1098.77592 387.07 1085.54592 410.27"></polygon>
                <path d="M1426.41592,477.32 C1450.22592,463.57 1488.69592,463.55 1512.34592,477.32 C1535.99592,491.09 1535.86592,513.34 1512.06592,527.09 C1488.26592,540.84 1449.78592,540.86 1426.13592,527.09 C1402.48592,513.32 1402.60592,491.06 1426.41592,477.32 Z M1444.03515,487.07369 C1430.02211,495.160173 1429.95149,508.260981 1443.87036,516.36512 C1457.78923,524.469259 1480.43609,524.457488 1494.44325,516.36512 C1508.4504,508.272752 1508.52691,495.177829 1494.60804,487.07369 C1480.68916,478.969551 1458.04819,478.981321 1444.03515,487.07369 Z" id="Combined-Shape" fill="#414042"></path>
            </g>
            <g id="Group" transform="translate(155.000000, 289.000000)" fill-rule="nonzero">
                <g id="Shape">
                    <polygon fill="#CCC6AB" points="1109.96 260.28 450.5 643.52 0.36 383.63 659.82 0.4"></polygon>
                    <polygon fill="#8C8875" points="659.82 0.4 659.47 124.08 0.01 507.32 0.36 383.63"></polygon>
                    <polygon fill="#B2AE96" points="1109.96 261.01 1109.61 384.7 659.47 124.81 659.82 1.13"></polygon>
                    <polygon fill="#B2AE96" points="450.5 643.52 450.14 767.2 0.01 507.32 0.36 383.63"></polygon>
                </g>
            </g>
            <g id="Group" transform="translate(260.000000, 568.000000)" fill-rule="nonzero">
                <g transform="translate(75.000000, 0.000000)" fill="#F7E221" id="Shape">
                    <polygon points="194.82 79.19 144.44 172.1 11.28 95.04 66.49 4.61"></polygon>
                    <g>
                        <path d="M37.82,6.05 C48.23,0.05 57.67,-0.51 64.5,3.46 L194.82,79.19 C187.99,75.19 178.55,75.77 168.14,81.78 C147.36,93.78 130.58,122.86 130.64,146.78 C130.64,158.59 134.86,166.9 141.64,170.78 L11.28,95 C4.54,91.08 0.36,82.76 0.33,71 C0.26,47.12 17.05,18.05 37.82,6.05 Z"></path>
                        <path d="M168.14,81.78 C147.36,93.78 130.58,122.86 130.64,146.78 C130.7,170.7 147.64,180.19 168.39,168.2 C189.14,156.21 205.87,127.2 205.8,103.39 C205.73,79.58 188.84,69.83 168.14,81.78 Z"></path>
                    </g>
                </g>
                <g transform="translate(75.000000, 0.000000)" id="Shape">
                    <path d="M37.82,6.05 C48.23,0.05 57.67,-0.51 64.5,3.46 L107.94,28.7 C101.11,24.7 91.67,25.29 81.26,31.29 C60.48,43.29 43.7,72.37 43.77,96.29 C43.77,108.13 47.97,116.44 54.7,120.36 L11.26,95.11 C4.53,91.2 0.36,82.89 0.33,71.05 C0.26,47.12 17.05,18.05 37.82,6.05 Z" fill="#62ED72"></path>
                    <path d="M168.17,98.92 C155.02,106.51 144.4,124.92 144.44,140.03 C144.48,155.14 155.18,161.18 168.33,153.59 C181.48,146 192.05,127.67 192.01,112.59 C191.97,97.51 181.27,91.36 168.17,98.92 Z" fill="#E8E8E8"></path>
                </g>
                <g transform="translate(233.000000, 109.000000)" id="Shape">
                    <path d="M14.22,2 C18.06,-0.22 21.52,-0.43 24.02,1 L37.67,9 C35.18,7.54 31.67,7.75 27.87,10 C20.26,14.39 14.1,25.07 14.12,33.89 C14.12,38.23 15.67,41.29 18.12,42.73 L4.46,34.79 C1.99,33.35 0.46,30.29 0.46,25.95 C0.44,17.11 6.61,6.43 14.22,2 Z" fill="#B2B2B2"></path>
                    <path d="M27.87,10 C20.26,14.39 14.1,25.07 14.12,33.89 C14.14,42.71 20.35,46.16 27.96,41.77 C35.57,37.38 41.73,26.7 41.71,17.96 C41.69,9.22 35.54,5.54 27.87,10 Z" fill="#D3D3D3"></path>
                </g>
                <g transform="translate(3.000000, 88.000000)" id="Shape">
                    <path d="M14,2 C17.84,-0.22 21.31,-0.43 23.8,1 L37.46,8.94 C34.96,7.48 31.46,7.69 27.66,9.94 C20.05,14.34 13.88,25.01 13.91,33.83 C13.91,38.17 15.46,41.23 17.91,42.67 L4.25,34.73 C1.77,33.29 0.25,30.24 0.25,25.89 C0.18,17 6.34,6.35 14,2 Z" fill="#B2B2B2"></path>
                    <path d="M27.61,9.89 C20,14.29 13.83,24.96 13.86,33.78 C13.89,42.6 20.09,46.06 27.7,41.66 C35.31,37.26 41.47,26.59 41.44,17.85 C41.41,9.11 35.28,5.47 27.61,9.89 Z" fill="#D3D3D3"></path>
                </g>
                <g transform="translate(0.000000, 69.000000)" id="Shape">
                    <path d="M37.66,5.5 C48.07,-0.5 57.51,-1.06 64.34,2.91 L194.66,78.64 C187.83,74.64 178.39,75.23 167.98,81.24 C147.2,93.24 130.42,122.31 130.48,146.18 C130.48,157.99 134.7,166.31 141.48,170.18 L11.12,94.49 C4.38,90.57 0.2,82.26 0.12,70.49 C0.1,46.58 16.88,17.5 37.66,5.5 Z" fill="#F7E221"></path>
                    <path d="M168,81.24 C147.22,93.24 130.44,122.31 130.5,146.18 C130.56,170.05 147.5,179.6 168.24,167.6 C188.98,155.6 205.73,126.6 205.66,102.79 C205.59,78.98 188.68,69.29 168,81.24 Z" fill="#62ED72"></path>
                    <path d="M167.92,93.68 C153.1,102.24 141.13,123 141.18,140 C141.23,157 153.28,163.83 168.1,155.28 C182.92,146.73 194.83,126.02 194.78,109.05 C194.73,92.08 182.68,85.16 167.92,93.68 Z" fill="#E8E8E8"></path>
                </g>
                <path d="M124.54,125 C134.95,119 144.39,118.44 151.22,122.41 L194.66,147.65 C187.83,143.65 178.39,144.23 167.98,150.24 C147.2,162.24 130.42,191.32 130.48,215.19 C130.48,227.03 134.69,235.34 141.42,239.25 L98,214 C91.27,210.09 87.1,201.77 87.06,189.94 C87,166 103.76,137 124.54,125 Z" id="Shape" fill="#62ED72"></path>
            </g>
            <g id="Group" transform="translate(425.000000, 698.000000)" fill-rule="nonzero">
                <g transform="translate(4.000000, 22.000000)" id="Shape">
                    <g transform="translate(107.000000, 0.000000)">
                        <polygon fill="#CCCCCC" points="0.52 5.19 3.15 6.72 11.21 2.07 8.58 0.54"></polygon>
                        <polygon fill="#8C8C8C" points="0.52 5.19 0.62 37.92 3.24 39.44 3.15 6.72"></polygon>
                        <polygon fill="#B2B2B2" points="3.15 6.72 3.24 39.44 11.3 34.79 11.21 2.07"></polygon>
                    </g>
                    <g transform="translate(92.000000, 9.000000)">
                        <polygon fill="#CCCCCC" points="0.19 5.2 2.82 6.73 10.87 2.08 8.24 0.55"></polygon>
                        <polygon fill="#8C8C8C" points="0.19 5.2 0.28 37.92 2.91 39.45 2.82 6.73"></polygon>
                        <polygon fill="#B2B2B2" points="2.82 6.73 2.91 39.45 10.96 34.8 10.87 2.08"></polygon>
                    </g>
                    <g transform="translate(76.000000, 18.000000)">
                        <polygon fill="#CCCCCC" points="0.86 5.21 3.48 6.73 11.54 2.08 8.91 0.56"></polygon>
                        <polygon fill="#8C8C8C" points="0.86 5.21 0.95 37.93 3.58 39.46 3.48 6.73"></polygon>
                        <polygon fill="#B2B2B2" points="3.48 6.73 3.58 39.46 11.63 34.81 11.54 2.08"></polygon>
                    </g>
                    <g transform="translate(61.000000, 27.000000)">
                        <polygon fill="#CCCCCC" points="0.52 5.21 3.15 6.74 11.2 2.09 8.58 0.56"></polygon>
                        <polygon fill="#8C8C8C" points="0.52 5.21 0.62 37.94 3.24 39.47 3.15 6.74"></polygon>
                        <polygon fill="#B2B2B2" points="3.15 6.74 3.24 39.47 11.3 34.82 11.2 2.09"></polygon>
                    </g>
                    <g transform="translate(46.000000, 36.000000)">
                        <polygon fill="#CCCCCC" points="0.19 5.22 2.82 6.75 10.87 2.1 8.24 0.57"></polygon>
                        <polygon fill="#8C8C8C" points="0.19 5.22 0.28 37.95 2.91 39.48 2.82 6.75"></polygon>
                        <polygon fill="#B2B2B2" points="2.82 6.75 2.91 39.48 10.96 34.83 10.87 2.1"></polygon>
                    </g>
                    <g transform="translate(30.000000, 45.000000)">
                        <polygon fill="#CCCCCC" points="0.86 5.23 3.48 6.76 11.54 2.11 8.91 0.58"></polygon>
                        <polygon fill="#8C8C8C" points="0.86 5.23 0.95 37.96 3.58 39.48 3.48 6.76"></polygon>
                        <polygon fill="#B2B2B2" points="3.48 6.76 3.58 39.48 11.63 34.83 11.54 2.11"></polygon>
                    </g>
                    <g transform="translate(15.000000, 54.000000)">
                        <polygon fill="#CCCCCC" points="0.52 5.24 3.15 6.76 11.2 2.12 8.58 0.59"></polygon>
                        <polygon fill="#8C8C8C" points="0.52 5.24 0.62 37.96 3.24 39.49 3.15 6.76"></polygon>
                        <polygon fill="#B2B2B2" points="3.15 6.76 3.24 39.49 11.3 34.84 11.2 2.12"></polygon>
                    </g>
                    <g transform="translate(0.000000, 63.000000)">
                        <polygon fill="#CCCCCC" points="0.19 5.25 2.82 6.77 10.87 2.12 8.24 0.6"></polygon>
                        <polygon fill="#8C8C8C" points="0.19 5.25 0.28 37.97 2.91 39.5 2.82 6.77"></polygon>
                        <polygon fill="#B2B2B2" points="2.82 6.77 2.91 39.5 10.96 34.85 10.87 2.12"></polygon>
                    </g>
                </g>
                <g id="Shape">
                    <polygon fill="#656565" points="162.95 24.24 163.05 58.54 40.74 129.15 0.67 105.87 0.57 71.56 122.88 0.95"></polygon>
                    <g>
                        <polygon fill="#7C7C7C" points="0.57 71.56 40.64 94.85 162.95 24.24 122.88 0.95"></polygon>
                        <polygon fill="#656565" points="0.57 71.56 0.67 105.87 40.74 129.15 40.64 94.85"></polygon>
                        <polygon fill="#3D3D3D" points="40.64 94.85 40.74 129.15 163.05 58.54 162.95 24.24"></polygon>
                    </g>
                    <g transform="translate(25.000000, 63.000000)">
                        <path d="M4.62,3.12 C-0.58,6.12 -0.61,11 4.56,14.01 C9.73,17.02 18.15,17.01 23.35,14.01 C28.55,11.01 28.59,6.13 23.42,3.12 C18.25,0.11 9.83,0.12 4.62,3.12 Z" fill="#656565"></path>
                        <path d="M4.62,7 C9.83,4 18.24,4 23.42,7 C25.3529966,7.01932997 26.90433,8.60200338 26.885,10.535 C26.86567,12.4679966 25.2829966,14.01933 23.35,14 C18.15,17 9.74,17 4.56,14 C3.30957044,13.989282 2.15984384,13.312282 1.54391109,12.2240192 C0.927978337,11.1357565 0.939414272,9.80156402 1.57391109,8.72401924 C2.2084079,7.64647445 3.36957044,6.98928203 4.62,7 Z" fill="#7C7C7C"></path>
                    </g>
                </g>
                <g transform="translate(45.000000, 47.000000)" id="Shape">
                    <g transform="translate(107.000000, 0.000000)">
                        <polygon fill="#CCCCCC" points="0.52 4.65 3.15 6.17 11.21 1.52 8.58 0"></polygon>
                        <polygon fill="#8C8C8C" points="0.52 4.65 0.62 37.37 3.24 38.9 3.15 6.17"></polygon>
                        <polygon fill="#B2B2B2" points="3.15 6.17 3.24 38.9 11.3 34.25 11.21 1.52"></polygon>
                    </g>
                    <g transform="translate(92.000000, 9.000000)">
                        <polygon fill="#CCCCCC" points="0.19 4.65 2.82 6.18 10.87 1.53 8.24 0"></polygon>
                        <polygon fill="#8C8C8C" points="0.19 4.65 0.28 37.38 2.91 38.91 2.82 6.18"></polygon>
                        <polygon fill="#B2B2B2" points="2.82 6.18 2.91 38.91 10.96 34.26 10.87 1.53"></polygon>
                    </g>
                    <g transform="translate(76.000000, 18.000000)">
                        <polygon fill="#CCCCCC" points="0.86 4.66 3.48 6.19 11.54 1.54 8.91 0.01"></polygon>
                        <polygon fill="#8C8C8C" points="0.86 4.66 0.95 37.39 3.58 38.92 3.48 6.19"></polygon>
                        <polygon fill="#B2B2B2" points="3.48 6.19 3.58 38.92 11.63 34.27 11.54 1.54"></polygon>
                    </g>
                    <g transform="translate(61.000000, 27.000000)">
                        <polygon fill="#CCCCCC" points="0.52 4.67 3.15 6.2 11.21 1.55 8.58 0.02"></polygon>
                        <polygon fill="#8C8C8C" points="0.52 4.67 0.62 37.4 3.24 38.92 3.15 6.2"></polygon>
                        <polygon fill="#B2B2B2" points="3.15 6.2 3.24 38.92 11.3 34.27 11.21 1.55"></polygon>
                    </g>
                    <g transform="translate(46.000000, 36.000000)">
                        <polygon fill="#CCCCCC" points="0.19 4.68 2.82 6.21 10.87 1.55 8.24 0.03"></polygon>
                        <polygon fill="#8C8C8C" points="0.19 4.68 0.28 37.4 2.91 38.93 2.82 6.21"></polygon>
                        <polygon fill="#B2B2B2" points="2.82 6.21 2.91 38.93 10.96 34.28 10.87 1.55"></polygon>
                    </g>
                    <g transform="translate(30.000000, 45.000000)">
                        <polygon fill="#CCCCCC" points="0.86 4.68 3.48 6.21 11.54 1.56 8.91 0.04"></polygon>
                        <polygon fill="#8C8C8C" points="0.86 4.68 0.95 37.41 3.58 38.94 3.48 6.21"></polygon>
                        <polygon fill="#B2B2B2" points="3.48 6.21 3.58 38.94 11.63 34.29 11.54 1.56"></polygon>
                    </g>
                    <g transform="translate(15.000000, 54.000000)">
                        <polygon fill="#CCCCCC" points="0.52 4.69 3.15 6.22 11.2 1.57 8.58 0.04"></polygon>
                        <polygon fill="#8C8C8C" points="0.52 4.69 0.62 37.42 3.24 38.95 3.15 6.22"></polygon>
                        <polygon fill="#B2B2B2" points="3.15 6.22 3.24 38.95 11.3 34.3 11.2 1.57"></polygon>
                    </g>
                    <g transform="translate(0.000000, 63.000000)">
                        <polygon fill="#CCCCCC" points="0.19 4.7 2.82 6.23 10.87 1.58 8.24 0.05"></polygon>
                        <polygon fill="#8C8C8C" points="0.19 4.7 0.28 37.43 2.91 38.96 2.82 6.23"></polygon>
                        <polygon fill="#B2B2B2" points="2.82 6.23 2.91 38.96 10.96 34.3 10.87 1.58"></polygon>
                    </g>
                </g>
            </g>
            <g id="Group" transform="translate(844.000000, 419.000000)" fill-rule="nonzero">
                <g transform="translate(23.000000, 14.000000)" id="Shape">
                    <polygon fill="#6D6D6D" points="68.82 148.6 13.01 116.38 13.2 50.25 99.53 0.08 155.33 32.3 155.71 98.12"></polygon>
                    <g>
                        <polygon fill="#CECECE" points="12.63 50.56 99 0.4 99.57 0.08 13.2 50.25"></polygon>
                        <polygon fill="#9B9B9B" points="13.2 50.25 99.53 0.08 155.33 32.3 69.01 82.47"></polygon>
                        <path d="M155.71,98.12 L69.39,148.29 C76.59,144.1 81.06,135.22 81.1,122.57 C81.1,109.57 76.49,95.18 69.01,82.47 L155.33,32.3 C162.82,45.01 167.46,59.43 167.42,72.4 C167.39,85.05 162.91,93.94 155.71,98.12 Z" fill="#6D6D6D"></path>
                        <path d="M69,82.47 C76.48,95.18 81.12,109.59 81.09,122.57 C81.06,135.55 76.34,144.57 68.81,148.57 L13,116.38 C5.52,103.68 0.88,89.26 0.91,76.28 C0.94,63.3 5.66,54.28 13.19,50.28 L69,82.47 Z" fill="#4C4C4C"></path>
                    </g>
                    <path d="M27.42,48.84 L67.03,25.84 C71.3889078,23.3209994 76.7610922,23.3209994 81.12,25.84 L114.44,45 C115.221766,45.4522132 115.703193,46.2868636 115.703193,47.19 C115.703193,48.0931364 115.221766,48.9277868 114.44,49.38 L74.8,72.38 C70.4481006,74.9117687 65.0718994,74.9117687 60.72,72.38 L27.42,53.16 C26.6766131,52.6935513 26.2253228,51.8776096 26.2253228,51 C26.2253228,50.1223904 26.6766131,49.3064487 27.42,48.84 Z" fill="#C2C4BB"></path>
                    <path d="M61.08,107.25 C63.6752656,108.939463 65.3067318,111.767585 65.47,114.86 C65.47,117.66 63.47,118.78 61.05,117.37 C58.4562781,115.683731 56.8247944,112.859294 56.66,109.77 C56.67,107 58.65,105.85 61.08,107.25 Z" fill="#333333"></path>
                    <path d="M16.66,79.34 C19.254936,81.0251171 20.8868101,83.8502295 21.05,86.94 C21.05,89.74 19.05,90.86 16.63,89.46 C14.0362781,87.7737308 12.4047944,84.9492944 12.24,81.86 C12.25,79.06 14.23,77.94 16.66,79.34 Z" fill="#333333"></path>
                </g>
                <g transform="translate(96.000000, 14.000000)" id="Shape">
                    <polygon fill="#6DCC62" points="0.06 15.45 26 0.4 26.57 0.08 0.67 15.13"></polygon>
                    <polygon fill="#6DCC62" points="0.63 15.13 26.53 0.08 82.33 32.3 56.43 47.35"></polygon>
                    <path d="M82.74,98.1 L56.84,113.1 C64.04,108.92 68.49,100.03 68.53,87.4 C68.53,74.4 63.92,60.01 56.43,47.3 L82.33,32.25 C89.82,44.96 94.46,59.38 94.42,72.35 C94.39,85 89.94,93.92 82.74,98.1 Z" fill="#63A85A"></path>
                </g>
                <g transform="translate(35.000000, 96.000000)">
                    <g transform="translate(6.000000, 0.000000)" id="Shape">
                        <path d="M12.35,7.17 C18.67,10.83 23.78,19.68 23.76,26.95 C23.74,34.22 18.6,37.12 12.27,33.47 C5.94,29.82 0.85,21 0.87,13.73 C0.89,6.46 6,3.53 12.35,7.17 Z" fill="#494949"></path>
                        <path d="M13.4,1 C15.48,-0.2 18.4,-7.77156117e-16 21.53,1.8 C27.86,5.45 32.97,14.3 32.95,21.57 C32.95,25.17 31.67,27.71 29.62,28.9 L20.43,34.24 C22.48,33.04 23.75,30.51 23.76,26.91 C23.76,19.64 18.67,10.79 12.35,7.13 C9.17,5.3 6.3,5.13 4.22,6.34 L13.4,1 Z" fill="#7A7A7A"></path>
                    </g>
                    <g transform="translate(0.000000, 5.000000)" id="Oval">
                        <ellipse fill="#FEE53F" transform="translate(12.802600, 15.043800) rotate(-30.173520) translate(-12.802600, -15.043800) " cx="12.8026" cy="15.0438" rx="7.28183652" ry="12.5741002"></ellipse>
                        <ellipse fill="#707070" transform="translate(18.162984, 15.405668) rotate(-30.160000) translate(-18.162984, -15.405668) " cx="18.1629843" cy="15.405668" rx="5.15" ry="8.9"></ellipse>
                    </g>
                </g>
                <g transform="translate(0.000000, 110.000000)" id="Shape">
                    <path d="M5.78,28.44 C8.6551456,30.3062094 10.4621743,33.4369052 10.64,36.86 C10.64,39.86 8.4,41.19 5.75,39.65 C2.87104266,37.7860302 1.06007919,34.6549599 0.88,31.23 C0.89,28.08 3,26.85 5.78,28.44 Z" fill="#A8A8A8"></path>
                    <path d="M49.55,0.6 C50.6887897,0.106819315 52.0042645,0.259338123 53,1 C55.8817227,2.86600567 57.6930614,6.00144413 57.87,9.43 C57.9799392,10.6466738 57.4306342,11.8292055 56.43,12.53 L9.21,40 C10.2118023,39.2963769 10.757991,38.108512 10.64,36.89 C10.4621743,33.4669052 8.6551456,30.3362094 5.78,28.47 C4.77180113,27.7178846 3.433489,27.5760005 2.29,28.1 L49.55,0.6 Z" fill="#E5E5E5"></path>
                </g>
                <g transform="translate(79.000000, 0.000000)" id="Shape">
                    <g>
                        <g>
                            <path d="M43.25,14.81 L26,24.86 L4.51,12.45 C-0.3,9.67 -0.33,5.18 4.44,2.4 C9.21,-0.38 16.99,-0.38 21.8,2.4 L43.25,14.81 Z" fill="#FFC82E"></path>
                            <polygon fill="#FFC82E" points="43.25 14.81 43.24 18.18 25.96 28.23 25.96 24.86"></polygon>
                            <path d="M0.84,7.38 C0.84,9.22 2.05,11.05 4.47,12.45 L26,24.86 L26,28.23 L4.51,15.82 C2.09,14.42 0.88,12.58 0.88,10.75 L0.84,7.38 Z" fill="#DDAD36"></path>
                        </g>
                        <g transform="translate(3.000000, 1.000000)">
                            <path d="M3.25,10.77 C7.69233101,13.0303754 12.947669,13.0303754 17.39,10.77 C21.27,8.52 21.25,4.85 17.33,2.59 C12.8946539,0.32989775 7.64534608,0.32989775 3.21,2.59 C-0.68,4.85 -0.66,8.52 3.25,10.77 Z" fill="#FCDB54"></path>
                            <g transform="translate(5.000000, 3.000000)">
                                <path d="M1.63,5.81 C3.94015207,6.98068772 6.66984793,6.98068772 8.98,5.81 C10.98,4.63 10.98,2.73 8.98,1.55 C6.67333641,0.379460176 3.94666359,0.379460176 1.64,1.55 C-0.41,2.73 -0.4,4.64 1.63,5.81 Z" fill="#A88F63"></path>
                                <path d="M1.62,5.81 C3.93015207,6.98068772 6.65984793,6.98068772 8.97,5.81 C6.66101249,4.63444804 3.92898751,4.63444804 1.62,5.81" fill="#FFFFFF"></path>
                            </g>
                        </g>
                    </g>
                    <g transform="translate(26.000000, 9.000000)">
                        <polygon fill="#5FB753" points="57.41 23.19 57.38 37.68 39.78 47.95 0.04 25.01 0.07 10.47 17.66 0.24"></polygon>
                        <g>
                            <polygon fill="#75EA60" points="57.41 23.19 39.81 33.42 0.07 10.47 17.66 0.24"></polygon>
                            <polygon fill="#58B54B" points="57.41 23.19 57.38 37.68 39.78 47.91 39.81 33.42"></polygon>
                            <polygon fill="#5FB753" points="39.81 33.42 39.78 47.95 0.04 25.01 0.07 10.47"></polygon>
                        </g>
                    </g>
                    <g transform="translate(66.000000, 37.000000)">
                        <g>
                            <path d="M0.21,10.35 L21.72,22.77 C26.52,25.54 34.3,25.54 39.08,22.77 C41.45,21.39 42.64,19.58 42.64,17.77 L42.64,21.14 C42.64,22.94 41.45,24.75 39.08,26.14 C34.31,28.91 26.52,28.91 21.72,26.14 L0.2,13.72 L0.21,10.35 Z" fill="#DDAD36"></path>
                            <path d="M39,12.71 C43.8,15.49 43.84,19.99 39.06,22.77 C34.28,25.55 26.5,25.54 21.7,22.77 L0.19,10.35 L17.49,0.3 L39,12.71 Z" fill="#FFC82E"></path>
                        </g>
                        <g transform="translate(20.000000, 11.000000)">
                            <path d="M3.37,10.3 C7.81233101,12.5603754 13.067669,12.5603754 17.51,10.3 C21.39,8.05 21.37,4.38 17.45,2.12 C13.0181474,-0.139968678 7.77185255,-0.139968678 3.34,2.12 C-0.56,4.38 -0.54,8.05 3.37,10.3 Z" fill="#FCDB54"></path>
                            <g transform="translate(5.000000, 3.000000)">
                                <path d="M1.75,5.34 C4.0640226,6.50923164 6.7959774,6.50923164 9.11,5.34 C11.11,4.17 11.11,2.26 9.11,1.08 C6.80682623,-0.0903957332 4.08317377,-0.0903957332 1.78,1.08 C-0.29,2.26 -0.28,4.17 1.75,5.34 Z" fill="#A88F63"></path>
                                <path d="M1.74,5.34 C4.05015207,6.51068772 6.77984793,6.51068772 9.09,5.34 C6.77984793,4.16931228 4.05015207,4.16931228 1.74,5.34" fill="#FFFFFF"></path>
                            </g>
                        </g>
                    </g>
                </g>
            </g>
            <g id="Group" transform="translate(980.000000, 474.000000)" fill-rule="nonzero">
                <g>
                    <g transform="translate(0.000000, 1.000000)" id="Shape">
                        <polygon fill="#FFF200" points="141.25 207.97 238.18 157.44 239.17 80.81 101.26 1.62 5.52 57.13 3.95 129.29"></polygon>
                        <g>
                            <path d="M245.13,93.71 C245.13,80.95 236.2,75.77 225.23,82.06 L158,120.61 C147,126.92 138.1,142.33 138.09,155.08 L138.09,197.32 C138.09,210.08 146.99,215.32 158,208.97 L225.21,170.42 C236.21,164.13 245.12,148.7 245.12,135.94 L245.13,93.71 Z" fill="#19FF00"></path>
                            <path d="M233.6,104.88 C233.6,94.88 226.6,90.81 217.98,95.74 L165.26,126 C156.62,130.95 149.64,143 149.64,153 L149.64,186.14 C149.64,196.14 156.64,200.22 165.25,195.27 L218,165.05 C226.6,160.12 233.61,148.05 233.61,138.05 L233.6,104.88 Z" fill="#515151"></path>
                            <path d="M225.23,82.06 L158,120.61 C147,126.92 138.1,142.33 138.09,155.08 L138.09,197.32 C138.09,203.74 140.34,208.25 143.98,210.32 L6.05,131.2 C2.4,129.11 0.15,124.6 0.15,118.2 L0.15,76 C0.15,63.24 9.05,47.83 20.06,41.52 L87.27,2.97 C92.72,-0.15 97.68,-0.45 101.27,1.62 L239.21,80.76 C235.63,78.64 230.68,78.93 225.23,82.06 Z" fill="#19FF00"></path>
                        </g>
                    </g>
                    <path d="M198.12,67.44 L130.88,106 C119.88,112.3 111,127.71 111,140.42 L111,182.73 C111,189.16 113.26,193.67 116.9,195.73 L5.56,131.92 C1.91,129.83 0.12,125.31 0.12,118.92 L0.12,76.57 C0.12,63.86 9.02,48.44 20,42.15 L87.24,3.59 C92.72,0.45 97.67,0.16 101.24,2.22 L212.11,66.07 C208.56,64 203.6,64.3 198.12,67.44 Z" id="Shape" fill="#ED64D9"></path>
                    <path d="M204.54,71 L137.3,109.57 C126.3,115.86 117.42,131.28 117.42,143.99 L117.42,186.3 C117.42,192.72 119.98,197.54 123.63,199.63 L103.48,188.04 C99.83,185.95 97.58,181.44 97.58,175.04 L97.58,132.74 C97.58,120.03 106.48,104.61 117.46,98.31 L184.7,59.75 C190.18,56.61 195.13,56.32 198.7,58.38 L218.54,69.67 C215,67.59 210,67.88 204.54,71 Z" id="Shape" fill="#EFEFEF"></path>
                    <path d="M225.83,94.7 C227.370464,97.0562675 228.129713,99.8378474 228,102.65 L228,135.79 C228,145.79 221,157.9 212.38,162.79 L159.66,193.03 C157.308237,194.498289 154.557427,195.197351 151.79,195.03 C150.25102,192.654874 149.495579,189.856944 149.63,187.03 L149.63,154 C149.63,144 156.63,131.91 165.24,127 L218,96.75 C220.349903,95.2773604 223.10213,94.5779382 225.87,94.75" id="Shape" fill="#878787"></path>
                    <g transform="translate(190.000000, 113.000000)">
                        <g>
                            <g>
                                <path d="M29.44,5.69 L26.84,4.22 C24.41,2.83 21.08,3.02 17.39,5.14 C10,9.39 4,19.81 4,28.4 C4,32.72 5.52,35.76 8,37.17 L10.6,38.65 C8.14,37.24 6.6,34.2 6.6,29.87 C6.6,21.28 12.6,10.87 20.03,6.61 C23.67,4.5 27,4.3 29.44,5.69 Z" id="Shape" fill="#EAEAEA"></path>
                                <ellipse id="Oval" fill="#BABABA" transform="translate(19.963578, 22.135038) rotate(-60.160000) translate(-19.963578, -22.135038) " cx="19.9635781" cy="22.135038" rx="18.99" ry="11"></ellipse>
                            </g>
                            <g transform="translate(10.000000, 9.000000)" fill="#EAEAEA" id="Shape">
                                <path d="M24.8,5.18 L17.57,1.02 C15.74,0.02 13.21,0.12 10.43,1.71 C4.83,4.93 0.29,12.79 0.29,19.28 C0.29,22.54 1.44,24.83 3.29,25.9 L10.52,30.06 C8.67,28.99 7.52,26.7 7.52,23.43 C7.52,16.95 12.06,9.08 17.66,5.87 C20.45,4.28 23,4.13 24.8,5.18 Z"></path>
                                <path d="M27.81,11.8 C27.81,5.32 23.27,2.66 17.67,5.87 C12.07,9.08 7.53,16.95 7.53,23.43 C7.53,29.91 12.07,32.58 17.67,29.36 C23.27,26.14 27.81,18.29 27.81,11.8 Z"></path>
                            </g>
                        </g>
                        <g transform="translate(20.000000, 16.000000)" id="Shape">
                            <path d="M0.2,14.91 C0.480051781,9.64586579 3.26004893,4.83290281 7.68,1.96 C11.79,-0.4 15.14,1.56 15.14,6.34 C14.8598125,11.5936989 12.0880312,16.3978721 7.68,19.27 C3.54,21.64 0.2,19.68 0.2,14.91 Z" fill="#A8A8A8"></path>
                            <path d="M0.19,14.93 C0.462891058,9.66894211 3.24053902,4.85732703 7.66,1.99 C7.37269886,7.24678317 4.59855283,12.052332 0.19,14.93" fill="#666666"></path>
                        </g>
                    </g>
                    <g transform="translate(156.000000, 139.000000)" id="Shape">
                        <path d="M36.21,12.21 C36.21,8.21 33.4,6.59 29.92,8.58 L19.49,14.58 C15.7821646,16.9858133 13.4452732,21.016858 13.2,25.43 L13.2,37.56 C13.2,41.56 16.01,43.19 19.49,41.19 L29.92,35.19 C33.6302541,32.7864878 35.9679255,28.7540975 36.21,24.34 L36.21,12.21 Z" fill="#EAEAEA"></path>
                        <path d="M37.48,13 C37.48,9 34.67,7.37 31.19,9.37 L20.76,15.37 C17.0549124,17.7737674 14.7183925,21.8004566 14.47,26.21 L14.47,38.34 C14.47,42.34 17.28,43.97 20.76,41.98 L31.19,35.98 C34.8978354,33.5741867 37.2347268,29.543142 37.48,25.13 L37.48,13 Z" fill="#EAEAEA"></path>
                        <path d="M31.19,9.32 L20.76,15.32 C17.0549124,17.7237674 14.7183925,21.7504566 14.47,26.16 L14.47,38.29 C14.47,40.29 15.18,41.7 16.32,42.36 L2.58,34.44 C1.43,33.79 0.77,32.38 0.77,30.38 L0.77,18.23 C0.999179498,13.8247236 3.31758701,9.79351819 7.01,7.38 L17.42,1.38 C19.15,0.38 20.71,0.3 21.85,0.95 L35.63,8.87 C34.5,8.23 32.92,8.32 31.19,9.32 Z" fill="#EAEAEA"></path>
                        <path d="M33.53,17.29 C33.53,14.68 31.69,13.61 29.41,14.91 L22.58,18.83 C20.1502435,20.40626 18.619371,23.0481298 18.46,25.94 L18.46,33.88 C18.46,36.49 20.3,37.57 22.58,36.26 L29.41,32.34 C31.8394245,30.7680864 33.3707055,28.1292284 33.53,25.24 L33.53,17.29 Z" fill="#666666"></path>
                    </g>
                </g>
                <polygon id="Shape" fill="#FFF200" points="130.59 43.3 75.58 40 100.63 50.91 87.01 58.77 142.02 62.07 116.97 51.16"></polygon>
            </g>
            <g id="Group" transform="translate(616.000000, 569.000000)" fill-rule="nonzero">
                <g transform="translate(0.000000, 39.000000)" id="Shape">
                    <polygon fill="#428489" points="0.27 151.25 0.2 175.77 204.07 293.47 464.08 142.36 464.15 117.85 260.29 0.15"></polygon>
                    <g>
                        <polygon fill="#51A89F" points="464.15 117.85 204.13 268.95 0.27 151.25 260.29 0.15"></polygon>
                        <polygon fill="#51918C" points="464.15 117.85 464.08 142.36 204.07 293.47 204.13 268.95"></polygon>
                        <polygon fill="#428489" points="204.13 268.95 204.07 293.47 0.2 175.77 0.27 151.25"></polygon>
                    </g>
                </g>
                <g transform="translate(331.000000, 30.000000)" id="Shape">
                    <polygon fill="#ABABAB" points="0.55 37.1 0.42 86.13 47.27 113.14 110.3 76.47 110.44 27.43 63.66 0.43"></polygon>
                    <g>
                        <polygon fill="#C6C6C6" points="110.44 27.43 47.33 64.11 0.55 37.1 63.66 0.43"></polygon>
                        <polygon fill="#ABABAB" points="110.44 27.43 110.3 76.47 47.19 113.14 47.33 64.11"></polygon>
                        <polygon fill="#777777" points="47.33 64.11 47.19 113.14 0.42 86.13 0.55 37.1"></polygon>
                    </g>
                    <polygon fill="#D6D6D6" points="64.91 53.96 47.33 64.11 0.55 37.1 18.14 26.95"></polygon>
                    <polygon fill="#BCBCBC" points="64.91 53.96 64.77 102.99 47.27 113.14 47.41 64.11"></polygon>
                    <polygon fill="#8E8E8E" points="30.31 103.5 14.46 94.29 14.42 77.67 30.26 86.88"></polygon>
                </g>
                <g transform="translate(126.000000, 152.000000)" id="Shape">
                    <polygon fill="#707070" points="62.71 18.53 31.64 36.59 0.36 18.53 31.43 0.47"></polygon>
                    <polygon fill="#565656" points="62.71 18.53 62.69 25.88 31.62 43.95 31.64 36.59"></polygon>
                    <polygon fill="#505050" points="31.64 36.59 31.62 43.95 0.34 25.89 0.36 18.53"></polygon>
                </g>
                <g transform="translate(402.000000, 118.000000)" id="Shape">
                    <polygon fill="#4F4F4F" points="0.78 19.91 0.76 38.52 31.54 56.29 62.12 38.52 62.14 19.91 31.36 2.14"></polygon>
                    <g transform="translate(0.000000, 8.000000)">
                        <polygon fill="#585858" points="62.15 18.42 31.57 36.19 0.79 18.42 31.37 0.65"></polygon>
                        <polygon fill="#4F4F4F" points="62.15 18.42 62.12 30.52 31.54 48.29 31.57 36.19"></polygon>
                        <polygon fill="#373737" points="31.57 36.19 31.54 48.29 0.76 30.52 0.79 18.42"></polygon>
                    </g>
                    <g transform="translate(0.000000, 2.000000)">
                        <polygon fill="#DCDCDC" points="62.14 17.91 31.56 35.68 0.78 17.91 31.36 0.14"></polygon>
                        <polygon fill="#C5C5C5" points="62.14 17.91 62.12 23.97 31.55 41.74 31.56 35.68"></polygon>
                        <polygon fill="#898989" points="31.56 35.68 31.55 41.74 0.77 23.97 0.78 17.91"></polygon>
                    </g>
                    <path d="M40.77,14.4 C45.93,17.4 45.97,22.22 40.83,25.21 C35.69,28.2 27.34,28.21 22.17,25.21 C17,22.21 16.97,17.39 22.11,14.4 C27.25,11.41 35.59,11.41 40.77,14.4 Z" fill="#FFFFFF"></path>
                    <g transform="translate(46.000000, 15.000000)">
                        <path d="M10.1,2.92 L10.1,5.45 C10.0346988,6.32270525 9.49764009,7.08993196 8.7,7.45 C6.56433784,8.53985053 4.03566216,8.53985053 1.9,7.45 C1.09884563,7.09036048 0.555391045,6.32493148 0.48,5.45 L0.48,2.91 C0.559361571,3.7864179 1.10635551,4.55144439 1.91,4.91 C4.04566216,5.99985053 6.57433784,5.99985053 8.71,4.91 C9.49795559,4.54546154 10.0289356,3.78528155 10.1,2.92 Z" fill="#727272"></path>
                        <path d="M8.68,0.94 C10.56,2.03 10.57,3.79 8.68,4.88 C6.54433784,5.96985053 4.01566216,5.96985053 1.88,4.88 C-0.01,3.79 -0.02,2.03 1.88,0.94 C4.016445,-0.14658938 6.543555,-0.14658938 8.68,0.94 Z" fill="#9B9B9B"></path>
                    </g>
                    <g transform="translate(26.000000, 26.000000)">
                        <path d="M10.29,3.66 L10.29,6.19 C10.220497,7.06120031 9.68478787,7.82649914 8.89,8.19 C6.75433784,9.27985053 4.22566216,9.27985053 2.09,8.19 C1.28601292,7.83381768 0.74119321,7.06646597 0.67,6.19 L0.67,3.66 C0.745391045,4.53493148 1.28884563,5.30036048 2.09,5.66 C4.22798893,6.74012878 6.75201107,6.74012878 8.89,5.66 C9.68620734,5.29820541 10.2225861,4.53195001 10.29,3.66 Z" fill="#727272"></path>
                        <path d="M8.87,1.68 C10.76,2.76 10.77,4.53 8.87,5.62 C6.73201107,6.70012878 4.20798893,6.70012878 2.07,5.62 C0.18,4.53 0.17,2.76 2.07,1.68 C4.20566216,0.590149467 6.73433784,0.590149467 8.87,1.68 Z" fill="#9B9B9B"></path>
                    </g>
                    <g transform="translate(7.000000, 15.000000)">
                        <path d="M9.65,2.92 L9.65,5.45 C9.58469879,6.32270525 9.04764009,7.08993196 8.25,7.45 C6.11433784,8.53985053 3.58566216,8.53985053 1.45,7.45 C0.64884563,7.09036048 0.105391045,6.32493148 0.03,5.45 L0.03,2.91 C0.105188924,3.78796137 0.653545437,4.55489356 1.46,4.91 C3.5921668,5.99972212 6.1178332,5.99972212 8.25,4.91 C9.04753949,4.55511483 9.5854299,3.79054203 9.65,2.92 Z" fill="#727272"></path>
                        <path d="M8.24,0.94 C10.12,2.03 10.13,3.79 8.24,4.88 C6.1078332,5.96972212 3.5821668,5.96972212 1.45,4.88 C-0.44,3.79 -0.45,2.03 1.45,0.94 C3.58373175,-0.14320187 6.10626825,-0.14320187 8.24,0.94 Z" fill="#9B9B9B"></path>
                    </g>
                    <g transform="translate(26.000000, 4.000000)">
                        <path d="M10.29,3.66 L10.29,6.19 C10.2052765,7.04345729 9.67156595,7.78683987 8.89,8.14 C6.75433784,9.22985053 4.22566216,9.22985053 2.09,8.14 C1.2816635,7.78915979 0.734715799,7.01881092 0.67,6.14 L0.67,3.61 C0.74119321,4.48646597 1.28601292,5.25381768 2.09,5.61 C4.22566216,6.69985053 6.75433784,6.69985053 8.89,5.61 C9.6729261,5.25850251 10.2072868,4.51421442 10.29,3.66 Z" fill="#727272"></path>
                        <path d="M8.87,1.67 C10.76,2.76 10.77,4.52 8.87,5.61 C6.73433784,6.69985053 4.20566216,6.69985053 2.07,5.61 C0.18,4.52 0.17,2.76 2.07,1.67 C4.20566216,0.580149467 6.73433784,0.580149467 8.87,1.67 Z" fill="#9B9B9B"></path>
                    </g>
                    <g transform="translate(19.000000, 0.000000)">
                        <path d="M24,6.94 L24,19.04 C24,20.74 22.88,22.43 20.66,23.73 C16.18,26.33 8.9,26.33 4.4,23.73 C2.13,22.41 0.99,20.73 1,18.98 L0.999934781,6.87 C1,8.59 2.13,10.31 4.4,11.62 C8.91,14.22 16.18,14.22 20.66,11.62 C22.86,10.32 24,8.63 24,6.94 Z" fill="#EA541F"></path>
                        <path d="M20.59,2.2 C25.09,4.8 25.11,9.01 20.59,11.62 C16.07,14.23 8.84,14.22 4.33,11.62 C-0.18,9.02 -0.2,4.8 4.27,2.2 C8.74,-0.4 16.07,-0.41 20.59,2.2 Z" fill="#F2B164"></path>
                    </g>
                </g>
                <g transform="translate(178.000000, 54.000000)" id="Shape">
                    <g transform="translate(0.000000, 15.000000)">
                        <polygon fill="#505050" points="0.17 31.35 0.15 38.7 26.28 53.79 78.69 23.34 78.71 15.98 52.58 0.89"></polygon>
                        <g>
                            <polygon fill="#696969" points="78.71 15.98 26.3 46.43 0.17 31.35 52.58 0.89"></polygon>
                            <polygon fill="#515151" points="78.71 15.98 78.69 23.34 26.28 53.79 26.3 46.43"></polygon>
                            <polygon fill="#4C4C4C" points="26.3 46.43 26.28 53.79 0.15 38.7 0.17 31.35"></polygon>
                        </g>
                    </g>
                    <g transform="translate(9.000000, 0.000000)">
                        <g transform="translate(27.000000, 0.000000)">
                            <path d="M32.93,9.94 L32.87,30.31 C32.87,32.66 31.31,35.01 28.22,36.81 C22.01,40.42 11.9,40.42 5.63,36.81 C2.48,34.99 0.91,32.61 0.92,30.23 L0.97,9.86 C0.97,12.24 2.54,14.63 5.68,16.44 C11.95,20.06 22.07,20.06 28.28,16.44 C31.37,14.64 32.92,12.29 32.93,9.94 Z" fill="#AFAFAF"></path>
                            <path d="M28.2,3.35 C34.47,6.97 34.51,12.82 28.28,16.44 C22.05,20.06 11.95,20.05 5.68,16.44 C-0.59,12.83 -0.6,6.98 5.61,3.37 C11.82,-0.24 22,-0.26 28.2,3.35 Z" fill="#DBDBDB"></path>
                        </g>
                        <g transform="translate(0.000000, 16.000000)">
                            <path d="M32.92,9.44 L32.86,29.81 C32.86,32.16 31.31,34.51 28.22,36.31 C22,39.92 11.89,39.92 5.62,36.31 C2.48,34.49 0.9,32.11 0.91,29.72 L0.97,9.36 C0.97,11.74 2.53,14.13 5.68,15.94 C11.95,19.56 22.06,19.56 28.27,15.94 C31.37,14.14 32.92,11.79 32.92,9.44 Z" fill="#AFAFAF"></path>
                            <path d="M28.2,2.85 C34.47,6.47 34.5,12.32 28.27,15.94 C22.04,19.56 11.95,19.55 5.68,15.94 C-0.59,12.33 -0.61,6.48 5.61,2.87 C11.83,-0.74 22,-0.76 28.2,2.85 Z" fill="#DBDBDB"></path>
                        </g>
                    </g>
                </g>
                <g transform="translate(77.000000, 101.000000)" id="Shape">
                    <polygon fill="#3E3E3E" points="0.36 79.48 0.28 108.21 37.11 129.48 172.72 50.67 172.8 21.94 135.97 0.67"></polygon>
                    <g>
                        <polygon fill="#545454" points="172.8 21.94 37.19 100.75 0.36 79.48 135.97 0.67"></polygon>
                        <polygon fill="#424242" points="172.8 21.94 172.72 50.67 37.11 129.48 37.19 100.75"></polygon>
                        <polygon fill="#383838" points="37.19 100.75 37.11 129.48 0.28 108.21 0.36 79.48"></polygon>
                    </g>
                </g>
                <g transform="translate(238.000000, 250.000000)" id="Shape">
                    <path d="M5.2,16.78 C11.67,20.52 22.13,20.52 28.56,16.78 C34.99,13.04 34.93,7 28.46,3.26 C21.99,-0.48 11.55,-0.46 5.15,3.26 C-1.25,6.98 -1.25,13.06 5.2,16.78 Z" fill="#7ACCC2"></path>
                    <path d="M9.17,14.48 C13.44,16.94 20.33,16.94 24.56,14.48 C28.79,12.02 28.76,8.03 24.5,5.57 C20.24,3.11 13.36,3.12 9.14,5.57 C4.92,8.02 4.92,12 9.17,14.48 Z" fill="#AFAB95"></path>
                    <path d="M9.16,14.48 C13.9881269,16.9396266 19.7018731,16.9396266 24.53,14.48 C20.28,12.02 13.38,12.02 9.16,14.48" fill="#FFFFFF"></path>
                </g>
                <g transform="translate(122.000000, 202.000000)" id="Shape">
                    <polygon fill="#3E3E3E" points="0.31 30.28 0.3 34.89 37.44 56.1 66.19 39.39 66.21 34.78 29.07 13.57"></polygon>
                    <g>
                        <g transform="translate(0.000000, 13.000000)">
                            <polygon fill="#707070" points="41.45 7.71 12.69 24.42 0.31 17.28 29.07 0.57"></polygon>
                            <polygon fill="#565656" points="41.45 7.71 41.43 12.32 12.68 29.03 12.69 24.42"></polygon>
                            <polygon fill="#505050" points="12.69 24.42 12.68 29.03 0.3 21.89 0.31 17.28"></polygon>
                        </g>
                        <g transform="translate(10.000000, 0.000000)">
                            <g transform="translate(0.000000, 7.000000)">
                                <path d="M8.9,3.43 L8.84,22.56 C8.768385,23.3388493 8.28318185,24.0188978 7.57,24.34 C5.62787083,25.3401692 3.32212917,25.3401692 1.38,24.34 C0.65457518,24.0193403 0.160542349,23.3299922 0.09,22.54 L0.09,3.4 C0.165163831,4.19364276 0.661930598,4.88529495 1.39,5.21 C3.33101863,6.20015477 5.62898137,6.20015477 7.57,5.21 C8.30240972,4.90059033 8.8108854,4.220074 8.9,3.43 Z" fill="#E2A966"></path>
                                <path d="M7.6,1.62 C9.33,2.62 9.32,4.22 7.6,5.21 C5.65898137,6.20015477 3.36101863,6.20015477 1.42,5.21 C-0.29,4.21 -0.31,2.62 1.42,1.62 C3.36333978,0.639551008 5.65666022,0.639551008 7.6,1.62 Z" fill="#FFE180"></path>
                            </g>
                            <g transform="translate(12.000000, 0.000000)">
                                <path d="M9,3.39 L8.94,22.53 C8.87251902,23.3103787 8.385973,23.9923094 7.67,24.31 C5.73137543,25.3100668 3.42862457,25.3100668 1.49,24.31 C0.764835158,23.9870274 0.268601702,23.2999349 0.19,22.51 L0.25,3.37 C0.320542349,4.15999215 0.81457518,4.84934029 1.54,5.17 C3.48212917,6.17016916 5.78787083,6.17016916 7.73,5.17 C8.44318185,4.84889782 8.928385,4.16884932 9,3.39 Z" fill="#E2A966"></path>
                                <path d="M7.69,1.59 C9.41,2.59 9.4,4.19 7.69,5.17 C5.74787083,6.17016916 3.44212917,6.17016916 1.5,5.17 C-0.21,4.17 -0.23,2.59 1.5,1.59 C3.44451206,0.599711362 5.74548794,0.599711362 7.69,1.59 Z" fill="#FFE180"></path>
                            </g>
                        </g>
                    </g>
                    <g transform="translate(12.000000, 7.000000)">
                        <g transform="translate(0.000000, 13.000000)">
                            <polygon fill="#707070" points="41.83 7.75 13.07 24.46 0.69 17.31 29.45 0.6"></polygon>
                            <polygon fill="#565656" points="41.83 7.75 41.81 12.36 13.06 29.07 13.07 24.46"></polygon>
                            <polygon fill="#505050" points="13.07 24.46 13.06 29.07 0.68 21.92 0.69 17.31"></polygon>
                        </g>
                        <g transform="translate(10.000000, 0.000000)">
                            <g transform="translate(0.000000, 7.000000)">
                                <path d="M9.27,3.46 L9.27,22.6 C9.19635614,23.378094 8.71180761,24.057225 8,24.38 C6.05548794,25.3702886 3.75451206,25.3702886 1.81,24.38 C1.08443322,24.0542065 0.591207042,23.3621604 0.52,22.57 L0.52,3.44 C0.598601702,4.2299349 1.09483516,4.91702737 1.82,5.24 C3.75862457,6.24006678 6.06137543,6.24006678 8,5.24 C8.715973,4.92230938 9.20251902,4.24037874 9.27,3.46 Z" fill="#E2A966"></path>
                                <path d="M8,1.66 C9.73,2.66 9.72,4.25 8,5.24 C6.06137543,6.24006678 3.75862457,6.24006678 1.82,5.24 C0.11,4.24 0.08,2.65 1.82,1.66 C3.76101863,0.669845232 6.05898137,0.669845232 8,1.66 Z" fill="#FFE180"></path>
                            </g>
                            <g transform="translate(12.000000, 0.000000)">
                                <path d="M9.36,3.43 L9.3,22.56 C9.23251902,23.3403787 8.745973,24.0223094 8.03,24.34 C6.09137543,25.3400668 3.78862457,25.3400668 1.85,24.34 C1.1206849,24.022158 0.622426377,23.3322616 0.55,22.54 L0.61,3.4 C0.681207042,4.19216042 1.17443322,4.88420646 1.9,5.21 C3.84451206,6.20028864 6.14548794,6.20028864 8.09,5.21 C8.80180761,4.88722504 9.28635614,4.20809403 9.36,3.43 Z" fill="#E2A966"></path>
                                <path d="M8.07,1.62 C9.79,2.62 9.78,4.22 8.07,5.21 C6.12548794,6.20028864 3.82451206,6.20028864 1.88,5.21 C0.17,4.21 0.15,2.62 1.88,1.62 C3.82682261,0.639387013 6.12317739,0.639387013 8.07,1.62 Z" fill="#FFE180"></path>
                            </g>
                        </g>
                    </g>
                    <g transform="translate(25.000000, 14.000000)">
                        <g transform="translate(0.000000, 13.000000)">
                            <polygon fill="#707070" points="41.21 7.78 12.45 24.49 0.07 17.35 28.83 0.63"></polygon>
                            <polygon fill="#565656" points="41.21 7.78 41.19 12.39 12.44 29.1 12.45 24.49"></polygon>
                            <polygon fill="#505050" points="12.45 24.49 12.44 29.1 0.06 21.95 0.07 17.35"></polygon>
                        </g>
                        <g transform="translate(9.000000, 0.000000)">
                            <g transform="translate(0.000000, 7.000000)">
                                <path d="M9.65,3.5 L9.65,22.63 C9.578385,23.4088493 9.09318185,24.0888978 8.38,24.41 C6.43787083,25.4101692 4.13212917,25.4101692 2.19,24.41 C1.46735224,24.0859336 0.974660761,23.3984571 0.9,22.61 L0.9,3.47 C0.973108494,4.26441165 1.47054553,4.95699706 2.2,5.28 C4.14101863,6.27015477 6.43898137,6.27015477 8.38,5.28 C9.09180761,4.95722504 9.57635614,4.27809403 9.65,3.5 Z" fill="#E2A966"></path>
                                <path d="M8.36,1.69 C10.08,2.69 10.08,4.29 8.36,5.28 C6.41898137,6.27015477 4.12101863,6.27015477 2.18,5.28 C0.47,4.28 0.44,2.69 2.18,1.69 C4.12333978,0.709551008 6.41666022,0.709551008 8.36,1.69 Z" fill="#FFE180"></path>
                            </g>
                            <g transform="translate(12.000000, 0.000000)">
                                <path d="M9.74,3.46 L9.68,22.6 C9.61043913,23.3796109 9.12457024,24.0605925 8.41,24.38 C6.46898137,25.3701548 4.17101863,25.3701548 2.23,24.38 C1.4991464,24.0587212 1.00102783,23.3651869 0.93,22.57 L0.99,3.44 C1.06054235,4.22999215 1.55457518,4.91934029 2.28,5.24 C4.21862457,6.24006678 6.52137543,6.24006678 8.46,5.24 C9.17845883,4.92339212 9.66854357,4.24186803 9.74,3.46 Z" fill="#E2A966"></path>
                                <path d="M8.44,1.66 C10.17,2.66 10.16,4.25 8.44,5.24 C6.50137543,6.24006678 4.19862457,6.24006678 2.26,5.24 C0.55,4.24 0.53,2.65 2.26,1.66 C4.20101863,0.669845232 6.49898137,0.669845232 8.44,1.66 Z" fill="#FFE180"></path>
                            </g>
                        </g>
                    </g>
                </g>
                <g transform="translate(105.000000, 107.000000)" fill="#9AB2AF" id="Shape">
                    <polygon points="18.19 41.74 11.03 45.9 0.7 39.93 7.85 35.77"></polygon>
                    <polygon points="26.93 36.68 19.78 40.83 9.44 34.87 16.59 30.71"></polygon>
                    <polygon points="35.68 31.62 28.52 35.77 18.19 29.8 25.34 25.65"></polygon>
                    <polygon points="44.42 26.55 37.27 30.71 26.93 24.74 34.08 20.58"></polygon>
                    <polygon points="53.17 21.49 46.01 25.65 35.68 19.68 42.83 15.52"></polygon>
                    <polygon points="61.91 16.43 54.76 20.58 44.42 14.62 51.57 10.46"></polygon>
                    <polygon points="70.66 11.37 63.5 15.52 53.17 9.55 60.32 5.4"></polygon>
                    <polygon points="79.4 6.3 72.25 10.46 61.91 4.49 69.06 0.33"></polygon>
                </g>
                <g transform="translate(244.000000, 159.000000)" id="Shape">
                    <polygon fill="#444444" points="39.89 20.71 34.39 23.9 24.73 18.33 30.23 15.13"></polygon>
                    <g transform="translate(10.000000, 7.000000)">
                        <polygon fill="#C1C1C1" points="22.84 4.17 7.28 13.21 0.58 9.34 16.14 0.3"></polygon>
                        <g transform="translate(5.000000, 0.000000)" fill="#FFE000">
                            <polygon points="13.62 4.18 6.96 8.05 0.27 4.18 6.92 0.32"></polygon>
                            <polygon points="13.62 4.18 13.61 6.67 6.95 10.54 6.96 8.05"></polygon>
                            <polygon points="6.96 8.05 6.95 10.54 0.26 6.68 0.27 4.18"></polygon>
                        </g>
                    </g>
                    <g>
                        <polygon fill="#C1C1C1" points="22.37 4.79 6.81 13.83 0.12 9.96 15.67 0.92"></polygon>
                        <g transform="translate(4.000000, 0.000000)" fill="#FFE000">
                            <polygon points="14.15 4.8 7.49 8.67 0.8 4.8 7.46 0.94"></polygon>
                            <polygon points="14.15 4.8 14.14 7.29 7.49 11.16 7.49 8.67"></polygon>
                            <polygon points="7.49 8.67 7.49 11.16 0.8 7.3 0.8 4.8"></polygon>
                        </g>
                    </g>
                    <g transform="translate(32.000000, 19.000000)">
                        <polygon fill="#C1C1C1" points="22.57 4.37 7.01 13.41 0.31 9.54 15.87 0.5"></polygon>
                        <g transform="translate(4.000000, 0.000000)" fill="#FFE000">
                            <polygon points="14.34 4.38 7.69 8.25 1 4.38 7.65 0.52"></polygon>
                            <polygon points="14.34 4.38 14.34 6.87 7.68 10.74 7.69 8.25"></polygon>
                            <polygon points="7.69 8.25 7.68 10.74 0.99 6.88 1 4.38"></polygon>
                        </g>
                    </g>
                </g>
                <g transform="translate(299.000000, 80.000000)" id="Shape">
                    <polygon fill="#B8A96E" points="30.9 11.19 19.23 17.97 0.03 6.89 11.7 0.1"></polygon>
                    <polygon fill="#8D8254" points="30.9 11.19 30.89 13.64 19.22 20.42 19.23 17.97"></polygon>
                    <polygon fill="#847A4F" points="19.23 17.97 19.22 20.42 0.02 9.34 0.03 6.89"></polygon>
                </g>
                <g transform="translate(34.000000, 188.000000)" id="Shape">
                    <path d="M5.21,16.49 C11.69,20.23 22.15,20.23 28.58,16.49 C35.01,12.75 34.95,6.71 28.48,2.97 C22.01,-0.77 11.57,-0.75 5.16,2.97 C-1.25,6.69 -1.23,12.77 5.21,16.49 Z" fill="#7ACCC2"></path>
                    <path d="M9.19,14.19 C14.0262777,16.645032 19.7437223,16.645032 24.58,14.19 C28.8,11.73 28.77,7.74 24.51,5.28 C20.25,2.82 13.37,2.83 9.15,5.28 C4.93,7.73 4.94,11.73 9.19,14.19 Z" fill="#AFAB95"></path>
                    <path d="M9.17,14.19 C13.9981269,16.6496266 19.7118731,16.6496266 24.54,14.19 C20.3,11.73 13.39,11.73 9.17,14.19" fill="#FFFFFF"></path>
                </g>
                <g transform="translate(171.000000, 266.000000)" id="Shape">
                    <path d="M5.27,17.16 C11.74,20.9 22.2,20.9 28.63,17.16 C35.06,13.42 35,7.38 28.53,3.64 C22.06,-0.1 11.62,-0.08 5.22,3.64 C-1.18,7.36 -1.18,13.44 5.27,17.16 Z" fill="#7ACCC2"></path>
                    <path d="M9.24,14.85 C14.0727573,17.3197003 19.7972427,17.3197003 24.63,14.85 C28.85,12.4 28.83,8.41 24.56,5.95 C19.7345877,3.50848269 14.0354123,3.50848269 9.21,5.95 C5,8.41 5,12.4 9.24,14.85 Z" fill="#AFAB95"></path>
                    <path d="M9.22,14.85 C14.049261,17.3195747 19.770739,17.3195747 24.6,14.85 C20.35,12.4 13.44,12.4 9.22,14.85" fill="#FFFFFF"></path>
                </g>
                <g transform="translate(279.000000, 126.000000)" id="Shape">
                    <polygon fill="#505050" points="0.61 18.99 0.59 26.34 31.87 44.4 62.96 26.33 62.98 18.98 31.7 0.92"></polygon>
                    <g>
                        <polygon fill="#707070" points="62.98 18.98 31.89 37.05 0.61 18.99 31.7 0.92"></polygon>
                        <polygon fill="#565656" points="62.98 18.98 62.96 26.33 31.87 44.4 31.89 37.05"></polygon>
                        <polygon fill="#505050" points="31.89 37.05 31.87 44.4 0.59 26.34 0.61 18.99"></polygon>
                    </g>
                </g>
                <g transform="translate(258.000000, 109.000000)" id="Shape">
                    <path d="M39,6.65 L39,19 C39,20.48 38,22 36.08,23.08 L36.08,10.74 C38.05,9.61 39,8.13 39,6.65 Z" fill="#AAAAAA"></path>
                    <polygon fill="#AAAAAA" points="36.11 10.73 36.07 23.07 17.17 34.05 17.21 21.71"></polygon>
                    <path d="M0.06,29.92 L0.06,17.58 C0.06,19.07 1.06,20.58 3.06,21.71 C7.49997466,23.9801811 12.7600253,23.9801811 17.2,21.71 L17.2,34.05 C12.7541776,36.310515 7.49582241,36.310515 3.05,34.05 C1.05,32.91 0.06,31.41 0.06,29.92 Z" fill="#AAAAAA"></path>
                    <path d="M36.08,2.53 C40,4.79 40,8.47 36.08,10.73 L17.18,21.73 C12.7400253,24.0001811 7.47997466,24.0001811 3.04,21.73 C-0.9,19.46 -0.96,15.8 2.98,13.53 L21.87,2.53 C26.3332594,0.254004115 31.6167406,0.254004115 36.08,2.53 Z" fill="#C9C9C9"></path>
                </g>
                <g transform="translate(241.000000, 103.000000)" id="Shape">
                    <polygon fill="#505050" points="0.34 7.31 0.32 14.66 11.84 21.31 23.29 14.66 23.31 7.31 11.79 0.65"></polygon>
                    <g>
                        <polygon fill="#707070" points="23.31 7.31 11.86 13.96 0.34 7.31 11.79 0.65"></polygon>
                        <polygon fill="#565656" points="23.31 7.31 23.29 14.66 11.84 21.31 11.86 13.96"></polygon>
                        <polygon fill="#505050" points="11.86 13.96 11.84 21.31 0.32 14.66 0.34 7.31"></polygon>
                    </g>
                </g>
                <g transform="translate(317.000000, 136.000000)" id="Shape">
                    <g transform="translate(25.000000, 0.000000)">
                        <g transform="translate(0.000000, 13.000000)">
                            <polygon fill="#707070" points="0.16 7.08 28.41 23.49 40.57 16.47 12.32 0.06"></polygon>
                            <polygon fill="#565656" points="0.16 7.08 0.17 11.6 28.42 28.02 28.41 23.49"></polygon>
                            <polygon fill="#505050" points="28.41 23.49 28.42 28.02 40.58 21 40.57 16.47"></polygon>
                        </g>
                        <g transform="translate(10.000000, 0.000000)">
                            <g transform="translate(12.000000, 7.000000)">
                                <path d="M0.32,3 L0.32,21.8 C0.392013981,22.5655391 0.869197273,23.2335957 1.57,23.55 C3.47452119,24.5306051 5.73547881,24.5306051 7.64,23.55 C8.35584898,23.2374895 8.84322634,22.5582312 8.91,21.78 L8.86,2.98 C8.78903383,3.7566753 8.3030322,4.43401614 7.59,4.75 C5.68547881,5.73060506 3.42452119,5.73060506 1.52,4.75 C0.835845898,4.42321765 0.378288918,3.75594705 0.32,3 Z" fill="#E2A966"></path>
                                <path d="M1.59,1.2 C-0.11,2.2 -0.1,3.75 1.59,4.72 C3.49452119,5.70060506 5.75547881,5.70060506 7.66,4.72 C9.34,3.72 9.36,2.18 7.66,1.2 C5.75309796,0.229269708 3.49690204,0.229269708 1.59,1.2 Z" fill="#FFE180"></path>
                            </g>
                            <g>
                                <path d="M0.45,3.06 L0.45,21.86 C0.517909938,22.6270635 0.996424217,23.2969835 1.7,23.61 C3.60452119,24.5906051 5.86547881,24.5906051 7.77,23.61 C8.48553299,23.2951045 8.97507482,22.6181599 9.05,21.84 L9,3 C8.92903383,3.7766753 8.4430322,4.45401614 7.73,4.77 C5.82547881,5.75060506 3.56452119,5.75060506 1.66,4.77 C0.983555591,4.4529996 0.523880458,3.80337606 0.45,3.06 Z" fill="#E2A966"></path>
                                <path d="M1.72,1.29 C0.02,2.29 0.03,3.84 1.72,4.81 C3.62452119,5.79060506 5.88547881,5.79060506 7.79,4.81 C9.47,3.81 9.49,2.27 7.79,1.29 C5.88309796,0.319269708 3.62690204,0.319269708 1.72,1.29 Z" fill="#FFE180"></path>
                            </g>
                        </g>
                    </g>
                    <g transform="translate(13.000000, 7.000000)">
                        <g transform="translate(0.000000, 12.000000)">
                            <polygon fill="#707070" points="0 7.99 28.25 24.4 40.41 17.38 12.16 0.97"></polygon>
                            <polygon fill="#565656" points="0 7.99 0.01 12.51 28.26 28.93 28.25 24.4"></polygon>
                            <polygon fill="#505050" points="28.25 24.4 28.26 28.93 40.42 21.91 40.41 17.38"></polygon>
                        </g>
                        <g transform="translate(10.000000, 0.000000)">
                            <g transform="translate(12.000000, 7.000000)">
                                <path d="M0.15,2.88 L0.21,21.68 C0.282013981,22.4455391 0.759197273,23.1135957 1.46,23.43 C3.36452119,24.4106051 5.62547881,24.4106051 7.53,23.43 C8.24584898,23.1174895 8.73322634,22.4382312 8.8,21.66 L8.8,2.86 C8.72903383,3.6366753 8.2430322,4.31401614 7.53,4.63 C5.62547881,5.61060506 3.36452119,5.61060506 1.46,4.63 C0.735860759,4.33051262 0.233323263,3.65918391 0.15,2.88 Z" fill="#E2A966"></path>
                                <path d="M1.42,1.11 C-0.27,2.11 -0.26,3.66 1.42,4.63 C3.32452119,5.61060506 5.58547881,5.61060506 7.49,4.63 C9.17,3.63 9.19,2.09 7.49,1.11 C5.58193536,0.144128401 3.32806464,0.144128401 1.42,1.11 Z" fill="#FFE180"></path>
                            </g>
                            <g>
                                <path d="M0.29,3 L0.34,21.8 C0.412013981,22.5655391 0.889197273,23.2335957 1.59,23.55 C3.49452119,24.5306051 5.75547881,24.5306051 7.66,23.55 C8.37584898,23.2374895 8.86322634,22.5582312 8.93,21.78 L8.93,2.98 C8.85903383,3.7566753 8.3730322,4.43401614 7.66,4.75 C5.75547881,5.73060506 3.49452119,5.73060506 1.59,4.75 C0.866961527,4.45121937 0.367239673,3.77851688 0.29,3 Z" fill="#E2A966"></path>
                                <path d="M1.56,1.2 C-0.14,2.2 -0.13,3.75 1.56,4.72 C3.46452119,5.70060506 5.72547881,5.70060506 7.63,4.72 C9.31,3.72 9.33,2.18 7.63,1.2 C5.72309796,0.229269708 3.46690204,0.229269708 1.56,1.2 Z" fill="#FFE180"></path>
                            </g>
                        </g>
                    </g>
                    <g transform="translate(0.000000, 14.000000)">
                        <g transform="translate(0.000000, 12.000000)">
                            <polygon fill="#707070" points="0.84 7.9 29.09 24.31 41.25 17.29 13 0.88"></polygon>
                            <polygon fill="#565656" points="0.84 7.9 0.85 12.42 29.1 28.84 29.09 24.31"></polygon>
                            <polygon fill="#505050" points="29.09 24.31 29.1 28.84 41.26 21.82 41.25 17.29"></polygon>
                        </g>
                        <g transform="translate(11.000000, 0.000000)">
                            <g transform="translate(11.000000, 7.000000)">
                                <path d="M1,2.79 L1.06,21.59 C1.13201398,22.3555391 1.60919727,23.0235957 2.31,23.34 C4.21452119,24.3206051 6.47547881,24.3206051 8.38,23.34 C9.09584898,23.0274895 9.58322634,22.3482312 9.65,21.57 L9.65,2.77 C9.57903383,3.5466753 9.0930322,4.22401614 8.38,4.54 C6.47547881,5.52060506 4.21452119,5.52060506 2.31,4.54 C1.58586076,4.24051262 1.08332326,3.56918391 1,2.79 Z" fill="#E2A966"></path>
                                <path d="M2.26,1 C0.57,2 0.58,3.55 2.26,4.52 C4.16452119,5.50060506 6.42547881,5.50060506 8.33,4.52 C10.01,3.52 10.03,1.98 8.33,1 C6.42193536,0.0341284008 4.16806464,0.0341284008 2.26,1 Z" fill="#FFE180"></path>
                            </g>
                            <g>
                                <path d="M0.13,2.88 L0.13,21.68 C0.202013981,22.4455391 0.679197273,23.1135957 1.38,23.43 C3.28452119,24.4106051 5.54547881,24.4106051 7.45,23.43 C8.16584898,23.1174895 8.65322634,22.4382312 8.72,21.66 L8.72,2.86 C8.64903383,3.6366753 8.1630322,4.31401614 7.45,4.63 C5.54547881,5.61060506 3.28452119,5.61060506 1.38,4.63 C0.676424217,4.31698351 0.197909938,3.64706352 0.13,2.88 Z" fill="#E2A966"></path>
                                <path d="M1.4,1.11 C-0.3,2.11 -0.29,3.66 1.4,4.63 C3.30452119,5.61060506 5.56547881,5.61060506 7.47,4.63 C9.15,3.63 9.17,2.09 7.47,1.11 C5.56309796,0.139269708 3.30690204,0.139269708 1.4,1.11 Z" fill="#FFE180"></path>
                            </g>
                        </g>
                    </g>
                </g>
                <g transform="translate(23.000000, 43.000000)" id="Shape">
                    <g transform="translate(278.000000, 86.000000)">
                        <polygon fill="#191919" points="103.65 6.81 99 9.52 94.33 6.82 98.98 4.12"></polygon>
                        <polygon fill="#363636" points="0.68 58.04 0.55 107.07 10.65 112.9 108.87 55.82 109.01 6.79 98.91 0.91"></polygon>
                        <path d="M98.91,0.92 L109.01,6.75 L10.78,63.83 L0.68,58 L98.91,0.92 Z M39.76,43.92 L44.42,41.22 L39.75,38.52 L35.1,41.23 L39.76,43.92 Z M79.25,20.92 L83.91,18.22 L79.24,15.52 L74.59,18.23 L79.25,20.92 Z M99,9.52 L103.65,6.81 L99,4.12 L94.35,6.82 L99.02,9.52 L99,9.52 Z M10.75,60.81 L15.4,58.11 L10.74,55.41 L6.08,58.12 L10.75,60.81 Z M59.53,32.47 L64.18,29.76 L59.52,27.07 L54.86,29.77 L59.53,32.47 Z M29.92,49.67 L34.56,46.98 L29.89,44.28 L25.25,46.98 L29.92,49.67 Z M89.15,15.25 L93.79,12.56 L89.12,9.86 L84.49,12.56 L89.15,15.25 Z M49.66,38.25 L54.3,35.55 L49.63,32.86 L45,35.5 L49.66,38.2 L49.66,38.25 Z M20.66,55.07 L25.29,52.38 L20.63,49.68 L15.99,52.38 L20.66,55.07 Z M69.44,26.72 L74,24 L69.34,21.31 L64.72,24 L69.39,26.69 L69.44,26.72 Z" fill="#7A7A7A"></path>
                        <polygon fill="#191919" points="93.77 12.55 89.13 15.25 84.47 12.55 89.1 9.86"></polygon>
                        <polygon fill="#191919" points="83.91 18.29 79.25 20.99 74.59 18.3 79.24 15.59"></polygon>
                        <polygon fill="#191919" points="74.02 24.03 69.39 26.72 64.72 24.03 69.36 21.34"></polygon>
                        <polygon fill="#191919" points="64.16 29.76 59.51 32.47 54.84 29.77 59.5 27.07"></polygon>
                        <polygon fill="#191919" points="54.28 35.5 49.64 38.2 44.98 35.5 49.61 32.81"></polygon>
                        <polygon fill="#191919" points="44.42 41.24 39.76 43.94 35.1 41.25 39.75 38.54"></polygon>
                        <polygon fill="#191919" points="34.53 46.98 29.9 49.67 25.23 46.98 29.87 44.28"></polygon>
                        <polygon fill="#191919" points="25.25 52.38 20.61 55.07 15.94 52.38 20.58 49.68"></polygon>
                        <polygon fill="#191919" points="15.38 58.11 10.73 60.81 6.06 58.12 10.72 55.41"></polygon>
                        <polygon fill="#3E3E3E" points="109.01 6.79 108.87 55.82 10.65 112.9 10.78 63.87"></polygon>
                        <polygon fill="#363636" points="10.78 63.87 10.65 112.9 0.55 107.07 0.68 58.04"></polygon>
                    </g>
                    <g transform="translate(189.000000, 149.000000)">
                        <polygon fill="#363636" points="0.75 46.73 0.61 95.76 10.71 101.59 89.69 55.69 89.83 6.62 79.73 0.78"></polygon>
                        <polygon fill="#191919" points="84.47 6.68 79.81 9.39 75.15 6.69 79.8 3.99"></polygon>
                        <polygon fill="#191919" points="74.59 12.42 69.95 15.12 65.28 12.42 69.92 9.73"></polygon>
                        <polygon fill="#191919" points="64.72 18.16 60.07 20.86 55.4 18.17 60.06 15.46"></polygon>
                        <polygon fill="#191919" points="54.84 23.9 50.21 26.59 45.54 23.9 50.17 21.21"></polygon>
                        <polygon fill="#191919" points="44.98 29.63 40.32 32.34 35.66 29.64 40.31 26.94"></polygon>
                        <polygon fill="#191919" points="35.1 35.37 30.46 38.07 25.79 35.37 30.43 32.68"></polygon>
                        <polygon fill="#191919" points="25.23 41.11 20.6 43.8 15.93 41.11 20.57 38.41"></polygon>
                        <polygon fill="#191919" points="15.37 46.84 10.72 49.54 6.05 46.85 10.7 44.14"></polygon>
                        <polygon fill="#3E3E3E" points="89.83 6.66 89.69 55.69 10.71 101.59 10.85 52.56"></polygon>
                        <path d="M79.72,0.78 L89.82,6.62 L10.82,52.51 L0.72,46.68 L79.72,0.78 Z M60.07,20.86 L64.72,18.16 L60.06,15.46 L55.4,18.17 L60.07,20.86 Z M79.81,9.39 L84.47,6.68 L79.8,4 L75.15,6.7 L79.81,9.4 L79.81,9.39 Z M40.32,32.4 L44.98,29.69 L40.31,27 L35.66,29.7 L40.32,32.4 Z M10.72,49.6 L15.37,46.9 L10.7,44.2 L6.05,46.91 L10.72,49.6 Z M30.46,38.13 L35.1,35.43 L30.43,32.74 L25.79,35.43 L30.46,38.13 Z M50.2,26.65 L54.84,23.96 L50.17,21.27 L45.54,23.96 L50.2,26.65 Z M20.6,43.8 L25.23,41.11 L20.57,38.41 L15.93,41.11 L20.6,43.8 Z M70,15.12 L74.63,12.43 L69.97,9.73 L65.33,12.43 L70,15.12 Z" fill="#7A7A7A"></path>
                        <polygon fill="#363636" points="10.85 52.56 10.71 101.59 0.61 95.76 0.75 46.73"></polygon>
                    </g>
                    <g transform="translate(70.000000, 0.000000)">
                        <polygon fill="#3E3E3E" points="0.17 46.42 0.03 95.45 10.13 101.28 89.09 55.39 89.23 6.36 79.13 0.49"></polygon>
                        <g transform="translate(5.000000, 43.000000)" fill="#3E3E3E">
                            <path d="M4.95,49.87 L0.29,52.57"></path>
                            <path d="M0.43,3.54 L5.09,0.84"></path>
                        </g>
                        <path d="M79.13,0.49 L89.23,6.32 L10.23,52.21 L0.13,46.37 L79.13,0.49 Z M79.21,9.09 L83.87,6.39 L79.18,3.68 L74.53,6.39 L79.21,9.09 Z M59.47,20.57 L64.12,17.86 L59.44,15.16 L54.78,17.86 L59.47,20.57 Z M10.12,49.25 L14.77,46.54 L10.09,43.84 L5.43,46.54 L10.12,49.25 Z M49.61,26.25 L54.26,23.54 L49.58,20.84 L44.92,23.54 L49.61,26.25 Z M29.86,37.72 L34.52,35.02 L29.83,32.31 L25.18,35.02 L29.86,37.72 Z M39.74,31.98 L44.38,29.29 L39.69,26.58 L35.06,29.27 L39.74,31.98 Z M20,43.5 L24.63,40.81 L20,38.1 L15.36,40.8 L20.05,43.5 L20,43.5 Z M69.4,14.82 L74.04,12.13 L69.35,9.42 L64.72,12.12 L69.4,14.82 Z" fill="#7A7A7A"></path>
                        <polygon fill="#191919" points="83.87 6.39 79.21 9.09 74.53 6.39 79.18 3.68"></polygon>
                        <polygon fill="#191919" points="73.99 12.13 69.35 14.82 64.66 12.12 69.3 9.42"></polygon>
                        <polygon fill="#191919" points="64.12 17.86 59.47 20.57 54.78 17.86 59.44 15.16"></polygon>
                        <polygon fill="#191919" points="54.26 23.59 49.61 26.3 44.92 23.59 49.58 20.89"></polygon>
                        <polygon fill="#191919" points="44.38 29.34 39.74 32.03 35.06 29.32 39.69 26.63"></polygon>
                        <polygon fill="#191919" points="34.52 35.07 29.86 37.77 25.18 35.07 29.83 32.36"></polygon>
                        <polygon fill="#191919" points="24.63 40.81 20 43.5 15.31 40.8 19.95 38.1"></polygon>
                        <polygon fill="#191919" points="14.77 46.54 10.12 49.25 5.43 46.54 10.09 43.84"></polygon>
                        <polygon fill="#3E3E3E" points="89.23 6.36 89.09 55.39 10.13 101.28 10.27 52.25"></polygon>
                        <polygon fill="#363636" points="10.27 52.25 10.13 101.28 0.03 95.45 0.17 46.42"></polygon>
                    </g>
                    <g transform="translate(0.000000, 52.000000)">
                        <polygon fill="#363636" points="0.81 34.73 0.67 83.76 10.77 89.59 69.75 55.31 69.89 6.28 59.79 0.41"></polygon>
                        <polygon fill="#191919" points="54.65 12.05 50.01 14.74 45.33 12.03 49.97 9.34"></polygon>
                        <path d="M59.79,0.41 L69.89,6.24 L10.89,40.52 L0.79,34.68 L59.79,0.41 Z M20.39,32 L25.04,29.29 L20.36,26.59 L15.7,29.29 L20.39,32 Z M59.88,9 L64.53,6.29 L59.85,3.59 L55.19,6.29 L59.88,9 Z M40.13,20.47 L44.79,17.77 L40.1,15.06 L35.45,17.77 L40.13,20.47 Z M10.53,37.68 L15.16,34.98 L10.48,32.28 L5.84,35 L10.53,37.71 L10.53,37.68 Z M50.01,14.71 L54.65,12.02 L50,9.34 L45.33,12 L50.01,14.71 Z M30.27,26.18 L34.91,23.49 L30.22,20.79 L25.58,23.48 L30.27,26.18 Z" fill="#7A7A7A"></path>
                        <polygon fill="#191919" points="64.53 6.3 59.88 9.01 55.19 6.3 59.85 3.6"></polygon>
                        <polygon fill="#191919" points="44.79 17.78 40.13 20.48 35.45 17.78 40.1 15.07"></polygon>
                        <polygon fill="#191919" points="34.91 23.52 30.27 26.21 25.59 23.51 30.22 20.82"></polygon>
                        <polygon fill="#191919" points="25.04 29.25 20.39 31.96 15.7 29.25 20.36 26.55"></polygon>
                        <polygon fill="#191919" points="15.16 34.99 10.53 37.69 5.84 34.98 10.48 32.29"></polygon>
                        <polygon fill="#363636" points="10.91 40.56 10.77 89.59 0.67 83.76 0.81 34.73"></polygon>
                        <polygon fill="#3E3E3E" points="69.89 6.28 69.75 55.31 10.77 89.59 10.91 40.56"></polygon>
                    </g>
                </g>
                <g transform="translate(248.000000, 0.000000)" id="Shape">
                    <polygon fill="#595959" points="0.2 31.77 0.3 69.57 36.34 90.51 77.51 66.74 77.51 68.66 88.28 62.44 88.17 21.18 52.13 0.24 41.36 6.46 41.37 8.01"></polygon>
                    <g>
                        <polygon fill="#383838" points="77.51 68.66 41.48 47.72 41.47 45.8 77.51 66.74"></polygon>
                        <polygon fill="#383838" points="77.4 28.95 41.37 8.01 41.36 6.46 77.39 27.4"></polygon>
                        <polygon fill="#595959" points="77.39 27.4 41.36 6.46 52.13 0.24 88.17 21.18"></polygon>
                        <polygon fill="#505050" points="88.17 21.18 88.28 62.44 77.51 68.66 77.51 66.74 36.34 90.51 36.23 52.72 77.4 28.95 77.39 27.4"></polygon>
                        <polygon fill="#383838" points="36.34 90.51 0.3 69.57 0.2 31.77 36.23 52.72"></polygon>
                        <polygon fill="#7F7F7F" points="26.21 84.72 10.37 75.51 10.32 58.89 26.17 68.1"></polygon>
                        <polygon fill="#595959" points="36.23 52.72 0.2 31.77 41.37 8.01 77.4 28.95"></polygon>
                    </g>
                </g>
                <g transform="translate(176.000000, 182.000000)" fill="#F2F2F2" id="Shape">
                    <path d="M56.42,0.89 L88,19.13 L62.21,34.13 L55.51,38.02 L31.79,51.81 L0.2,33.56 L23.93,19.77 L30.63,15.88 L56.42,0.89 Z M56.59,29.76 L74.89,19.13 L56.47,8.49 L38.16,19.13 L56.59,29.76 Z M31.75,44.2 L50.05,33.57 L31.62,22.93 L13.33,33.56 L31.75,44.2 Z"></path>
                    <polygon points="62.79 19.3 56.68 22.85 50.53 19.3 56.64 15.76"></polygon>
                    <polygon points="38.19 33.6 32.08 37.15 25.93 33.6 32.04 30.05"></polygon>
                </g>
            </g>
            <g id="Group" transform="translate(154.000000, 0.000000)">
                <g fill-rule="nonzero">
                    <g id="Shape">
                        <g>
                            <polygon fill="#F7F7F7" points="1110.44 259.89 450.99 643.12 0.85 383.24 660.31 0"></polygon>
                            <polygon fill="#FF8C3E" points="1110.44 259.89 450.99 643.12 345.73 582.3 1005.18 199.07"></polygon>
                            <polygon fill="#FF6D00" points="1110.44 259.89 844.76 414.25 739.5 353.44 1005.18 199.07"></polygon>
                            <polygon fill="#989898" points="1110.44 259.89 1110.09 383.57 450.63 766.8 450.99 643.12"></polygon>
                            <polygon fill="#C2C2C2" points="450.99 643.12 450.63 766.8 0.5 506.92 0.85 383.24"></polygon>
                        </g>
                        <g transform="translate(44.000000, 14.000000)" fill="#FFD41D">
                            <polygon points="732.39 51.97 694.21 74.16 665.58 13.4"></polygon>
                            <polygon points="163.19 249.74 212.38 354.17 157.07 386.31 107.87 281.89"></polygon>
                            <polygon points="378.04 124.89 427.24 229.31 371.93 261.45 322.73 157.03"></polygon>
                            <polygon points="270.62 187.31 319.81 291.74 264.5 323.88 215.3 219.46"></polygon>
                            <polygon points="485.47 62.45 534.67 166.88 479.35 199.02 430.16 94.6"></polygon>
                            <polygon points="592.9 0.02 642.1 104.44 586.78 136.59 537.59 32.17"></polygon>
                            <polygon points="55.76 312.18 104.96 416.6 72.59 435.4 32.44 412.22 0.45 344.32"></polygon>
                        </g>
                    </g>
                    <g transform="translate(336.000000, 89.000000)">
                        <polygon id="Shape" fill="#7A7A7A" points="93.14 142.78 27.36 181.01 7.61 169.61 73.4 131.38"></polygon>
                        <polygon id="Shape" fill="#D3D3D3" points="502.9 84.45 469.1 104.09 432.5 125.36 380.36 95.25 416.95 73.99 450.76 54.34"></polygon>
                        <ellipse id="Oval" fill="#D3D3D3" transform="translate(260.916168, 67.931116) rotate(-89.840000) translate(-260.916168, -67.931116) " cx="260.916168" cy="67.9311164" rx="13.69" ry="23.64"></ellipse>
                        <polygon id="Shape" fill="#5B5B5B" points="361.49 24.25 346.2 33.14 297.2 61.61 256.42 38.07 305.42 9.59 320.72 0.7"></polygon>
                        <g transform="translate(0.000000, 1.000000)" id="Shape">
                            <path d="M474.86,113.91 L504.86,131.23 L475.05,148.56 L445.05,131.23 L474.86,113.91 Z M464.61,137.23 C470.35,140.54 479.61,140.54 485.32,137.23 C491.03,133.92 490.99,128.55 485.25,125.23 C479.51,121.91 470.25,121.91 464.55,125.23 C458.85,128.55 458.9,133.92 464.61,137.23 Z" fill="#D3D3D3"></path>
                            <path d="M485.25,125.24 C490.99,128.55 491.02,133.92 485.32,137.24 C479.62,140.56 470.32,140.55 464.61,137.24 C458.9,133.93 458.84,128.56 464.55,125.24 C470.26,121.92 479.53,121.94 485.25,125.24 Z" fill="#727272"></path>
                            <polygon fill="#5B5B5B" points="259.62 135.31 111.2 221.57 65.57 195.22 213.99 108.97"></polygon>
                            <polygon fill="#7A7A7A" points="438.34 175.37 328.79 239.04 309.04 227.64 418.59 163.97"></polygon>
                            <polygon fill="#7A7A7A" points="317.68 245.49 229.6 296.68 209.86 285.28 297.94 234.09"></polygon>
                            <path d="M469.1,103.09 L519.34,132.09 L229.34,300.62 L0.87,168.74 L290.87,0.2 L305.41,8.59 L256.41,37.07 L297.19,60.61 L346.19,32.14 L417,73 L380.41,94.26 L432.55,124.37 L469.1,103.09 Z M111.2,221.57 L259.62,135.31 L214,109 L65.57,195.22 L111.2,221.57 Z M328.79,239 L438.34,175.33 L418.59,164 L309,227.64 L328.79,239 Z M175.38,258.62 L211,237.91 L156.54,206.47 L120.9,227.18 L175.36,258.62 L175.38,258.62 Z M104.7,135.07 L192.78,83.88 L173,72.48 L85,123.67 L104.75,135.07 L104.7,135.07 Z M229.6,296.68 L317.68,245.49 L297.94,234.09 L209.86,285.28 L229.6,296.68 Z M27.36,180 L93.14,141.77 L73.4,130.37 L7.61,168.6 L27.36,180 Z M206.46,98.6 C215.69,103.92 230.74,103.91 239.88,98.6 C249.02,93.29 249.03,84.55 239.8,79.22 C230.57,73.89 215.52,73.9 206.35,79.22 C197.18,84.54 197.23,93.22 206.46,98.59 L206.46,98.6 Z M277.6,57.24 C268.37,51.91 253.35,51.91 244.18,57.24 C235.01,62.57 235.06,71.24 244.29,76.6 C253.52,81.96 268.54,81.93 277.71,76.6 C286.88,71.27 286.83,62.6 277.6,57.24 Z M474.86,113.89 L445.05,131.21 L475.05,148.54 L504.86,131.21 L474.86,113.89 Z" fill="#57BAB3"></path>
                            <path d="M239.8,79.23 C249.03,84.56 249.05,93.28 239.88,98.61 C230.71,103.94 215.69,103.93 206.46,98.61 C197.23,93.29 197.2,84.56 206.35,79.24 C215.5,73.92 230.57,73.9 239.8,79.23 Z" fill="#D3D3D3"></path>
                            <polygon fill="#7A7A7A" points="192.78 83.88 104.7 135.07 84.95 123.67 173.03 72.48"></polygon>
                            <polygon fill="#5B5B5B" points="211.02 237.91 175.38 258.62 120.92 227.18 156.56 206.47"></polygon>
                        </g>
                    </g>
                </g>
                <g transform="translate(107.000000, 209.000000)">
                    <g transform="translate(301.000000, 66.000000)">
                        <g transform="translate(112.000000, 241.000000)" fill="#FF8C3E" fill-rule="nonzero" id="Shape">
                            <polygon points="7.65 16.6 0.83 12.66 21.15 0.85 27.97 4.78"></polygon>
                        </g>
                        <g></g>
                    </g>
                    <g transform="translate(863.000000, 0.000000)" fill-rule="nonzero" id="Shape">
                        <path d="M40.77,7.74 L111.62,48.49 C113.196737,49.3987345 114.168347,51.0801376 114.168347,52.9 C114.168347,54.7198624 113.196737,56.4012655 111.62,57.31 L9,116.74 C7.21046878,117.775573 5.00452774,117.778312 3.21243055,116.747186 C1.42033336,115.71606 0.314067475,113.807563 0.31,111.74 L0.31,29.57 C0.309708161,25.9188656 2.26287005,22.5466095 5.43,20.73 L28.09,7.73 C32.0182699,5.4803356 36.8452834,5.4841424 40.77,7.74 Z" fill="#F2F2F2"></path>
                        <path d="M40.77,2.57 L111.62,43.31 C113.196737,44.2187345 114.168347,45.9001376 114.168347,47.72 C114.168347,49.5398624 113.196737,51.2212655 111.62,52.13 L9,111.57 C7.21046878,112.605573 5.00452774,112.608312 3.21243055,111.577186 C1.42033336,110.54606 0.314067475,108.637563 0.31,106.57 L0.31,24.39 C0.309708161,20.7388656 2.26287005,17.3666095 5.43,15.55 L28.09,2.55 C32.0189626,0.299342861 36.8481568,0.306959887 40.77,2.57 Z" fill="#FFD731"></path>
                    </g>
                    <g transform="translate(0.000000, 104.000000)" fill="#1DD8D8" fill-rule="nonzero" id="Shape">
                        <g>
                            <path d="M126.16,0.5 L196.65,41.2 L139.09,74.65 L124.15,83.34 L71.15,114.12 L0.66,73.42 L53.66,42.64 L68.66,33.95 L126.16,0.5 Z M126.55,64.95 L167.41,41.2 L126.28,17.46 L85.42,41.2 L126.55,65 L126.55,64.95 Z M71.11,97.21 L112,73.43 L70.87,49.69 L30,73.42 L71.13,97.16 L71.11,97.21 Z"></path>
                            <polygon points="140.38 41.6 126.75 49.52 113.03 41.6 126.66 33.68"></polygon>
                            <polygon points="85.47 73.51 71.84 81.43 58.12 73.51 71.75 65.59"></polygon>
                        </g>
                        <polygon points="230.8 61.01 105.21 133.97 85.47 122.57 211.05 49.61"></polygon>
                    </g>
                    <polygon id="Shape" fill="#C1B67E" fill-rule="nonzero" points="435.29 238.49 238.66 352.86 218.91 341.46 415.55 227.09"></polygon>
                    <polygon id="Shape" fill="#C1B67E" fill-rule="nonzero" points="404.21 219.7 207.57 334.06 168.97 311.97 365.61 197.61"></polygon>
                </g>
            </g>
            <g id="Group" transform="translate(503.000000, 777.000000)" fill-rule="nonzero">
                <g transform="translate(0.000000, 24.000000)" id="Shape">
                    <g transform="translate(0.000000, 24.000000)">
                        <path d="M23.06,17.84 L1.23,5.34 C0.803125096,5.04251616 0.56992731,4.53789144 0.62,4.02 C0.683342674,2.59642975 1.42761093,1.29023897 2.62,0.51 C3.04311455,0.189949048 3.60793805,0.12847166 4.09,0.35 L25.92,12.84 C25.4368861,12.6250681 24.875561,12.6861647 24.45,13 C23.2585206,13.7857374 22.5150499,15.0942458 22.45,16.52 C22.3977486,17.0382592 22.6314331,17.5439372 23.06,17.84 Z" fill="#FFC25F"></path>
                        <path d="M24.5,17.69 C23.38,18.34 22.5,17.83 22.5,16.52 C22.5650499,15.0942458 23.3085206,13.7857374 24.5,13 C25.64,12.33 26.56,12.85 26.57,14.14 C26.4970768,15.5891657 25.7252829,16.9127736 24.5,17.69 Z" fill="#FFDEAE"></path>
                    </g>
                    <g transform="translate(10.000000, 18.000000)">
                        <path d="M23,18 L1.17,5.5 C0.744789921,5.20112378 0.512066635,4.69752585 0.56,4.18 C0.626655837,2.7547101 1.36974152,1.4468793 2.56,0.66 C2.98275682,0.347130481 3.54245798,0.289626937 4.02,0.51 L25.85,13 C25.3672261,12.7829075 24.8047641,12.8441279 24.38,13.16 C23.1876109,13.940239 22.4433427,15.2464298 22.38,16.67 C22.3347899,17.19216 22.5710121,17.6988947 23,18 Z" fill="#FFC25F"></path>
                        <path d="M24.43,17.86 C23.31,18.52 22.43,18.01 22.43,16.69 C22.4933427,15.2664298 23.2376109,13.960239 24.43,13.18 C25.55,12.52 26.43,13.02 26.5,14.31 C26.425424,15.7586736 25.6540405,17.0815776 24.43,17.86 Z" fill="#FFDEAE"></path>
                    </g>
                    <g transform="translate(20.000000, 12.000000)">
                        <path d="M23.09,18.29 L1.26,5.8 C0.836782134,5.50944554 0.606529363,5.01056454 0.66,4.5 C0.712152931,3.0652062 1.45795469,1.74513709 2.66,0.96 C3.07883195,0.646796406 3.63592282,0.589166315 4.11,0.81 L25.94,13.3 C25.4648377,13.08575 24.9112418,13.1430185 24.49,13.45 C23.2917163,14.238658 22.5471101,15.5566111 22.49,16.99 C22.4365294,17.5005645 22.6667821,17.9994455 23.09,18.29 Z" fill="#FFC25F"></path>
                        <path d="M24.53,18.14 C23.41,18.79 22.53,18.28 22.53,16.99 C22.5871101,15.5566111 23.3317163,14.238658 24.53,13.45 C25.65,12.8 26.53,13.3 26.59,14.61 C26.5081089,16.0486183 25.7422341,17.3610153 24.53,18.14 Z" fill="#FFDEAE"></path>
                    </g>
                    <g transform="translate(30.000000, 6.000000)">
                        <path d="M23,18.47 L1.17,6 C0.748420756,5.71269213 0.51811081,5.21752575 0.57,4.71 C0.628833355,3.27441876 1.37264179,1.95415879 2.57,1.16 C2.9823562,0.851226444 3.52959882,0.789996501 4,1 L25.84,13.49 C25.3603194,13.2746801 24.8016623,13.3359028 24.38,13.65 C23.1826418,14.4441588 22.4388334,15.7644188 22.38,17.2 C22.3355177,17.7054867 22.5740815,18.1941577 23,18.47 Z" fill="#FFC25F"></path>
                        <path d="M24.46,18.32 C23.34,18.98 22.41,18.48 22.4,17.19 C22.4588334,15.7544188 23.2026418,14.4341588 24.4,13.64 C25.52,12.98 26.45,13.48 26.46,14.79 C26.3932795,16.2179532 25.6505901,17.5288001 24.46,18.32 Z" fill="#FFDEAE"></path>
                    </g>
                    <g transform="translate(40.000000, 0.000000)">
                        <path d="M22.71,18.58 L0.88,6.09 C0.463478604,5.79842469 0.234633185,5.30640704 0.28,4.8 C0.342055408,3.36533682 1.08509649,2.0464389 2.28,1.25 C2.70275682,0.937130481 3.26245798,0.879626937 3.74,1.1 L25.57,13.59 C25.0914013,13.3760933 24.5351063,13.4332469 24.11,13.74 C22.9163148,14.5375687 22.173653,15.8557935 22.11,17.29 C22.0667278,17.7960388 22.2951097,18.28706 22.71,18.58 Z" fill="#FFC25F"></path>
                        <path d="M24.17,18.43 C23.06,19.09 22.17,18.58 22.11,17.29 C22.173653,15.8557935 22.9163148,14.5375687 24.11,13.74 C25.23,13.09 26.11,13.59 26.17,14.9 C26.1048766,16.3284139 25.3618061,17.6399333 24.17,18.43 Z" fill="#FFDEAE"></path>
                    </g>
                </g>
                <g transform="translate(11.000000, 0.000000)" id="Shape">
                    <g transform="translate(1.000000, 18.000000)">
                        <polygon fill="#686868" points="199.54 95.53 116.9 143.98 0.8 77.53 0.53 48.79 83.18 0.35 199.27 66.79"></polygon>
                        <g>
                            <polygon fill="#5B5B5B" points="116.63 115.24 0.53 48.79 83.18 0.35 199.27 66.79"></polygon>
                            <polygon fill="#474747" points="116.63 115.24 116.9 143.98 0.8 77.53 0.53 48.79"></polygon>
                            <polygon fill="#686868" points="199.27 66.79 199.54 95.53 116.9 143.98 116.63 115.24"></polygon>
                        </g>
                    </g>
                    <g>
                        <polygon fill="#E2E2E2" points="199.57 84.4 116.92 132.85 0.87 66.43 0.71 49.19 83.36 0.74 199.41 67.16"></polygon>
                        <g>
                            <polygon fill="#F4F4F4" points="116.76 115.61 0.71 49.19 83.36 0.74 199.41 67.16"></polygon>
                            <polygon fill="#BFBFBF" points="116.76 115.61 116.92 132.85 0.87 66.43 0.71 49.19"></polygon>
                            <polygon fill="#E2E2E2" points="199.41 67.16 199.57 84.4 116.92 132.85 116.76 115.61"></polygon>
                        </g>
                    </g>
                </g>
                <g transform="translate(55.000000, 25.000000)" fill="#76E862" id="Shape">
                    <polygon points="63.21 19.77 73.16 19.74 73.2 13.93 48.74 0.04 38.69 0.15 38.64 5.95"></polygon>
                    <polygon points="110.95 41.08 110.87 35.34 86.44 21.46 76.48 21.49 76.43 27.28 100.92 41.19"></polygon>
                    <polygon points="100.89 42.91 75.5 57.79 75.59 63.54 85.64 63.44 110.93 48.62 110.86 42.87"></polygon>
                    <g transform="translate(0.000000, 22.000000)">
                        <polygon points="34.74 14.49 10.25 0.58 0.22 0.7 0.29 6.44 24.73 20.32 34.68 20.29"></polygon>
                        <polygon points="47.95 22 38 22.04 37.96 27.84 62.42 41.74 72.48 41.63 72.52 35.84"></polygon>
                    </g>
                    <polygon points="10.27 20.88 35.65 5.99 35.59 0.23 25.52 0.34 0.23 15.17 0.3 20.91"></polygon>
                    <polygon points="37.78 42.33 47.84 42.22 73.23 27.33 73.27 21.52 63.22 21.63 37.82 36.52"></polygon>
                    <polygon points="138.57 42.92 132.27 39.32 125.99 43 132.28 46.61"></polygon>
                </g>
                <g transform="translate(148.000000, 108.000000)" id="Shape">
                    <g transform="translate(0.000000, 24.000000)">
                        <path d="M22.6,17.73 L0.77,5.24 C0.345217887,4.9415345 0.115562482,4.43629261 0.17,3.92 C0.233434915,2.49377993 0.977293641,1.18458857 2.17,0.4 C2.59166232,0.0859027684 3.15031936,0.0246800791 3.63,0.24 L25.46,12.73 C24.9796524,12.5189657 24.4232416,12.5799423 24,12.89 C22.8097415,13.6768793 22.0666558,14.9847101 22,16.41 C21.9477271,16.9259393 22.1769074,17.430136 22.6,17.73 Z" fill="#FFC25F"></path>
                        <path d="M24,17.58 C22.88,18.24 22,17.72 22,16.41 C22.0666558,14.9847101 22.8097415,13.6768793 24,12.89 C25.14,12.23 26,12.74 26.06,14.03 C25.9893069,15.4772752 25.2214655,16.8004969 24,17.58 Z" fill="#FFDEAE"></path>
                    </g>
                    <g transform="translate(10.000000, 18.000000)">
                        <path d="M22.53,17.91 L0.7,5.41 C0.273500465,5.11296209 0.0433576319,4.60664786 0.1,4.09 C0.165049919,2.66424583 0.908520605,1.35573742 2.1,0.57 C2.52820388,0.261471087 3.0883052,0.20431789 3.57,0.42 L25.4,12.92 C24.922458,12.6996269 24.3627568,12.7571305 23.94,13.07 C22.7460606,13.8534327 22.0018107,15.1633124 21.94,16.59 C21.8833592,17.1043395 22.1089957,17.6091534 22.53,17.91 Z" fill="#FFC25F"></path>
                        <path d="M24,17.76 C22.88,18.41 22,17.9 22,16.59 C22.0618107,15.1633124 22.8060606,13.8534327 24,13.07 C25.11,12.41 26.05,12.91 26.06,14.21 C25.9827675,15.6553348 25.216536,16.9757821 24,17.76 Z" fill="#FFDEAE"></path>
                    </g>
                    <g transform="translate(20.000000, 12.000000)">
                        <path d="M22.63,18.18 L0.8,5.69 C0.380184333,5.39658748 0.150911558,4.8998298 0.2,4.39 C0.260368239,2.95753962 1.00419311,1.64096961 2.2,0.85 C2.62275682,0.537130481 3.18245798,0.479626937 3.66,0.7 L25.49,13.19 C25.0103194,12.9746801 24.4516623,13.0359028 24.03,13.35 C22.8304687,14.1374916 22.0854671,15.4561444 22.03,16.89 C21.9781108,17.3975257 22.2084208,17.8926921 22.63,18.18 Z" fill="#FFC25F"></path>
                        <path d="M24.07,18 C22.96,18.66 22.07,18.15 22.07,16.86 C22.1254671,15.4261444 22.8704687,14.1074916 24.07,13.32 C25.19,12.66 26.12,13.16 26.13,14.47 C26.0546107,15.9105685 25.2871305,17.2257167 24.07,18 Z" fill="#FFDEAE"></path>
                    </g>
                    <g transform="translate(30.000000, 6.000000)">
                        <path d="M22.54,18.37 L0.71,5.87 C0.295109708,5.57706002 0.0667277568,5.08603883 0.11,4.58 C0.173652977,3.14579349 0.916314846,1.82756867 2.11,1.03 C2.53434098,0.721242526 3.09174303,0.663975192 3.57,0.88 L25.4,13.38 C24.922458,13.1596269 24.3627568,13.2171305 23.94,13.53 C22.7450965,14.3264389 22.0020554,15.6453368 21.94,17.08 C21.8987845,17.585673 22.1267146,18.0757228 22.54,18.37 Z" fill="#FFC25F"></path>
                        <path d="M24,18.21 C22.89,18.87 22,18.37 21.94,17.08 C22.0020554,15.6453368 22.7450965,14.3264389 23.94,13.53 C25.06,12.87 25.94,13.37 26,14.69 C25.9381893,16.1166876 25.1939394,17.4265673 24,18.21 Z" fill="#FFDEAE"></path>
                    </g>
                    <g transform="translate(39.000000, 0.000000)">
                        <path d="M23.25,18.48 L1.42,6 C1.00510971,5.70706002 0.776727757,5.21603883 0.82,4.71 C0.883652977,3.27579349 1.62631485,1.95756867 2.82,1.16 C3.24275682,0.847130481 3.80245798,0.789626937 4.28,1.01 L26.11,13.5 C25.6296524,13.2889657 25.0732416,13.3499423 24.65,13.66 C23.4526418,14.4541588 22.7088334,15.7744188 22.65,17.21 C22.6159779,17.7087857 22.8430987,18.1895246 23.25,18.48 Z" fill="#FFC25F"></path>
                        <path d="M24.72,18.32 C23.6,18.98 22.67,18.48 22.65,17.19 C22.7088334,15.7544188 23.4526418,14.4341588 24.65,13.64 C25.77,12.98 26.7,13.48 26.72,14.79 C26.6532795,16.2179532 25.9105901,17.5288001 24.72,18.32 Z" fill="#FFDEAE"></path>
                    </g>
                </g>
            </g>
            <polygon id="Shape" fill="#8C8875" fill-rule="nonzero" points="1264.96 549.28 1264.61 672.96 605.14 1056.2 605.5 932.52"></polygon>
        </g>
    </g>
</svg>