<?xml version="1.0" encoding="utf-8"?>
<!-- Generator: Adobe Illustrator 27.1.1, SVG Export Plug-In . SVG Version: 6.00 Build 0)  -->
<svg version="1.1" xmlns="http://www.w3.org/2000/svg" xmlns:xlink="http://www.w3.org/1999/xlink" x="0px" y="0px"
	 viewBox="0 0 24.34 29.05" style="enable-background:new 0 0 24.34 29.05;" xml:space="preserve">
<style type="text/css">
	.st0{fill:#FFFFFF;}
</style>
<g id="Camada_2">
	<g>
		<g>
			<path class="st0" d="M15.1,27.44c7.72,0,7.73-12,0-12C7.38,15.44,7.36,27.44,15.1,27.44L15.1,27.44z"/>
		</g>
	</g>
	<g>
		<g>
			<path class="st0" d="M15.5,26.45c7.72,0,7.73-12,0-12C7.78,14.45,7.77,26.45,15.5,26.45L15.5,26.45z"/>
		</g>
	</g>
	<g>
		<g>
			<path class="st0" d="M15.86,13.37c-0.26,0.01-0.5,0.01-0.76-0.01c0.53,0.07,1.06,0.14,1.6,0.21c-0.7-0.17-1.42-0.25-2.14-0.3
				c0.53,0.07,1.06,0.14,1.6,0.21c-0.65-0.11-1.34-0.23-2-0.26c0.53,0.07,1.06,0.14,1.6,0.21c-1.8-0.28-2.84-0.27-4.66-0.01
				c0.53-0.07,1.06-0.14,1.6-0.21c-0.49,0.05-0.97,0.06-1.46,0.06c-3.14,0-6.15,2.76-6,6c0.15,3.25,2.64,6,6,6
				c1.11,0,2.15-0.15,3.25-0.31c-0.53,0.07-1.06,0.14-1.6,0.21c0.36,0,0.71,0,1.07,0.01c-0.53-0.07-1.06-0.14-1.6-0.21
				c0.66,0.1,1.33,0.22,2,0.26c-0.53-0.07-1.06-0.14-1.6-0.21c0.66,0.11,1.33,0.22,2,0.26c-0.53-0.07-1.06-0.14-1.6-0.21
				c0.89,0.18,1.79,0.33,2.7,0.3c3.13-0.1,6.15-2.69,6-6C21.72,16.21,19.22,13.27,15.86,13.37L15.86,13.37z"/>
		</g>
	</g>
	<g>
		<g>
			<path class="st0" d="M5.9,14.04c-3.33,1.38-5.65,4.33-4.69,8.15c0.79,3.12,3.2,4.63,6.04,5.62c1.89,0.66,3.86,0.91,5.85,0.95
				c0.29,0.01,0.59,0.02,0.88,0c0.26-0.01,2.73-0.44,1.57-0.25c-1.39,0.23,1.23-0.19,1.27-0.2c0.24-0.06,1.41-0.43,0.22-0.19
				c1.3-0.27,2.33-0.22,3.52-0.92c1.47-0.86,2.45-2.34,2.94-3.93c0.78-2.5,0.41-5.78-1.09-7.89c-2.52-3.55-8.69-3.08-12.62-3.08
				c-3.24,0-6,2.76-6,6c0,3.25,2.75,6,6,6c2.55,0,5.08,0.4,7.61,0.41c-1.41-0.59-2.83-1.17-4.24-1.76c0.13,0.08,0.23,0.18,0.31,0.31
				c-0.51-0.88-1.03-1.77-1.54-2.65c-0.12-0.95-0.15-0.96-0.12-0.02c-0.01,1.19,0.17,0.66,0.55-1.6c1.2-0.92,2.39-1.84,3.59-2.76
				c0.37-0.04,0.73-0.08,1.1-0.12c-0.49-0.01-0.98,0.04-1.47,0.13c-0.45,0.07-1.09,0.13-1.52,0.36c-0.71,0.18-0.41,0.17,0.89-0.04
				c-0.53,0.07-1.06,0.14-1.6,0.21c-1.19,0.14,0.36,0.16-0.05-0.03c-0.15-0.07-0.58-0.02-0.75-0.02c-0.28,0,0.34,0.16-0.43,0.01
				c-0.37-0.07-0.73-0.22-1.09-0.32c-1.18-0.32-0.02,0.05,0.35,0.4c0.51,0.88,1.03,1.77,1.54,2.65c-0.04-0.16-0.08-0.32-0.12-0.48
				c0,1.06,0,2.13,0,3.19c-0.13,0.26-0.26,0.53-0.4,0.79c-1.2,0.92-2.39,1.84-3.59,2.76c0.1-0.04,0.19-0.08,0.29-0.12
				c2.99-1.24,5.13-3.98,4.19-7.38C12.5,15.4,8.91,12.79,5.9,14.04L5.9,14.04z"/>
		</g>
	</g>
	<g>
		<g>
			<path class="st0" d="M10.43,14.1c0-0.54-0.04-1.08-0.04-1.62c0-0.51,0.13-1,0.27-1.5c0.3-1.05,0.31-2.2,0.42-3.29
				c0.05-0.51,0.04-1.09,0.19-1.58c0.15-0.49,0.38-0.97,0.55-1.46c0.15-0.46,0.37-0.91,0.58-1.35c0.21-0.44,0.67-0.95,0.6-1.45
				c-0.14-0.89-1.71-1.09-2.41-1.14c-0.7-0.05-2.28-0.17-2.57,0.7c-0.28,0.83,0,1.93,0.41,2.66c0.52,0.92,0.8,2.02,1.19,3
				c0.37,0.93,0.69,1.82,1.19,2.7c0.56,0.98,1.03,2.03,1.65,2.98c0.54,0.82,2.13,0.94,3.01,0.91c0.36-0.01,2.36-0.18,1.84-0.98
				c-0.58-0.89-1.06-1.87-1.56-2.81c-0.47-0.89-0.87-1.74-1.22-2.68c-0.36-0.98-0.71-1.99-1.13-2.95c-0.21-0.47-0.38-0.64-0.44-1.16
				c-0.05-0.39-0.08-0.85,0.05-1.23C11.33,1.7,9.67,1.56,8.01,1.41c0.07,0.44-0.35,0.93-0.55,1.31C7.24,3.17,7.02,3.65,6.86,4.13
				C6.68,4.62,6.48,5.11,6.31,5.6C6.13,6.12,6.15,6.72,6.1,7.26C5.99,8.3,6.01,9.45,5.71,10.45c-0.14,0.48-0.29,0.98-0.3,1.49
				c-0.01,0.58,0.04,1.15,0.04,1.73c0,0.87,1.81,1.1,2.41,1.14c0.59,0.04,1.21,0.05,1.78-0.11C9.91,14.61,10.43,14.45,10.43,14.1
				L10.43,14.1z"/>
		</g>
	</g>
	<g>
		<g>
			<path class="st0" d="M9.12,9.07c0,1.39,0.04,2.78,0,4.16c0.01-0.18,0.01-0.36,0.02-0.54c-0.04,0.3-0.05,0.6-0.06,0.91
				c1.39,0.11,2.78,0.22,4.18,0.33c-0.01-0.03-0.02-0.06-0.03-0.09c0.04,0.19,0.08,0.38,0.12,0.57c-0.06-0.39-0.04-0.81-0.07-1.21
				c-0.03-0.41-0.12-0.81-0.2-1.21c-0.16-0.79-0.32-1.61-0.38-2.41C11.4,9.66,10.1,9.74,8.79,9.82c0.03,0.05,0.06,0.11,0.09,0.17
				C8.8,9.79,8.71,9.6,8.62,9.41c0.2,0.45,0.36,0.9,0.57,1.35c0.14,0.3,0.29,0.59,0.43,0.89c-0.09-0.19-0.17-0.38-0.26-0.57
				c0.2,0.44,0.38,0.89,0.59,1.33c0.2,0.43,0.43,0.84,0.64,1.26c-0.09-0.19-0.17-0.38-0.26-0.57c0.4,0.9,0.83,1.75,1.42,2.54
				c0.16,0.15,0.33,0.3,0.49,0.45c0.24,0.2,0.51,0.34,0.81,0.41c0.36,0.12,0.95,0.25,1.31,0.03c0.39-0.24,0.56-0.3,0.79-0.71
				c0.11-0.19,0.18-0.42,0.21-0.64c0.05-0.31,0.03-0.64,0.04-0.95c-0.01,0.18-0.01,0.36-0.02,0.54c0.02-0.27,0.03-0.56,0.08-0.82
				c-0.46,0.41-0.92,0.83-1.39,1.24c0.01,0,0.01,0,0.02,0c-0.18-0.01-0.36-0.03-0.54-0.04c0.01,0,0.01,0,0.02,0.01
				c-0.36-0.17-0.73-0.34-1.09-0.51c0.01,0,0.01,0.01,0.02,0.01c-0.16-0.15-0.33-0.3-0.49-0.45c0.03,0.02,0.04,0.05,0.07,0.08
				c-0.13-0.18-0.26-0.36-0.39-0.54c0.07,0.11,0.12,0.22,0.18,0.33c-0.09-0.19-0.17-0.38-0.26-0.57c0.25,0.57,0.49,1.15,0.76,1.71
				c-0.09-0.19-0.17-0.38-0.26-0.57c0.14,0.33,0.26,0.66,0.43,0.98c0.27,0.51,0.66,0.91,1.1,1.28c0.51,0.42,1.23,0.63,1.88,0.5
				c0.64-0.14,0.98-0.56,1.14-1.19c0.07-0.27,0.05-0.56,0.05-0.84c-0.01,0.18-0.01,0.36-0.02,0.54c0-0.03,0.01-0.07,0.01-0.1
				c-1,0.23-2.01,0.46-3.01,0.69c0.02,0.02,0.04,0.04,0.07,0.06c-0.16-0.15-0.33-0.3-0.49-0.45c0.02,0.02,0.04,0.05,0.06,0.07
				c-0.13-0.18-0.26-0.36-0.39-0.54c0.07,0.1,0.13,0.21,0.19,0.31c0.32,0.54,0.84,1.05,1.42,1.31c0.44,0.2,1.12,0.34,1.59,0.12
				c1.11-0.52,1.08-1.88,0.52-2.81c-0.33-0.56-0.71-1-1.2-1.43c-0.49-0.43-1.24-0.63-1.88-0.5c-0.57,0.12-1.08,0.57-1.14,1.19
				c-0.02,0.25-0.02,0.5-0.03,0.74c0.01-0.18,0.01-0.36,0.02-0.54c0,0.07-0.01,0.14-0.03,0.2c1-0.23,2.01-0.46,3.01-0.69
				c-0.02-0.01-0.03-0.03-0.05-0.04c0.16,0.15,0.33,0.3,0.49,0.45c-0.02-0.02-0.03-0.03-0.05-0.05c0.13,0.18,0.26,0.36,0.39,0.54
				c-0.06-0.09-0.11-0.17-0.15-0.27c0.09,0.19,0.17,0.38,0.26,0.57c-0.17-0.4-0.35-0.79-0.54-1.18c0.09,0.19,0.17,0.38,0.26,0.57
				c-0.22-0.49-0.4-0.98-0.63-1.46c-0.49-1.03-1.59-2.03-2.8-1.94c-0.73,0.06-1.24,0.53-1.39,1.24c-0.1,0.51-0.09,1.06-0.1,1.57
				c0.01-0.18,0.01-0.36,0.02-0.54c-0.01,0.11-0.01,0.21-0.05,0.31c0.05-0.16,0.11-0.32,0.16-0.48c-0.01,0.02-0.01,0.03-0.02,0.05
				c0.1-0.13,0.2-0.26,0.31-0.39c-0.01,0.01-0.02,0.02-0.03,0.03c0.14-0.09,0.28-0.17,0.42-0.26c-0.01,0.01-0.02,0.01-0.03,0.02
				c0.87,0.3,1.74,0.6,2.62,0.89c-0.02-0.02-0.03-0.04-0.05-0.06c0.13,0.18,0.26,0.36,0.39,0.54c-0.2-0.36-0.39-0.72-0.59-1.08
				c0.09,0.19,0.17,0.38,0.26,0.57c-0.28-0.62-0.62-1.22-0.9-1.84c0.09,0.19,0.17,0.38,0.26,0.57c-0.38-0.84-0.76-1.68-1.14-2.51
				c0.09,0.19,0.17,0.38,0.26,0.57c-0.23-0.5-0.38-1.03-0.66-1.52c-0.28-0.48-0.68-0.87-1.15-1.15c-0.39-0.23-0.89-0.44-1.36-0.39
				C9.47,6.94,9.16,7.05,8.89,7.26C8.49,7.58,8.37,8.2,8.41,8.68c0.06,0.84,0.23,1.7,0.4,2.52c0.08,0.4,0.16,0.8,0.18,1.21
				c0.04,0.61,0.05,1.17,0.21,1.76c0.16,0.57,0.67,1.23,1.15,1.56c0.41,0.29,0.85,0.49,1.36,0.53c0.41,0.03,0.88-0.04,1.19-0.34
				c0.4-0.41,0.47-0.86,0.48-1.41c0-0.03,0-0.06,0-0.1c-0.01,0.18-0.01,0.36-0.02,0.54c0.13-0.85,0.06-1.77,0.06-2.63
				c0-0.78,0-1.57,0-2.35c0-0.57-0.42-1.27-0.78-1.68c-0.38-0.43-1-0.87-1.58-0.96c-0.49-0.08-1.08-0.06-1.46,0.32
				C9.21,8.06,9.12,8.52,9.12,9.07L9.12,9.07z"/>
		</g>
	</g>
	<g>
		<g>
			<path class="st0" d="M21.64,14.39c0-0.01,0-0.03,0-0.04c-0.03,0.16-0.05,0.33-0.08,0.49c0.01-0.04,0.02-0.08,0.04-0.12
				c-0.06,0.13-0.13,0.27-0.19,0.4c0.09-0.19,0.21-0.38,0.27-0.58c0.02-0.08,0.04-0.16,0.08-0.24c-0.06,0.13-0.13,0.27-0.19,0.4
				c0.11-0.22,0.26-0.44,0.32-0.69c0.07-0.27,0.08-0.54,0.11-0.81c-0.03,0.16-0.05,0.33-0.08,0.49c0.05-0.24,0.2-0.46,0.28-0.68
				c0.2-0.53,0.16-1.12,0.08-1.67c0.01,0.19,0.03,0.37,0.04,0.56c0-0.04,0-0.09-0.01-0.13c-0.02-0.32-0.05-0.59-0.13-0.9
				c-0.1-0.37-0.26-0.7-0.44-1.05c0.09,0.2,0.19,0.4,0.28,0.6c0-0.01-0.01-0.03-0.01-0.04c0.07,0.38,0.14,0.77,0.2,1.15
				c0-0.02,0-0.03,0-0.05c-0.03,0.16-0.05,0.33-0.08,0.49c0.04-0.22,0.08-0.45,0.12-0.67c0.01-0.29-0.03-0.58-0.12-0.86
				c-0.07-0.32-0.19-0.62-0.36-0.9c-0.15-0.29-0.35-0.55-0.59-0.77C21,8.58,20.78,8.4,20.52,8.26c-0.38-0.19-0.9-0.37-1.3-0.1
				c-0.1,0.09-0.21,0.19-0.31,0.28C18.73,8.71,18.64,9,18.64,9.33c0,0.02,0,0.03-0.01,0.05c0.03-0.16,0.05-0.33,0.08-0.49
				c-0.26,0.9,0.02,1.78,0.45,2.58c-0.09-0.2-0.19-0.4-0.28-0.6c0,0.01,0.01,0.03,0.01,0.04c-0.05-0.2-0.11-0.4-0.16-0.6
				c0,0.01,0,0.03,0.01,0.04c-0.01-0.19-0.03-0.37-0.04-0.56c0.02,0.29,0.05,0.58,0.08,0.87c-0.01-0.19-0.03-0.37-0.04-0.56
				c0,0.07,0,0.13-0.01,0.2c0.03-0.16,0.05-0.33,0.08-0.49c-0.03,0.21-0.13,0.39-0.22,0.58c-0.04,0.1-0.09,0.19-0.12,0.29
				c-0.08,0.27-0.07,0.52-0.1,0.79c0.03-0.16,0.05-0.33,0.08-0.49c-0.01,0.06-0.03,0.12-0.05,0.18c0.06-0.13,0.13-0.27,0.19-0.4
				c-0.11,0.21-0.22,0.41-0.31,0.63c-0.04,0.09-0.05,0.19-0.09,0.28c0.06-0.13,0.13-0.27,0.19-0.4c-0.22,0.45-0.31,0.62-0.35,1.13
				c-0.01,0.29,0.03,0.58,0.12,0.86c0.07,0.32,0.19,0.62,0.36,0.9c0.15,0.29,0.35,0.55,0.59,0.77c0.19,0.22,0.41,0.4,0.67,0.54
				c0.38,0.19,0.9,0.37,1.3,0.1C21.47,15.29,21.6,14.86,21.64,14.39L21.64,14.39z"/>
		</g>
	</g>
	<g>
		<g>
			<path class="st0" d="M4.35,18.66c0.04,0,0.08,0,0.12,0c-0.63-0.11-1.27-0.22-1.9-0.33c0.04,0.01,0.08,0.02,0.12,0.03
				c-0.35-0.13-0.7-0.25-1.05-0.38c0.27,0.11,0.54,0.23,0.81,0.34c0.07,0.03,0.15,0.06,0.22,0.09c0.26,0.1-0.09-0.01-0.13-0.05
				c0.07,0.1,0.37,0.19,0.49,0.24c0.15,0.07,0.31,0.14,0.47,0.2c0.27,0.12,0.55,0.23,0.83,0.32c0.27,0.08-0.07,0-0.12-0.06
				c0.04,0.05,0.16,0.09,0.22,0.12c0.19,0.1,0.39,0.17,0.59,0.25c0.26,0.1-0.06-0.02-0.14-0.07c0.25,0.15,0.61,0.28,0.85,0.36
				c0.08,0.03,0.16,0.06,0.25,0.08c0.25,0.07-0.34-0.15-0.1-0.04c0.14,0.06,0.28,0.12,0.42,0.18c0.28,0.11,0.32,0.13,0.12,0.05
				c-0.14-0.06-0.15-0.07-0.06-0.02c0.15,0.08,0.31,0.16,0.46,0.23c0.14,0.06,0.28,0.12,0.41,0.18c0.05,0.02,0.74,0.32,0.1,0.03
				c-0.54-0.24-0.04,0.04,0.1,0.14c0.11,0.08,0.22,0.14,0.33,0.2c0.23,0.13,0.24,0.13,0.02,0.01c-0.16-0.12-0.2-0.14-0.12-0.05
				c0.05,0.14,0.23,0.31,0.32,0.44c0.11,0.16,0.2,0.32,0.26,0.5c-0.02-0.06-0.04-0.12-0.05-0.18c0.06,0.24,0.08,0.47,0.09,0.72
				c0,0.28,0.44,0.48,0.63,0.57c0.52,0.25,1.13,0.43,1.69,0.54c0.57,0.11,1.18,0.22,1.77,0.18c0.16-0.01,0.81-0.01,0.81-0.28
				c-0.01-0.45-0.09-0.9-0.33-1.28c-0.12-0.19-0.26-0.37-0.4-0.56c-0.09-0.12-0.2-0.24-0.32-0.33c-0.09-0.06-0.18-0.12-0.27-0.16
				c-0.23-0.13-0.24-0.13-0.03-0.02c-0.02,0.01-0.46-0.32-0.5-0.35c-0.23-0.14-0.46-0.25-0.7-0.36c-0.12-0.05-0.23-0.1-0.35-0.14
				c0.08,0.03,0.16,0.07,0.24,0.1c0,0-0.53-0.26-0.58-0.28c-0.12-0.05-0.24-0.1-0.36-0.15c-0.31-0.13-0.32-0.13-0.01-0.01
				c-0.11,0.01-0.41-0.18-0.48-0.21c-0.16-0.07-0.32-0.14-0.49-0.2c-0.36-0.12,0.29,0.15,0.07,0.05c-0.09-0.04-0.18-0.08-0.27-0.12
				c-0.17-0.08-0.35-0.15-0.53-0.22C7.78,18.93,7.8,18.94,7.94,19c0.3,0.11-0.03-0.03-0.09-0.07c-0.23-0.11-0.47-0.21-0.71-0.29
				c-0.1-0.04-0.2-0.07-0.3-0.1c-0.24-0.06,0.46,0.2,0.07,0.03c-0.52-0.23-1.02-0.47-1.55-0.68c-0.11-0.04-0.52-0.21,0.03,0.02
				c-0.29-0.12-0.58-0.24-0.88-0.34c-0.78-0.25-1.6-0.43-2.42-0.46c-0.27-0.01-0.94-0.07-1.2,0.13c-0.24,0.18-0.04,0.39,0.15,0.51
				c0.41,0.28,0.93,0.45,1.41,0.58C3.06,18.5,3.71,18.64,4.35,18.66L4.35,18.66z"/>
		</g>
	</g>
	<g>
		<g>
			<path class="st0" d="M0.96,12.12c0.04-0.6-0.03,0.34-0.04,0.5c-0.01,0.22-0.04,0.43-0.05,0.65c0.03-0.15,0.03-0.17,0-0.05
				c-0.04,0.17-0.08,0.33-0.1,0.5c-0.03,0.22-0.06,0.44-0.07,0.66c-0.06,0.89-0.05,1.84,0.09,2.72c0.08,0.48,0.01-0.22,0.04,0.21
				c0.02,0.23,0.03,0.45,0.04,0.68c0.01,0.38-0.01,0.76,0,1.13c0,0.21,0.02,0.43,0.06,0.64c0.03,0.19,0.03,0.16,0-0.09
				c0.05,0.08-0.01,0.37,0,0.46c0.01,0.31,0.08,0.62,0.1,0.94c-0.03-0.46-0.01,0.23-0.01,0.31C1,22.54,1.98,23.75,2.99,24.22
				c0.78,0.36,2.07,0.46,2.07-0.75c0-0.22,0-0.43-0.02-0.65C5.03,22.61,5,22.4,4.97,22.19c0.02,0.24,0.03,0.25,0.01,0.04
				c0-0.15,0.01-0.31,0-0.46c-0.01-0.22-0.03-0.43-0.06-0.64c-0.04-0.19-0.03-0.16,0.01,0.09c-0.06-0.07,0.01-0.52,0.01-0.62
				c0-0.17,0-0.34-0.01-0.51c-0.01-0.53-0.06-1.06-0.14-1.58c-0.01-0.07-0.02-0.14-0.03-0.22c-0.03-0.21-0.03-0.19,0,0.06
				c-0.07-0.18,0-0.51,0-0.7c0-0.39-0.01-0.78,0.01-1.17c0-0.06,0.07-0.67,0.03-0.39c0.03-0.24,0.11-0.48,0.13-0.72
				c0.02-0.21,0.06-0.45,0.05-0.65c0.01-0.2-0.01-0.18-0.04,0.04c0.05-0.18,0.08-0.36,0.09-0.54C5.1,13.07,4,11.82,3.04,11.37
				C2.2,10.98,1.05,10.93,0.96,12.12L0.96,12.12z"/>
		</g>
	</g>
	<g>
		<g>
			<path class="st0" d="M0.97,14.99c0.19,0.1,0.63-0.25,0.79-0.33c0.16-0.09,0.32-0.16,0.48-0.04c0.12,0.09,0.28,0.29,0.35,0.42
				c0.23,0.4,0.37,0.88,0.54,1.31c0.16,0.4,0.34,0.79,0.52,1.18c0.16,0.36,0.36,0.75,0.56,1.09c0.11,0.18,0.25,0.33,0.34,0.52
				c0.08,0.19,0.19,0.31,0.33,0.47c0.17,0.19,0.34,0.21,0.56,0.3c0.22,0.09,0.42,0.2,0.63,0.3c0.46,0.22,0.92,0.36,1.43,0.36
				c0.03,0,0.04-5,0-5c-0.51,0-0.98-0.15-1.43-0.36c-0.21-0.1-0.41-0.21-0.63-0.3c-0.2-0.08-0.38-0.1-0.54-0.26
				c-0.13-0.14-0.27-0.28-0.34-0.46c-0.09-0.22-0.23-0.36-0.35-0.56c-0.2-0.34-0.39-0.73-0.56-1.09c-0.18-0.39-0.36-0.78-0.52-1.18
				c-0.17-0.42-0.31-0.87-0.52-1.27C2.53,9.93,2.37,9.71,2.23,9.61C2.07,9.49,1.91,9.56,1.75,9.65c-0.15,0.09-0.6,0.43-0.79,0.33
				c0.01,0.01-0.02,0.84-0.02,0.73c-0.01,0.59-0.01,1.18-0.01,1.77c0,0.59,0,1.18,0.01,1.77C0.95,14.35,0.91,14.95,0.97,14.99
				L0.97,14.99z"/>
		</g>
	</g>
	<g>
		<g>
			<path class="st0" d="M5.65,15.35c0.33,0.17,0.9,0.02,1.26-0.01c0.47-0.05,0.93-0.09,1.4-0.08c1.06,0.03,2.08,0.32,3.11,0.54
				c0.94,0.2,1.86,0.34,2.81,0.46c0.85,0.11,1.96,0.3,2.66,0.8c-0.02-0.01,0.02-0.83,0.02-0.73c0.01-0.59,0.01-1.18,0.01-1.77
				c0-0.59,0-1.18-0.01-1.77c0-0.11,0.05-0.68-0.02-0.73c-0.7-0.5-1.82-0.69-2.66-0.8c-0.95-0.12-1.87-0.26-2.81-0.46
				c-1.03-0.22-2.05-0.51-3.11-0.54c-0.47-0.01-0.93,0.03-1.4,0.08c-0.36,0.03-0.93,0.18-1.26,0.01c0.01,0.01-0.02,0.84-0.02,0.73
				c-0.01,0.59-0.01,1.18-0.01,1.77c0,0.59,0,1.18,0.01,1.77C5.63,14.71,5.59,15.32,5.65,15.35L5.65,15.35z"/>
		</g>
	</g>
	<g>
		<g>
			<path class="st0" d="M12.21,13.14c0.01,0.11,0.02,0.19,0.09,0.27c0.06,0.07,0.13,0.14,0.2,0.2c0.16,0.14,0.3,0.27,0.48,0.38
				c0.4,0.24,0.76,0.56,1.18,0.77c0.01-0.07,0.01-0.14,0.01-0.22c0-0.17,0.01-0.34,0.01-0.52c0.01-0.59,0.01-1.18,0.01-1.77
				c0-0.59,0-1.18-0.01-1.77c0-0.13,0-0.26-0.01-0.39c0-0.11,0-0.23-0.01-0.34C13.74,9.55,13.39,9.24,13,9.01
				c-0.09-0.06-0.19-0.11-0.27-0.18c-0.07-0.05-0.13-0.12-0.19-0.18c-0.12-0.11-0.29-0.22-0.31-0.39c0,0.03,0,0.06,0.01,0.09
				c0-0.01,0-0.01,0-0.02c0-0.1-0.01-0.12-0.01-0.04c-0.01,0.1-0.01,0.2-0.01,0.3c-0.01,0.5-0.01,1-0.01,1.49c0,0.64,0,1.28,0,1.93
				C12.2,12.38,12.19,12.76,12.21,13.14L12.21,13.14z"/>
		</g>
	</g>
	<g>
		<g>
			<path class="st0" d="M7,9.9C7.27,9.9,7.59,9.48,7.74,9.28c0.17-0.22,0.36-0.42,0.53-0.64c0.2-0.27,0.37-0.56,0.55-0.83
				C8.99,7.56,9.19,7.29,9.25,7c0.07-0.34,0.03-0.72,0.03-1.07c0.01-1.01,0.01-2.02,0-3.03c0-0.3,0-0.6-0.01-0.9
				c0-0.05,0.02-0.17-0.02-0.21C9.18,1.72,9.11,1.91,9.06,1.99C8.91,2.25,8.69,2.49,8.5,2.73C8.45,2.79,8.4,2.94,8.32,2.97
				c-0.15,0.05-0.16-0.2-0.17-0.33c0,1.55,0.01,3.11,0.01,4.66c0-0.03,0-0.07,0-0.1c0,0.11-0.01,0.23-0.01,0.34
				C8.2,7.12,8.39,6.71,8.66,6.38c0.28-0.33,0.7-0.39,1.11-0.46c0.5-0.09,0.77,0.14,1.17,0.39c0.38,0.23,0.64,0.5,0.92,0.84
				c0.58,0.69,0.85,1.55,1.08,2.41c0.13,0.46,0.23,0.92,0.36,1.37c0.07,0.25,0.14,0.5,0.2,0.75c0.06,0.23,0.16,0.43,0.23,0.65
				c-0.05-0.15,0.02-0.63,0.02-0.73c0.01-0.59,0.01-1.18,0.01-1.77c0-0.59,0-1.18-0.01-1.77c0-0.22,0.05-0.52-0.02-0.73
				c-0.07-0.22-0.17-0.42-0.23-0.65c-0.07-0.27-0.14-0.54-0.22-0.81c-0.15-0.51-0.25-1.04-0.41-1.54c-0.15-0.45-0.26-0.94-0.47-1.36
				c-0.21-0.44-0.53-0.8-0.85-1.17c-0.28-0.32-0.68-0.56-1.05-0.77c-0.4-0.23-1-0.14-1.41,0.04C8.67,1.25,8.4,1.67,8.25,2.11
				c-0.08,0.21-0.1,0.43-0.11,0.65C8.11,3.88,8.12,4.99,8.13,6.11c0,0.48-0.01,0.97,0.02,1.45c0.01,0.11,0.01,0.22,0.05,0.32
				c0.1,0.27,0.21-0.03,0.31-0.15c0.14-0.18,0.27-0.38,0.42-0.55c0.07-0.09,0.12-0.16,0.17-0.25c0.04-0.08,0.13-0.23,0.17-0.08
				c0-0.03,0-0.06-0.01-0.09c0,0.03,0,0.05,0,0.08c0-1.64,0-3.27,0.01-4.91c-0.04,0.3-0.22,0.55-0.38,0.79C8.7,3,8.51,3.32,8.3,3.6
				C8.14,3.83,7.94,4.02,7.77,4.24C7.62,4.44,7.28,4.9,7,4.9C6.93,4.9,6.99,9.9,7,9.9L7,9.9z"/>
		</g>
	</g>
	<g>
		<g>
			<path class="st0" d="M18.2,11.47c-0.04,0.04-0.09,0.07-0.14,0.11c-0.04,0.03-0.08,0.09-0.09,0.03c0,0.03,0,0.06,0.01,0.09
				c0-0.01,0-0.02,0-0.03c0,1.64,0,3.27-0.01,4.91c0.02-0.2,0.2-0.37,0.33-0.5c0.18-0.18,0.34-0.39,0.51-0.58
				c0.38-0.42,0.64-0.94,0.86-1.46c0.06-0.15,0.07-0.31,0.12-0.47c0.04-0.13,0.11-0.25,0.16-0.38c0.02-0.07,0.02-0.19,0.09-0.23
				c0.09-0.06,0.18,0.06,0.22,0.12c0.07,0.1,0.11,0.22,0.17,0.33c0.07,0.14,0.14,0.27,0.22,0.41c0.14,0.26,0.24,0.53,0.3,0.82
				c0.01-0.07,0.01-0.14,0.01-0.22c0-0.17,0.01-0.34,0.01-0.52c0.01-0.59,0.01-1.18,0.01-1.77c0-0.59,0-1.18-0.01-1.77
				c0-0.24,0.03-0.5-0.02-0.73c-0.1-0.51-0.38-0.97-0.61-1.43C20.28,8.09,20.1,7.8,20,8.02c-0.04,0.08-0.05,0.18-0.08,0.26
				c-0.05,0.13-0.11,0.25-0.14,0.38c-0.23,1-0.88,1.77-1.56,2.51c-0.07,0.08-0.15,0.16-0.2,0.26c-0.02,0.04-0.03,0.08-0.04,0.13
				c-0.04,0.24-0.02,0.51-0.02,0.75c-0.01,1.35-0.02,2.7,0.01,4.05c0,0.01-0.01,0.27,0.02,0.28c0.02,0.01,0.2-0.15,0.22-0.17
				c0.05-0.04,0.02-0.79,0.02-0.73c0.01-0.59,0.01-1.18,0.01-1.77c0-0.59,0-1.18-0.01-1.77c0-0.13,0-0.26-0.01-0.39
				C18.22,11.7,18.21,11.59,18.2,11.47L18.2,11.47z"/>
		</g>
	</g>
	<g>
		<g>
			<path class="st0" d="M18.7,9.85c-0.06,0.1-0.15,0.18-0.23,0.28c-0.08,0.1-0.14,0.2-0.2,0.3c-0.06,0.11-0.12,0.22-0.17,0.33
				c-0.03,0.06-0.05,0.11-0.09,0.17c-0.03,0.05-0.05,0.12-0.06,0.03c0,1.55,0.01,3.11,0.01,4.66c0-0.01,0-0.02,0-0.03
				c0,0.11-0.01,0.23-0.01,0.34c0.02-0.13,0.09-0.23,0.15-0.34c0.08-0.15,0.16-0.3,0.23-0.45c0.14-0.32,0.33-0.64,0.54-0.92
				c0.17-0.24,0.41-0.53,0.68-0.66c0.13-0.07,0.27-0.11,0.4-0.18c0.15-0.08,0.34-0.05,0.51-0.05c0.02,0,0.05-5,0-5
				c-0.1,0-0.21-0.01-0.31,0c-0.1,0-0.16,0.03-0.24,0.08c-0.16,0.09-0.35,0.13-0.5,0.25c-0.31,0.25-0.54,0.55-0.75,0.88
				c-0.22,0.34-0.37,0.72-0.57,1.07c-0.04,0.07-0.08,0.13-0.1,0.2c-0.06,0.15-0.05,0.33-0.05,0.49c-0.02,1.14-0.02,2.29-0.01,3.44
				c0,0.38-0.01,0.77,0.01,1.15c0,0.03,0,0.07,0.01,0.1c0.01,0.04-0.01,0.04,0.02,0.02c0.03-0.02,0.06-0.11,0.08-0.14
				c0.03-0.06,0.05-0.11,0.08-0.17c0.05-0.1,0.1-0.19,0.16-0.28c0.06-0.09,0.11-0.18,0.18-0.27c0.08-0.09,0.16-0.17,0.23-0.28
				c0.01-0.07,0.01-0.14,0.01-0.22c0-0.17,0.01-0.34,0.01-0.52c0.01-0.59,0.01-1.18,0.01-1.77c0-0.59,0-1.18-0.01-1.77
				c0-0.13,0-0.26-0.01-0.39C18.71,10.08,18.71,9.97,18.7,9.85L18.7,9.85z"/>
		</g>
	</g>
	<g>
		<g>
			<path class="st0" d="M3.44,21.83c0.68,0.77,1.66,0.95,2.6,1.22c1.12,0.33,2.28,0.6,3.43,0.8c2.59,0.45,5.21,0.63,7.83,0.63
				c0.04,0,0.04-5,0-5c-2.62,0-5.25-0.18-7.83-0.63c-1.15-0.2-2.31-0.47-3.43-0.8c-0.94-0.28-1.92-0.45-2.6-1.22
				c0.03,0.04-0.02,0.79-0.02,0.73c-0.01,0.59-0.01,1.18-0.01,1.77c0,0.59,0,1.18,0.01,1.77C3.43,21.24,3.36,21.73,3.44,21.83
				L3.44,21.83z"/>
		</g>
	</g>
</g>
<g id="Camada_1">
	<g>
		<g>
			<path d="M1.09,8.75C1.02,9.18,0.84,9.56,0.75,9.98c-0.09,0.45-0.11,0.92-0.19,1.37c-0.17,0.98-0.32,1.97-0.46,2.95
				c-0.12,0.89,0,1.82,0,2.71c0,0.92-0.05,1.86,0,2.78c0.05,0.81,0.31,1.54,0.48,2.32c0.2,0.89,0.45,1.71,0.9,2.51
				c0.78,1.36,2.16,2.59,3.6,3.2c1,0.42,2.12,0.55,3.17,0.79c1.08,0.24,2.16,0.34,3.26,0.34c0.64,0,0.64-1,0-1
				c-1.23-0.01-2.36-0.18-3.55-0.43c-1.04-0.22-2.1-0.36-3.04-0.9c-0.89-0.51-1.78-1.28-2.36-2.14c-0.59-0.87-0.85-1.82-1.07-2.84
				c-0.1-0.45-0.25-0.86-0.31-1.31c-0.07-0.51-0.09-1-0.09-1.51c0-1.12,0-2.23-0.04-3.35c-0.04-1.09,0.19-2.2,0.36-3.28
				c0.08-0.48,0.16-0.96,0.22-1.45c0.07-0.6,0.31-1.14,0.4-1.72C2.15,8.39,1.19,8.12,1.09,8.75L1.09,8.75z"/>
		</g>
	</g>
	<g>
		<g>
			<path d="M1.21,8.66c0.07,0.52,0.53,0.82,0.85,1.18c0.16,0.18,0.27,0.46,0.41,0.68c0.08,0.13,0.19,0.25,0.27,0.38
				c0.09,0.13,0.15,0.28,0.23,0.41c0.16,0.27,0.41,0.43,0.6,0.67c0.2,0.25,0.38,0.54,0.57,0.81c0.18,0.26,0.32,0.56,0.51,0.82
				c0.1,0.14,0.37,0.29,0.39,0.45c0.04,0.27,0.38,0.41,0.62,0.35c0.29-0.08,0.39-0.35,0.35-0.62c-0.04-0.27-0.23-0.47-0.43-0.65
				c-0.2-0.18-0.31-0.42-0.45-0.66c-0.17-0.28-0.38-0.54-0.56-0.82c-0.1-0.14-0.19-0.29-0.31-0.42c-0.11-0.12-0.24-0.21-0.35-0.33
				c-0.19-0.21-0.29-0.51-0.47-0.74c-0.18-0.24-0.3-0.52-0.47-0.77C2.85,9.21,2.67,9.04,2.49,8.87C2.34,8.72,2.2,8.6,2.17,8.39
				C2.13,8.13,1.79,7.98,1.55,8.05C1.27,8.12,1.17,8.39,1.21,8.66L1.21,8.66z"/>
		</g>
	</g>
	<g>
		<g>
			<path d="M6.02,14.36c0.61-0.4,1.59-0.27,2.29-0.46c0.81-0.21,1.68-0.14,2.51-0.22c1.9-0.19,3.84-0.09,5.75-0.09
				c0.64,0,0.64-1,0-1c-1.07,0-2.13,0.01-3.2,0.01c-0.5,0-1-0.02-1.49-0.01c-0.49,0.01-0.97,0.1-1.45,0.12
				c-0.86,0.03-1.7,0.08-2.54,0.28c-0.78,0.19-1.68,0.05-2.38,0.51C4.98,13.85,5.48,14.71,6.02,14.36L6.02,14.36z"/>
		</g>
	</g>
	<g>
		<g>
			<path d="M17.28,13.44c0.4-0.35,0.6-0.83,0.84-1.3c0.28-0.56,0.57-1.11,0.85-1.67c0.27-0.56,0.51-1.15,0.82-1.69
				c0.14-0.25,0.32-0.47,0.46-0.72c0.13-0.21,0.2-0.45,0.4-0.61c0.49-0.42-0.22-1.12-0.71-0.71c-0.2,0.17-0.33,0.39-0.45,0.63
				c-0.13,0.24-0.29,0.46-0.44,0.69c-0.34,0.53-0.57,1.13-0.85,1.7c-0.27,0.56-0.55,1.13-0.84,1.68c-0.24,0.44-0.4,0.96-0.79,1.3
				C16.09,13.16,16.8,13.86,17.28,13.44L17.28,13.44z"/>
		</g>
	</g>
	<g>
		<g>
			<path d="M19.91,7.33c-0.01,0.53,0.18,1,0.4,1.47c0.29,0.6,0.54,1.22,0.79,1.84c0.25,0.63,0.36,1.29,0.6,1.92
				c0.22,0.57,0.33,1.16,0.56,1.73c0.25,0.62,0.27,1.29,0.4,1.94c0.12,0.62,0.17,1.23,0.26,1.85c0.19,1.28,0.33,2.59,0.34,3.89
				c0,0.64,1,0.64,1,0c-0.01-1.24-0.11-2.52-0.3-3.74c-0.2-1.26-0.27-2.59-0.6-3.82c-0.07-0.27-0.21-0.52-0.3-0.79
				c-0.09-0.27-0.09-0.55-0.18-0.82c-0.1-0.31-0.26-0.59-0.34-0.91c-0.08-0.33-0.14-0.64-0.26-0.96c-0.24-0.64-0.5-1.29-0.78-1.92
				c-0.23-0.53-0.62-1.07-0.6-1.67C20.92,6.68,19.92,6.68,19.91,7.33L19.91,7.33z"/>
		</g>
	</g>
	<g>
		<g>
			<path d="M11.29,28.95c0.85,0,1.71-0.01,2.56,0c0.75,0.01,1.5,0.07,2.25-0.02c0.38-0.05,0.76-0.07,1.14-0.12
				c0.36-0.05,0.67-0.18,1.01-0.29c0.35-0.11,0.72-0.15,1.07-0.26c0.34-0.11,0.64-0.34,0.99-0.41c0.63-0.12,0.36-1.08-0.27-0.96
				c-0.31,0.06-0.55,0.24-0.84,0.36c-0.34,0.14-0.73,0.17-1.08,0.26c-0.33,0.09-0.65,0.25-0.99,0.31c-0.38,0.06-0.77,0.07-1.15,0.12
				c-0.76,0.1-1.53,0.01-2.29,0.01c-0.8-0.01-1.6,0-2.4,0C10.64,27.95,10.64,28.95,11.29,28.95L11.29,28.95z"/>
		</g>
	</g>
	<g>
		<g>
			<path d="M19.69,27.99c0.2-0.02,0.37-0.08,0.54-0.19c0.12-0.08,0.23-0.18,0.36-0.25c0.31-0.16,0.65-0.27,0.94-0.47
				c0.28-0.19,0.5-0.44,0.74-0.68c0.03-0.03,0.07-0.06,0.1-0.1c-0.04,0.03-0.02,0.01,0.01-0.01c0.09-0.07,0.19-0.13,0.27-0.21
				c0.07-0.07,0.14-0.16,0.19-0.25c0.02-0.03,0.04-0.07,0.06-0.1c0.01-0.02,0.09-0.12,0.03-0.06c0.17-0.2,0.21-0.51,0-0.71
				c-0.19-0.17-0.53-0.21-0.71,0c-0.07,0.08-0.13,0.17-0.19,0.26c-0.02,0.03-0.03,0.06-0.05,0.08c0,0-0.07,0.1-0.04,0.07
				c0.03-0.04-0.06,0.05-0.06,0.05c0.04-0.03,0.02-0.01-0.01,0.01c-0.08,0.06-0.17,0.12-0.25,0.19c-0.11,0.1-0.21,0.21-0.31,0.31
				c-0.05,0.05-0.09,0.1-0.14,0.14c-0.03,0.03-0.06,0.05-0.08,0.08c-0.01,0.01-0.09,0.07-0.03,0.02c-0.26,0.18-0.56,0.3-0.84,0.43
				c-0.13,0.06-0.25,0.13-0.36,0.21c-0.06,0.04-0.11,0.09-0.17,0.13c-0.02,0.01-0.05,0.03-0.07,0.04c0.05-0.02,0.06-0.02,0.03-0.01
				c-0.04,0.01-0.02,0.01,0.04,0c-0.26,0.03-0.51,0.21-0.5,0.5C19.2,27.73,19.41,28.02,19.69,27.99L19.69,27.99z"/>
		</g>
	</g>
	<g>
		<g>
			<path d="M23.31,25.33c-0.01-0.06-0.01-0.02-0.02,0.02c0-0.03,0.01-0.06,0.02-0.08c-0.02,0.05-0.01,0.03,0.01-0.01
				c0.02-0.03,0.03-0.06,0.05-0.09c0.06-0.11,0.14-0.21,0.2-0.33c0.09-0.16,0.14-0.34,0.21-0.51c0.03-0.09,0.14-0.24,0.2-0.37
				c0.07-0.16,0.16-0.34,0.2-0.52c0.05-0.2,0.01-0.39,0.03-0.59c0,0,0.02-0.12,0.03-0.16c0.02-0.11,0.03-0.23,0.04-0.34
				c0.01-0.19,0-0.38,0-0.57c0-0.27-0.23-0.5-0.5-0.5c-0.27,0-0.5,0.23-0.5,0.5c0,0.18,0,0.36,0,0.54c0,0.1,0,0.11-0.02,0.2
				c-0.02,0.1-0.03,0.21-0.04,0.31c-0.02,0.16,0.02,0.31-0.03,0.44c-0.06,0.15-0.1,0.25-0.18,0.39c-0.16,0.26-0.21,0.55-0.37,0.79
				c-0.16,0.26-0.36,0.55-0.32,0.87c0.03,0.27,0.21,0.5,0.5,0.5C23.06,25.83,23.34,25.6,23.31,25.33L23.31,25.33z"/>
		</g>
	</g>
	<g>
		<g>
			<path d="M5.23,21.09c0.03,0,0.06,0,0.09,0c-0.04-0.01-0.09-0.01-0.13-0.02c0.12,0.02,0.22,0.08,0.34,0.1
				c0.16,0.03,0.32,0.04,0.48,0.04c0.13,0,0.26-0.05,0.35-0.15c0.09-0.09,0.15-0.23,0.15-0.35c-0.01-0.13-0.05-0.26-0.15-0.35
				c-0.1-0.09-0.22-0.15-0.35-0.15c-0.1,0-0.19,0-0.29-0.01c0.04,0.01,0.09,0.01,0.13,0.02c-0.09-0.01-0.17-0.04-0.26-0.07
				c-0.04-0.01-0.08-0.03-0.12-0.04c-0.08-0.02-0.17-0.03-0.25-0.02c-0.07,0-0.13,0.01-0.19,0.04c-0.06,0.02-0.12,0.05-0.16,0.1
				c-0.09,0.09-0.15,0.23-0.15,0.35c0.01,0.13,0.05,0.26,0.15,0.35C4.97,21.02,5.1,21.1,5.23,21.09L5.23,21.09z"/>
		</g>
	</g>
	<g>
		<g>
			<path d="M17.88,20.46c0,0,0.01-0.01,0.01-0.01c-0.03,0.03-0.07,0.05-0.1,0.08c0.02-0.02,0.04-0.03,0.07-0.04
				c-0.04,0.02-0.08,0.03-0.12,0.05c0.1-0.04,0.2-0.05,0.3-0.09c0.09-0.03,0.16-0.07,0.24-0.12c0.05-0.03,0.1-0.06,0.15-0.08
				c-0.04,0.02-0.08,0.03-0.12,0.05c0.02-0.01,0.04-0.02,0.07-0.02c-0.04,0.01-0.09,0.01-0.13,0.02c0,0,0.01,0,0.01,0
				c0.07,0,0.13-0.01,0.19-0.04c0.06-0.02,0.12-0.05,0.16-0.1c0.09-0.09,0.15-0.23,0.15-0.35c-0.01-0.13-0.05-0.26-0.15-0.35
				c-0.09-0.08-0.22-0.16-0.35-0.15c-0.07,0.01-0.14,0.01-0.21,0.04c-0.07,0.03-0.14,0.06-0.21,0.09c-0.06,0.03-0.11,0.07-0.18,0.1
				c0.04-0.02,0.08-0.03,0.12-0.05c-0.07,0.03-0.14,0.04-0.21,0.06c-0.15,0.04-0.28,0.1-0.39,0.21c-0.05,0.05-0.08,0.1-0.1,0.16
				c-0.03,0.06-0.05,0.12-0.04,0.19c0,0.12,0.05,0.27,0.15,0.35c0.1,0.09,0.22,0.15,0.35,0.15C17.66,20.6,17.78,20.55,17.88,20.46
				L17.88,20.46z"/>
		</g>
	</g>
	<g>
		<g>
			<path d="M11.41,23.28c0.01,0.01,0.01,0.01,0.01,0.02c-0.03-0.03-0.05-0.07-0.08-0.1c0.01,0.01,0.02,0.03,0.03,0.05
				c-0.02-0.04-0.03-0.08-0.05-0.12c0.01,0.02,0.01,0.04,0.02,0.06c0.02,0.06,0.04,0.12,0.07,0.18c0.05,0.11,0.15,0.2,0.26,0.27
				c0.05,0.03,0.11,0.05,0.17,0.07c0.06,0.02,0.13,0.03,0.2,0.03c0.02,0,0.04,0,0.07,0c0.06-0.01,0.13-0.01,0.19-0.03
				c0.07-0.03,0.15-0.06,0.21-0.1c0.07-0.05,0.13-0.09,0.18-0.16c0.05-0.06,0.1-0.12,0.14-0.2c0.02-0.04,0.05-0.11,0.07-0.17
				c0.01-0.05,0.02-0.1,0.02-0.15c0-0.01,0-0.02,0-0.03c0-0.03-0.01-0.06-0.01-0.09c0-0.03-0.01-0.06-0.01-0.08
				c-0.01-0.05-0.04-0.09-0.06-0.14c0-0.01-0.01-0.02-0.01-0.03c-0.02-0.04-0.06-0.08-0.09-0.11c-0.01-0.01-0.01-0.01-0.02-0.02
				c-0.04-0.03-0.08-0.07-0.12-0.09c-0.14-0.07-0.27-0.09-0.42-0.11c-0.08-0.01-0.16-0.01-0.23,0c-0.15,0.01-0.28,0.03-0.42,0.1
				c-0.01,0-0.01,0.01-0.02,0.01c-0.04,0.03-0.08,0.06-0.12,0.09c-0.01,0.01-0.02,0.02-0.02,0.03c-0.03,0.04-0.07,0.08-0.09,0.12
				c-0.03,0.05-0.06,0.12-0.08,0.18c-0.01,0.02-0.01,0.05-0.02,0.07c-0.01,0.06-0.02,0.13-0.02,0.19c0.01,0.11,0.03,0.2,0.08,0.29
				c0.04,0.07,0.1,0.13,0.16,0.19c-0.03-0.03-0.05-0.07-0.08-0.1c0.01,0.01,0.01,0.02,0.02,0.03c-0.02-0.04-0.03-0.08-0.05-0.12
				c0,0.01,0,0.02,0.01,0.02c-0.01-0.04-0.01-0.09-0.02-0.13c0,0.01,0,0.01,0,0.02c0,0.13,0.05,0.26,0.15,0.35
				c0.05,0.05,0.1,0.08,0.16,0.1c0.06,0.03,0.12,0.05,0.19,0.04c0.13-0.01,0.26-0.05,0.35-0.15c0.09-0.1,0.15-0.22,0.15-0.35
				c0-0.05-0.01-0.1-0.02-0.15c0-0.01,0-0.02-0.01-0.02c-0.03-0.1-0.05-0.13-0.11-0.2c-0.03-0.04-0.07-0.08-0.1-0.12
				c0.03,0.03,0.05,0.07,0.08,0.1c-0.01-0.01-0.01-0.02-0.02-0.03c0.02,0.04,0.03,0.08,0.05,0.12c0-0.01-0.01-0.02-0.01-0.03
				c0.01,0.04,0.01,0.09,0.02,0.13c0-0.02,0-0.04,0-0.06c-0.01,0.04-0.01,0.09-0.02,0.13c0-0.03,0.01-0.06,0.02-0.08
				c-0.02,0.04-0.03,0.08-0.05,0.12c0.01-0.02,0.02-0.05,0.04-0.07c-0.03,0.03-0.05,0.07-0.08,0.1c0.01-0.01,0.02-0.03,0.04-0.04
				c-0.03,0.03-0.07,0.05-0.1,0.08c0.01-0.01,0.02-0.01,0.03-0.02c-0.04,0.02-0.08,0.03-0.12,0.05c0.03-0.01,0.07-0.02,0.11-0.03
				c-0.04,0.01-0.09,0.01-0.13,0.02c0.11-0.01,0.22-0.01,0.32,0c-0.04-0.01-0.09-0.01-0.13-0.02c0.04,0.01,0.08,0.01,0.12,0.03
				c-0.04-0.02-0.08-0.03-0.12-0.05c0.01,0,0.02,0.01,0.03,0.02c-0.03-0.03-0.07-0.05-0.1-0.08c0.01,0.01,0.02,0.02,0.03,0.03
				c-0.03-0.03-0.05-0.07-0.08-0.1c0.01,0.01,0.01,0.02,0.02,0.03c-0.02-0.04-0.03-0.08-0.05-0.12c0,0.01,0.01,0.02,0.01,0.04
				c-0.01-0.04-0.01-0.09-0.02-0.13c0,0.02,0,0.04,0,0.05c0.01-0.04,0.01-0.09,0.02-0.13c0,0.02-0.01,0.04-0.02,0.06
				c0.02-0.04,0.03-0.08,0.05-0.12c-0.01,0.03-0.03,0.06-0.05,0.09c0.03-0.03,0.05-0.07,0.08-0.1c-0.02,0.03-0.05,0.06-0.08,0.08
				c0.03-0.03,0.07-0.05,0.1-0.08c-0.02,0.02-0.05,0.03-0.08,0.05c0.04-0.02,0.08-0.03,0.12-0.05c-0.02,0.01-0.05,0.02-0.08,0.02
				c0.04-0.01,0.09-0.01,0.13-0.02c-0.03,0-0.05,0-0.08,0c0.04,0.01,0.09,0.01,0.13,0.02c-0.02,0-0.05-0.01-0.07-0.02
				c0.04,0.02,0.08,0.03,0.12,0.05c-0.02-0.01-0.03-0.02-0.05-0.03c0.03,0.03,0.07,0.05,0.1,0.08c-0.01-0.01-0.02-0.02-0.04-0.04
				c0.03,0.03,0.05,0.07,0.08,0.1c-0.01-0.01-0.02-0.03-0.03-0.05c0.02,0.04,0.03,0.08,0.05,0.12c-0.01-0.03-0.02-0.07-0.03-0.1
				c-0.05-0.12-0.09-0.2-0.18-0.3c-0.09-0.09-0.23-0.15-0.35-0.15c-0.12,0-0.27,0.05-0.35,0.15c-0.09,0.1-0.15,0.22-0.15,0.35
				C11.27,23.06,11.32,23.18,11.41,23.28L11.41,23.28z"/>
		</g>
	</g>
	<g>
		<g>
			<path d="M5.61,13.57c0.03-0.42,0.17-0.88,0.26-1.29c0.11-0.52,0.16-1.04,0.25-1.56c0.15-0.85,0.28-1.77,0.53-2.59
				c0.3-0.96,0.46-1.96,0.79-2.92c0.3-0.85,0.57-1.8,1.01-2.59c0.41-0.75,0.93-1.93,1.99-1.53c0.81,0.31,1.41,1.02,1.88,1.71
				c0.48,0.7,0.73,1.55,1.08,2.32c0.35,0.77,0.79,1.52,1.09,2.31c0.65,1.75,1.54,3.39,2.21,5.13c0.23,0.6,1.19,0.34,0.96-0.27
				c-0.67-1.76-1.56-3.42-2.22-5.19c-0.35-0.96-0.92-1.83-1.3-2.77c-0.35-0.88-0.72-1.71-1.27-2.48c-0.5-0.69-1.17-1.32-1.97-1.65
				C9.93-0.21,9.06,0.05,8.37,0.83C7.81,1.47,7.44,2.37,7.15,3.16C6.75,4.24,6.31,5.3,6.03,6.42c-0.29,1.2-0.54,2.4-0.8,3.6
				c-0.12,0.58-0.18,1.18-0.29,1.76c-0.11,0.58-0.3,1.19-0.34,1.78C4.57,14.21,5.57,14.21,5.61,13.57L5.61,13.57z"/>
		</g>
	</g>
	<g>
		<g>
			<path d="M11.81,2.35c0,0.32,0.03,0.61-0.1,0.91c-0.05,0.12-0.14,0.22-0.2,0.34c0,0.01-0.05,0.12,0,0.04
				c0.05-0.08-0.06,0.04-0.07,0.05c-0.09,0.07-0.14,0.15-0.21,0.23C10.87,4.38,9.96,5,10.57,5.66c0.22,0.24,0.54,0.33,0.86,0.31
				c0.13,0,0.25-0.02,0.38-0.02c0.04,0,0.08,0,0.12,0.01c-0.02,0-0.03-0.01,0,0.01c0.06,0.03-0.01-0.01,0-0.01
				c0.08,0.09,0.11,0.25,0.14,0.37c0.05,0.17,0.11,0.33,0.19,0.5c0.16,0.34,0.47,0.67,0.89,0.57c0.35-0.09,0.54-0.43,0.66-0.74
				c0.02-0.04,0.03-0.09,0.05-0.13c0.01-0.03,0.07-0.17,0.04-0.1c0.02-0.05,0.05-0.1,0.08-0.15c0-0.01,0.01-0.01,0.01-0.02
				C14,6.2,14.01,6.2,13.98,6.23c-0.01,0.02-0.02,0.03-0.04,0.04c-0.06,0.04-0.12,0.06-0.2,0.06c0.64-0.01,0.64-1.01,0-1
				c-0.36,0.01-0.59,0.28-0.72,0.58c-0.06,0.14-0.12,0.28-0.17,0.42c-0.05,0.15,0.05-0.07-0.01,0.03c-0.02,0.03-0.03,0.06-0.05,0.09
				c-0.03,0.05-0.04,0.06-0.02,0.03c0.4,0.15,0.54,0.15,0.42-0.02c-0.02-0.04-0.04-0.08-0.06-0.12c-0.03-0.06-0.05-0.12-0.07-0.18
				c-0.07-0.2-0.11-0.4-0.2-0.58c-0.19-0.39-0.53-0.6-0.96-0.62c-0.15-0.01-0.29,0.01-0.44,0.01c-0.04,0-0.07,0-0.11,0
				c-0.07,0-0.07,0-0.01,0c-0.06-0.02-0.07-0.02-0.03-0.01c0.06,0.07,0.08,0.16,0.07,0.27c0.04-0.01,0.21-0.23,0.27-0.29
				c0.14-0.15,0.33-0.29,0.42-0.47c0.05-0.07,0.04-0.07-0.01,0c0.05-0.04,0.1-0.07,0.15-0.11c0.09-0.08,0.13-0.17,0.19-0.27
				c0.1-0.18,0.21-0.35,0.28-0.54c0.15-0.4,0.15-0.78,0.15-1.21C12.81,1.7,11.81,1.7,11.81,2.35L11.81,2.35z"/>
		</g>
	</g>
	<g>
		<g>
			<path d="M6.41,5.95c0,0.72-0.07,1.71,0.63,2.15c0.25,0.16,0.53,0.21,0.78,0.37c0.16,0.1,0.31,0.25,0.49,0.31
				c0.09,0.03,0.01,0.04,0.03-0.05c0.01-0.09,0.11-0.15,0.12-0.21C8.42,8.54,8.41,8.55,8.44,8.53c0.03-0.01,0.02-0.01-0.03,0
				c-0.02,0-0.15,0.03-0.06,0.02C8.24,8.57,8.13,8.57,8.01,8.57C7.7,8.57,7.35,8.5,7.1,8.75C6.81,9.03,6.88,9.52,6.89,9.88
				c0.01,0.19,0.01,0.39,0,0.58c0,0.1,0,0.2-0.01,0.29c-0.01,0.05-0.02,0.1-0.03,0.15c-0.04,0.11-0.01,0.1,0.09-0.04
				c0.08-0.02,0.17-0.05,0.25-0.07c0.01,0,0.02,0,0.03,0c0.07,0.04,0.15,0.09,0.22,0.13c-0.24-0.2-0.3-0.46-0.43-0.72
				C6.89,9.95,6.7,9.72,6.56,9.48C6.23,8.92,5.37,9.42,5.7,9.98c0.11,0.18,0.22,0.37,0.34,0.54c0.1,0.16,0.15,0.32,0.23,0.49
				c0.19,0.38,0.56,0.91,1.06,0.77c0.5-0.14,0.55-0.8,0.57-1.22c0.01-0.23,0-0.46,0-0.68c-0.01-0.2-0.04-0.42,0.03-0.61
				C7.87,9.34,7.83,9.41,7.78,9.49c-0.17,0.05-0.2,0.07-0.11,0.07c0.04,0,0.08,0,0.12,0.01c0.04,0,0.08,0,0.12,0
				c0.08,0,0.16,0,0.24,0c0.19-0.01,0.39-0.02,0.57-0.08C9.29,9.3,9.51,8.71,9.15,8.22C8.96,7.96,8.65,7.83,8.4,7.66
				C8.17,7.5,7.93,7.41,7.67,7.3C7.5,7.23,7.51,7.17,7.45,6.93C7.37,6.61,7.41,6.27,7.41,5.95C7.41,5.3,6.41,5.3,6.41,5.95
				L6.41,5.95z"/>
		</g>
	</g>
	<g>
		<g>
			<path d="M11.21,8.89C11.22,9,11.2,8.9,11.21,8.89c-0.01,0.03-0.03,0.06-0.05,0.09c-0.03,0.04-0.1,0.09-0.16,0.16
				c-0.05,0.06-0.16,0.2-0.17,0.23c-0.01,0.01-0.03,0.03-0.04,0.04c0.12-0.06,0.13-0.07,0.05-0.04c0.08,0.02-0.06,0-0.08,0
				c-0.36,0-0.79-0.11-1.08,0.18c-0.36,0.36-0.18,0.93,0.17,1.22c0.15,0.12,0.3,0.22,0.47,0.3c0.06,0.03,0.13,0.06,0.19,0.09
				c0.04,0.02,0.09,0.04,0.14,0.06c0.03,0.01,0.07,0.03,0.1,0.04c-0.05-0.02-0.05-0.02,0,0c0.06-0.03,0.03,0.06,0-0.01
				c0.06,0.16-0.09-0.13-0.08-0.14c-0.04,0.02-0.08,0.29-0.09,0.33c-0.06,0.25-0.03,0.5-0.04,0.75c-0.03,0.55,0.35,0.89,0.89,0.88
				c0.47,0,0.83-0.22,1.08-0.61c0.08-0.13,0.16-0.26,0.24-0.39c0.05-0.08,0.09-0.16,0.14-0.23c0,0,0.03-0.05,0.04-0.05
				c0.08,0.06-0.29,0.09-0.26,0.03c0,0.01,0.12,0.1,0.12,0.12c0-0.02-0.08-0.12-0.03-0.04c0.03,0.05,0.07,0.11,0.1,0.16
				c0.08,0.13,0.16,0.25,0.25,0.37c0.3,0.39,0.73,0.67,1.18,0.29c0.21-0.17,0.18-0.53,0-0.71c-0.2-0.2-0.5-0.17-0.71,0
				c0.12-0.1,0.25-0.13,0.4-0.08c0.08,0.03-0.04-0.05,0.07,0.04c-0.03-0.03-0.06-0.07-0.1-0.1c-0.09-0.08,0.04,0.06-0.01-0.01
				c-0.02-0.03-0.04-0.06-0.06-0.08c-0.04-0.06-0.07-0.11-0.11-0.17c-0.16-0.25-0.31-0.5-0.57-0.66c-0.23-0.13-0.53-0.15-0.77-0.02
				c-0.21,0.11-0.35,0.31-0.47,0.51c-0.08,0.13-0.15,0.25-0.23,0.38c-0.02,0.03-0.03,0.06-0.05,0.08c0.01-0.01-0.08,0.12-0.04,0.07
				c-0.03,0.03-0.08,0.09-0.11,0.09c0.07,0-0.05-0.01-0.02,0c-0.04-0.02-0.03,0,0.02,0c-0.04,0-0.08,0-0.11,0c-0.01,0-0.02,0-0.02,0
				c-0.06,0-0.06,0,0,0c-0.01,0-0.01,0-0.02-0.01c-0.06-0.02-0.03,0,0.1,0.06c0.21,0.2,0.06,0.27,0.08,0.14
				c0.02-0.1,0.01-0.21,0.01-0.31c0-0.08-0.01-0.18,0-0.25c0.02-0.11,0.07-0.22,0.09-0.33c0.06-0.26,0.05-0.53-0.12-0.75
				c-0.13-0.17-0.3-0.24-0.49-0.33c-0.08-0.03,0.08,0.04-0.02-0.01c-0.02-0.01-0.05-0.02-0.07-0.03c-0.07-0.03-0.14-0.06-0.2-0.1
				c-0.07-0.04-0.14-0.08-0.21-0.12c-0.08-0.06-0.03-0.02-0.01-0.01c-0.01-0.01-0.1-0.07-0.05-0.05c0,0.01,0.01,0.01,0.01,0.02
				c-0.03-0.05-0.03-0.05,0,0.01c0,0.04,0,0.06-0.01,0.1c0-0.02-0.17,0.27-0.29,0.24c0.03,0.01,0.08,0,0.12,0
				c0.41,0.02,0.88,0.08,1.2-0.23c0.08-0.08,0.17-0.22,0.21-0.27c0.09-0.1,0.18-0.17,0.26-0.28c0.14-0.19,0.27-0.42,0.25-0.67
				c-0.02-0.27-0.21-0.5-0.5-0.5C11.45,8.39,11.19,8.62,11.21,8.89L11.21,8.89z"/>
		</g>
	</g>
	<g>
		<g>
			<path d="M12.09,8.95c0-0.05-0.01-0.03-0.01,0.05c-0.03,0.07-0.04,0.08-0.01,0.03c-0.04,0.05-0.05,0.05-0.01,0.01
				c0.03-0.03,0.04-0.04,0-0.01c-0.03,0.02-0.03,0.02,0.01,0C12,9.06,11.92,9.07,11.83,9.05C11.75,9.03,11.7,9,11.66,8.94
				c0.02,0.02,0.03,0.05,0.04,0.08c-0.05-0.09,0.01,0.04,0.01,0.05c0.02,0.06,0.04,0.12,0.06,0.18c0.04,0.12,0.09,0.25,0.16,0.36
				c0.15,0.24,0.38,0.41,0.63,0.53c0.32,0.14,0.66,0.16,0.98,0.21c-0.1-0.08-0.2-0.15-0.3-0.23c0-0.14,0-0.28,0-0.41
				c0.15-0.13,0.19-0.17,0.12-0.13c-0.01,0.01-0.06,0.05,0,0c0.06-0.04,0,0-0.02,0.01c-0.02,0.01-0.04,0.01-0.06,0.02
				c-0.08,0.02-0.16,0.04-0.24,0.07c-0.42,0.15-0.57,0.61-0.44,1.02c0.1,0.29,0.27,0.6,0.44,0.85c0.1,0.15,0.21,0.28,0.34,0.41
				c0.05,0.05,0.11,0.11,0.16,0.16c0.03,0.03,0.05,0.04,0.01,0.01c0.02,0.05,0.03,0.05,0.02,0.02c-0.01-0.03-0.01-0.03,0,0.02
				c0.07,0.26,0.36,0.42,0.62,0.35c0.26-0.07,0.42-0.35,0.35-0.62c-0.07-0.28-0.28-0.49-0.47-0.68c-0.09-0.09-0.11-0.12-0.18-0.22
				c-0.07-0.11-0.13-0.23-0.2-0.35c-0.03-0.05-0.05-0.1-0.08-0.14c-0.01-0.03-0.06-0.12-0.03-0.04c-0.01-0.03-0.02-0.06-0.03-0.08
				c0.01,0.03-0.01,0.09,0,0.01c-0.01,0.05,0,0.05-0.03,0.11c-0.02,0.04-0.13,0.18-0.19,0.15c0.03,0.01,0.15-0.04,0.19-0.05
				c0.1-0.03,0.21-0.06,0.31-0.11c0.26-0.14,0.42-0.41,0.34-0.71c-0.13-0.45-0.62-0.38-0.95-0.45c-0.13-0.03-0.18-0.04-0.3-0.11
				c-0.01-0.01-0.09-0.06-0.05-0.03c0.04,0.03-0.02-0.02-0.02-0.02c-0.02-0.02-0.05-0.04-0.07-0.07c0.03,0.04,0.01,0-0.01-0.02
				c-0.05-0.05-0.02-0.02,0,0.01C12.75,9.03,12.74,9,12.73,8.97c-0.01-0.04-0.03-0.09-0.04-0.13c-0.04-0.14-0.09-0.29-0.17-0.41
				c-0.21-0.34-0.6-0.48-0.96-0.27c-0.26,0.15-0.51,0.47-0.48,0.79c0.03,0.27,0.21,0.5,0.5,0.5C11.83,9.45,12.12,9.22,12.09,8.95
				L12.09,8.95z"/>
		</g>
	</g>
	<g>
		<g>
			<path d="M6.43,8.52c0.06,0.06,0.12,0.11,0.18,0.17C6.63,8.7,6.64,8.72,6.66,8.73c0.01,0.01,0.06,0.07,0.01,0
				c-0.05-0.07-0.01,0,0,0.01C6.7,8.79,6.64,8.64,6.65,8.72C6.65,8.67,6.64,8.63,6.64,8.59c0,0.03,0,0.05,0,0.07
				c0.01-0.04,0.01-0.09,0.02-0.13c0,0.02-0.01,0.03-0.01,0.05c0.03-0.08,0.04-0.1,0.02-0.06C6.64,8.54,6.63,8.57,6.61,8.59
				c-0.03,0.05-0.07,0.09-0.1,0.14c-0.08,0.13-0.15,0.27-0.2,0.42c-0.09,0.3-0.07,0.61-0.01,0.91c0.05,0.24,0.32,0.39,0.55,0.36
				c0.23-0.03,0.45-0.24,0.43-0.49c0-0.04,0-0.07,0-0.11C7.29,9.87,7.28,9.91,7.27,9.96c0-0.02,0.01-0.05,0.02-0.07
				c0.01-0.02,0.03-0.09,0,0c-0.04,0.08-0.01,0.02,0,0c0.02-0.05,0.05-0.11,0.07-0.16c0.04-0.1,0.05-0.2,0.08-0.31
				C7.45,9.36,7.47,9.3,7.49,9.25c0.04-0.11-0.02,0.02-0.01,0.03C7.47,9.27,7.51,9.22,7.51,9.22c0,0-0.09,0.11-0.03,0.05
				c0.03-0.03,0.01-0.01-0.06,0.04c0.01,0,0.01-0.01,0.02-0.01c0.08-0.03-0.11,0.02-0.01,0C7.46,9.3,7.49,9.29,7.52,9.28
				C7.48,9.29,7.43,9.3,7.39,9.3c0.16-0.02,0.29-0.04,0.44-0.11c0.11-0.06,0.21-0.15,0.27-0.26c0.06-0.12,0.09-0.24,0.09-0.37
				c0-0.08-0.02-0.16-0.03-0.25C8.15,8.36,8.15,8.4,8.16,8.44c0-0.02,0-0.03,0-0.04C8.15,8.44,8.15,8.49,8.14,8.53
				C8.15,8.45,8.1,8.5,7.98,8.67C7.8,8.79,7.76,8.84,7.84,8.83C7.8,8.83,7.75,8.84,7.71,8.84c0.01,0,0.01,0,0.02,0
				C7.68,8.84,7.64,8.83,7.59,8.83c0.01,0,0.01,0,0.02,0C7.75,8.85,7.88,8.85,8,8.78c0.1-0.06,0.2-0.18,0.23-0.3
				c0.06-0.24-0.07-0.57-0.35-0.62C7.74,7.84,7.62,7.84,7.49,7.89C7.34,7.96,7.23,8.08,7.18,8.24C7.14,8.39,7.17,8.52,7.19,8.67
				C7.19,8.62,7.18,8.58,7.17,8.53c0,0.03,0,0.06,0,0.09c0.01-0.04,0.01-0.09,0.02-0.13C7.18,8.55,7.16,8.54,7.22,8.44
				c0.02-0.02,0.04-0.05,0.06-0.07c0.08-0.05,0.1-0.07,0.06-0.05C7.31,8.33,7.46,8.29,7.37,8.3c-0.03,0-0.06,0.01-0.09,0.01
				C7.33,8.31,7.37,8.3,7.42,8.3C7.28,8.32,7.17,8.33,7.05,8.38c-0.11,0.04-0.2,0.1-0.28,0.19C6.62,8.7,6.55,8.88,6.5,9.06
				C6.48,9.14,6.46,9.21,6.44,9.29C6.43,9.33,6.43,9.37,6.41,9.4C6.4,9.44,6.36,9.52,6.43,9.37C6.34,9.55,6.27,9.73,6.29,9.93
				C6.62,9.89,6.94,9.84,7.27,9.8C7.26,9.75,7.25,9.7,7.25,9.65C7.25,9.7,7.26,9.74,7.26,9.79c-0.01-0.11-0.02-0.23,0-0.34
				C7.25,9.49,7.25,9.53,7.24,9.58c0.01-0.07,0.03-0.13,0.05-0.19C7.32,9.3,7.24,9.5,7.28,9.41c0.02-0.03,0.03-0.06,0.05-0.1
				c0.08-0.13,0.18-0.25,0.24-0.39c0.1-0.24,0.09-0.5-0.06-0.72c-0.1-0.15-0.24-0.26-0.37-0.39c-0.19-0.18-0.52-0.2-0.71,0
				C6.25,8.01,6.23,8.33,6.43,8.52L6.43,8.52z"/>
		</g>
	</g>
	<g>
		<g>
			<path d="M11.97,5.17c-0.02,0.1-0.02,0.12,0,0.07c-0.04,0.08-0.04,0.1-0.02,0.06c0.04-0.07-0.09,0.08,0,0.01
				c0.01-0.01,0.08-0.06,0.08-0.07c-0.06,0.05-0.07,0.05-0.03,0.02c0.02-0.01,0.03-0.02,0.05-0.04c0.11-0.08,0.23-0.14,0.33-0.22
				c0.19-0.14,0.39-0.3,0.51-0.51c0.06-0.09,0.1-0.2,0.13-0.31c0.01-0.05,0.03-0.09,0.04-0.14c0.02-0.05,0.01-0.04-0.01,0.02
				c0.03-0.05,0.02-0.04-0.02,0.02c-0.16,0.04-0.32,0.09-0.49,0.13c-0.08-0.02-0.18-0.11-0.23-0.18c0,0-0.06-0.12-0.03-0.06
				c0.01,0.01,0,0.04,0.01,0.05c-0.04-0.06-0.01-0.11-0.01-0.04c0,0.06,0,0.13,0.01,0.19c0.01,0.16,0.06,0.3,0.14,0.44
				c0.01,0.02,0.03,0.05,0.04,0.07c0.03,0.05,0.01,0.03,0-0.01c0.01,0.07,0.03,0.13,0.04,0.2c0.01,0.06,0.02,0.12,0.03,0.18
				c0.02,0.08-0.01-0.09-0.01-0.04c0,0.03,0,0.02,0.01-0.03c0-0.03,0.01-0.06,0.02-0.09c0.03-0.06,0.06-0.11,0.11-0.14
				c0.02-0.02,0.05-0.04,0.08-0.05c0.05-0.02,0.06-0.02,0.03-0.02c-0.05,0.02,0.14-0.01,0.06-0.01c-0.01,0-0.03,0-0.04,0
				c-0.17,0-0.33-0.02-0.49,0.03c-0.33,0.1-0.53,0.59-0.22,0.84c0.16,0.13,0.33,0.22,0.53,0.29c0.04,0.01,0.07,0.03,0.11,0.04
				c0.01,0,0.12,0.05,0.05,0.02c-0.07-0.03,0.02,0.02,0.03,0.02c-0.06-0.05-0.08-0.07-0.05-0.04c0.01,0.01,0.02,0.02,0.03,0.03
				c-0.02-0.01-0.07-0.1-0.02-0.02c0.01,0.02,0.02,0.04,0.04,0.07c0.05,0.09-0.03-0.1,0,0c0.01,0.03,0.02,0.06,0.03,0.09
				c0.01,0.03,0.01,0.05,0.02,0.08c0.02,0.06,0-0.11-0.01-0.03c0,0.08-0.02,0.05,0.01-0.02c-0.01,0.02-0.01,0.05-0.02,0.07
				c0.16-0.12,0.32-0.24,0.48-0.37c0.16,0,0.32,0.13,0.36,0.29c0.01,0.03,0.01,0.15,0.02,0.05c-0.01,0.18,0,0.02,0.03-0.05
				c0.03-0.09,0.07-0.17,0.09-0.26c0.05-0.26-0.07-0.55-0.35-0.62c-0.25-0.06-0.56,0.07-0.62,0.35C12.81,5.68,12.73,5.83,12.71,6
				c-0.05,0.39,0.19,0.74,0.61,0.75c0.23,0,0.41-0.16,0.48-0.37c0.12-0.32,0.01-0.76-0.18-1.04c-0.13-0.2-0.29-0.32-0.51-0.41
				c-0.07-0.03-0.15-0.05-0.22-0.08c-0.02-0.01-0.05-0.02-0.07-0.03c0.02,0.01,0.03,0.01,0.05,0.02c-0.03-0.01-0.16-0.1-0.06-0.02
				c-0.07,0.28-0.15,0.56-0.22,0.84c0.07-0.02,0.03,0.02-0.05,0c0.02,0,0.04,0,0.06,0c0.04,0,0.09,0,0.13,0.01
				c0.12,0.01,0.24,0.01,0.35-0.03c0.19-0.06,0.34-0.19,0.41-0.37c0.08-0.2,0.04-0.38,0.01-0.59c-0.03-0.18-0.07-0.35-0.16-0.52
				c-0.02-0.04-0.04-0.07-0.06-0.11c0.01,0.02,0.01,0.03,0.02,0.05c-0.01-0.06-0.02-0.05,0,0.01c0.02,0.12,0-0.02,0-0.06
				c-0.01-0.33-0.1-0.74-0.49-0.82c-0.16-0.03-0.37-0.01-0.49,0.13c-0.1,0.13-0.17,0.24-0.22,0.4c-0.01,0.05-0.02,0.09-0.04,0.14
				c-0.01,0.03-0.07,0.17-0.01,0.04c-0.03,0.04-0.02,0.04,0.01,0C12.04,3.97,12.02,3.99,12,4.01c-0.04,0.04-0.08,0.08-0.12,0.11
				c-0.02,0.02-0.04,0.04-0.07,0.06c0.08-0.06,0.09-0.07,0.05-0.04c-0.03,0.02-0.06,0.04-0.08,0.06c-0.37,0.24-0.76,0.48-0.81,0.97
				c-0.02,0.26,0.25,0.51,0.5,0.5C11.76,5.65,11.94,5.45,11.97,5.17L11.97,5.17z"/>
		</g>
	</g>
	<g>
		<g>
			<path d="M10.8,10.4c0.12,0.17,0.28,0.31,0.49,0.36c0.18,0.04,0.36,0.03,0.54-0.02c0.13-0.04,0.26-0.1,0.38-0.16
				c0.07-0.04,0.13-0.09,0.19-0.14c0.06-0.05-0.12,0.08-0.02,0.02c0.02-0.01,0.04-0.03,0.06-0.04c-0.04,0.02-0.08,0.03-0.12,0.05
				c0.01,0,0.02-0.01,0.03-0.01c-0.04,0.01-0.09,0.01-0.13,0.02c0,0,0.01,0,0.01,0c-0.04-0.01-0.09-0.01-0.13-0.02
				c0.01,0,0.02,0,0.02,0.01c-0.04-0.02-0.08-0.03-0.12-0.05c0.04,0.02,0.02,0-0.07-0.06c-0.06-0.09-0.08-0.11-0.06-0.07
				c-0.02-0.04-0.03-0.08-0.05-0.12c0.01,0.02,0.02,0.05,0.02,0.07c-0.01-0.04-0.01-0.09-0.02-0.13c0.01,0.06,0.01,0.13,0,0.19
				c0.01-0.04,0.01-0.09,0.02-0.13c-0.01,0.09-0.04,0.17-0.08,0.25c0.02-0.04,0.03-0.08,0.05-0.12c-0.06,0.13-0.13,0.26-0.21,0.38
				c-0.1,0.14-0.15,0.31-0.22,0.47c0.02-0.04,0.03-0.08,0.05-0.12c-0.06,0.13-0.15,0.24-0.21,0.37c0.29,0.17,0.58,0.34,0.86,0.5
				c0.05-0.09,0.1-0.19,0.15-0.28c0.02-0.04,0.05-0.09,0.08-0.13c0.01-0.02,0.02-0.04,0.04-0.06c0.03-0.04,0.07-0.06-0.02,0.02
				c0.06-0.06,0.12-0.13,0.17-0.2c0.11-0.14,0.18-0.25,0.25-0.41c0.05-0.11,0.01-0.29-0.05-0.39c-0.06-0.1-0.18-0.2-0.3-0.23
				c-0.13-0.03-0.27-0.02-0.39,0.05c-0.12,0.07-0.18,0.17-0.23,0.3c0,0.01-0.01,0.02-0.01,0.02c0.02-0.04,0.03-0.08,0.05-0.12
				c-0.02,0.04-0.04,0.07-0.06,0.11c-0.04,0.07,0.06-0.07,0.02-0.03c-0.01,0.02-0.03,0.03-0.04,0.05c-0.08,0.09-0.16,0.18-0.23,0.28
				c-0.12,0.16-0.2,0.34-0.29,0.51c-0.12,0.23-0.07,0.55,0.18,0.68c0.23,0.12,0.56,0.07,0.68-0.18c0.05-0.1,0.12-0.18,0.17-0.28
				c0.07-0.12,0.11-0.26,0.17-0.39c-0.02,0.04-0.03,0.08-0.05,0.12c0.05-0.1,0.12-0.19,0.18-0.29c0.08-0.13,0.14-0.27,0.2-0.41
				c0.07-0.17,0.11-0.36,0.08-0.54c-0.02-0.17-0.06-0.34-0.2-0.47c-0.19-0.18-0.46-0.2-0.69-0.09c-0.03,0.02-0.06,0.04-0.1,0.06
				c-0.04,0.03-0.08,0.06-0.13,0.1c-0.08,0.06,0.08-0.06,0.04-0.03c-0.07,0.04-0.13,0.08-0.2,0.11c0.04-0.02,0.08-0.03,0.12-0.05
				c-0.07,0.03-0.15,0.05-0.22,0.06c0.04-0.01,0.09-0.01,0.13-0.02c-0.05,0.01-0.09,0.01-0.14,0c0.04,0.01,0.09,0.01,0.13,0.02
				c-0.03,0-0.05-0.01-0.07-0.02c0.04,0.02,0.08,0.03,0.12,0.05c-0.02-0.01-0.09-0.06-0.02,0c0.04,0.03,0.05,0.04,0.02,0.01
				c-0.03-0.04-0.02-0.02,0.04,0.05c-0.08-0.11-0.17-0.19-0.3-0.23c-0.12-0.03-0.28-0.02-0.39,0.05
				C10.77,9.85,10.63,10.17,10.8,10.4L10.8,10.4z"/>
		</g>
	</g>
	<g>
		<g>
			<path d="M11.67,9.61c0-0.01,0-0.01,0-0.02c-0.01,0.04-0.01,0.09-0.02,0.13c0-0.02,0.01-0.04,0.02-0.05
				c-0.02,0.04-0.03,0.08-0.05,0.12c0.04-0.08,0.09-0.14,0.13-0.21c0.05-0.08,0.09-0.16,0.14-0.24c0.07-0.11,0.12-0.22,0.17-0.35
				c0.03-0.09,0.05-0.18,0.09-0.27c-0.02,0.04-0.03,0.08-0.05,0.12c0.03-0.07,0.07-0.13,0.11-0.19c0.07-0.13,0.11-0.26,0.12-0.41
				c0.01-0.26-0.23-0.51-0.5-0.5c-0.28,0.01-0.49,0.22-0.5,0.5c0,0.01,0,0.03,0,0.04c0.01-0.04,0.01-0.09,0.02-0.13
				c-0.01,0.03-0.01,0.05-0.02,0.08c0.02-0.04,0.03-0.08,0.05-0.12c-0.06,0.12-0.13,0.23-0.18,0.36c-0.04,0.1-0.07,0.21-0.11,0.32
				c0.02-0.04,0.03-0.08,0.05-0.12c-0.06,0.14-0.16,0.27-0.24,0.41c-0.03,0.05-0.07,0.1-0.1,0.16c-0.08,0.13-0.11,0.25-0.13,0.4
				c-0.01,0.12,0.07,0.27,0.15,0.35c0.09,0.09,0.23,0.15,0.35,0.15c0.13-0.01,0.26-0.05,0.35-0.15c0.03-0.03,0.05-0.07,0.08-0.1
				C11.64,9.78,11.67,9.7,11.67,9.61L11.67,9.61z"/>
		</g>
	</g>
	<g>
		<g>
			<path d="M11.35,8.36c0.05,0.22,0.09,0.43,0.19,0.64c0.02,0.05,0.04,0.09,0.06,0.14c0.02,0.05,0.02,0.05-0.01-0.02
				c0.01,0.02,0.02,0.04,0.02,0.06c0.03,0.09,0.07,0.19,0.12,0.28c0.12,0.2,0.31,0.34,0.54,0.39c0.12,0.03,0.25,0.03,0.38,0.03
				c0.03,0,0.12-0.01,0.14,0.01c-0.07-0.01-0.08-0.01-0.03,0c0.05,0.01,0.11,0.02,0.16,0.02c0.18,0.02,0.36,0,0.54,0
				c0.04,0,0.09,0,0.13,0c0.02,0,0.08,0.02,0.1,0.01c-0.08-0.01-0.09-0.01-0.04,0c0.02,0,0.04,0.01,0.06,0.02
				c0.06,0.02,0.04,0.01-0.05-0.02c0.04,0.03,0.03,0.01-0.06-0.05c-0.13-0.13-0.15-0.35-0.06-0.51c-0.03,0.06,0.1-0.12,0.03-0.04
				c-0.07,0.08,0.09-0.06,0.03-0.02c-0.02,0.01-0.05,0.03-0.07,0.05c-0.11,0.07-0.22,0.13-0.32,0.22c-0.2,0.17-0.19,0.53,0,0.71
				c0.21,0.19,0.5,0.18,0.71,0c0.04-0.04-0.12,0.08-0.06,0.05c0.02-0.01,0.03-0.02,0.05-0.03c0.04-0.02,0.07-0.04,0.11-0.07
				c0.1-0.06,0.2-0.13,0.28-0.22c0.15-0.16,0.23-0.38,0.16-0.59c-0.07-0.23-0.27-0.37-0.49-0.44c-0.32-0.1-0.64-0.03-0.96-0.04
				c0,0-0.06-0.01-0.07-0.01c0,0,0.1,0.02,0.05,0.01c-0.06-0.02-0.13-0.02-0.2-0.03c-0.08-0.01-0.16-0.01-0.25-0.01
				c-0.02,0-0.13-0.01-0.06,0c0.09,0.01-0.1-0.04,0,0c0.07,0.03,0.03,0.01,0.01,0c-0.01-0.01,0.09,0.08,0.06,0.04
				c-0.08-0.07,0.08,0.09,0.01,0.01c0,0-0.02-0.03-0.02-0.03c0,0,0.05,0.12,0.02,0.05c-0.01-0.03-0.02-0.06-0.03-0.09
				c-0.04-0.12-0.1-0.23-0.15-0.34c0-0.01-0.03-0.07,0-0.01c0.03,0.06,0-0.01-0.01-0.03c-0.01-0.04-0.02-0.08-0.03-0.12
				c-0.02-0.09-0.04-0.19-0.06-0.28c-0.06-0.26-0.37-0.43-0.62-0.35C11.42,7.83,11.29,8.09,11.35,8.36L11.35,8.36z"/>
		</g>
	</g>
	<g>
		<g>
			<path d="M12.97,10.77c-0.09-0.02-0.12-0.02-0.08-0.01c0.02,0.01,0.01,0-0.03-0.01c-0.02-0.01-0.14-0.11-0.1-0.06
				c-0.12-0.15,0-0.01-0.01,0.01c0,0-0.05-0.14-0.02-0.05c0.01,0.02,0.01,0.03,0.02,0.05c0.01,0.03,0.02,0.06,0.04,0.1
				c0.1,0.25,0.27,0.45,0.41,0.67c0.08,0.12,0.16,0.23,0.25,0.33c0.02,0.03,0.1,0.1,0.11,0.13c0-0.03-0.06-0.08-0.01-0.01
				c0.01,0.01,0.04,0.07,0.04,0.07c-0.02-0.01-0.04-0.11-0.01-0.01c0.01,0.03,0.02,0.05,0.03,0.08c0.03,0.08,0.06,0.16,0.1,0.23
				c0.01,0.02,0.02,0.03,0.03,0.04c0.02,0.02,0.04,0.05,0.06,0.07c0.05,0.06,0.05,0.07,0.02,0.02c-0.06-0.05-0.01,0,0.01,0.02
				c0,0.01,0.01,0.02,0.01,0.02c-0.03-0.05-0.04-0.1-0.04-0.15c0.02,0.14,0.05,0.25,0.15,0.35c0.09,0.09,0.23,0.15,0.35,0.15
				c0.25-0.01,0.53-0.22,0.5-0.5c-0.01-0.13-0.04-0.24-0.1-0.35c-0.01-0.02-0.03-0.05-0.05-0.07c-0.03-0.04-0.16-0.17-0.07-0.09
				c0.06,0.05,0.01,0-0.01-0.02c-0.05-0.07,0.03,0.09,0,0c-0.03-0.09-0.06-0.19-0.11-0.27c-0.07-0.14-0.17-0.26-0.27-0.37
				c-0.02-0.03-0.04-0.05-0.06-0.08c-0.01-0.01-0.01-0.02-0.02-0.03c-0.03-0.04-0.03-0.03,0.02,0.02c-0.02,0-0.1-0.15-0.11-0.16
				c-0.08-0.11-0.16-0.23-0.23-0.34c-0.02-0.03-0.04-0.06-0.06-0.09c-0.05-0.08,0.01,0.05,0.02,0.05c-0.02-0.02-0.03-0.09-0.04-0.12
				c-0.05-0.15-0.11-0.28-0.21-0.39c-0.13-0.15-0.32-0.22-0.52-0.22c-0.26-0.01-0.51,0.24-0.5,0.5
				C12.48,10.55,12.69,10.76,12.97,10.77L12.97,10.77z"/>
		</g>
	</g>
	<g>
		<g>
			<path d="M7.33,5.78C7.37,5.6,7.41,5.41,7.41,5.23c0-0.07-0.01-0.13-0.04-0.19c-0.02-0.06-0.05-0.12-0.1-0.16
				c-0.05-0.05-0.1-0.08-0.16-0.1C7.04,4.74,6.98,4.72,6.91,4.73C6.86,4.73,6.82,4.74,6.77,4.75C6.69,4.77,6.62,4.81,6.55,4.87
				C6.53,4.91,6.5,4.94,6.48,4.98C6.43,5.05,6.41,5.14,6.41,5.23c0,0.06,0,0.11-0.01,0.16C6.4,5.35,6.41,5.3,6.42,5.26
				C6.4,5.35,6.38,5.43,6.37,5.51c-0.02,0.07-0.02,0.13-0.01,0.2c0,0.07,0.02,0.13,0.06,0.19C6.45,5.96,6.49,6,6.54,6.04
				c0.05,0.04,0.1,0.07,0.17,0.09C6.76,6.14,6.8,6.14,6.85,6.15c0.09,0,0.17-0.02,0.25-0.07C7.13,6.05,7.17,6.03,7.2,6
				C7.26,5.94,7.31,5.87,7.33,5.78L7.33,5.78z"/>
		</g>
	</g>
	<g>
		<g>
			<path d="M18.02,28.67c0.11-0.06,0.25-0.08,0.37-0.11c0.17-0.05,0.34-0.1,0.52-0.14c0.32-0.08,0.63-0.16,0.95-0.25
				c0.32-0.1,0.6-0.17,0.86-0.4c0.23-0.2,0.44-0.38,0.66-0.58c0.24-0.22,0.52-0.4,0.79-0.59c0.24-0.18,0.48-0.39,0.69-0.58
				c0.24-0.22,0.41-0.54,0.54-0.82c0.07-0.15,0.15-0.28,0.21-0.43c0.07-0.19-0.05,0.05,0.05-0.09c0.07-0.09,0.12-0.17,0.15-0.29
				c0.16-0.62-0.8-0.89-0.96-0.27c-0.01,0.02-0.01,0.04-0.02,0.06c0.04-0.07,0.09-0.15,0.13-0.22c-0.19,0.23-0.31,0.48-0.43,0.76
				c-0.11,0.23-0.23,0.46-0.42,0.63c-0.21,0.18-0.41,0.36-0.63,0.53c-0.28,0.21-0.57,0.4-0.82,0.63c-0.19,0.17-0.39,0.33-0.58,0.51
				c-0.18,0.17-0.5,0.19-0.73,0.27c-0.59,0.2-1.27,0.21-1.81,0.52C16.95,28.12,17.46,28.99,18.02,28.67L18.02,28.67z"/>
		</g>
	</g>
	<g>
		<g>
			<path d="M17.29,28.83c0.85,0.01,1.62-0.24,2.41-0.53c0.74-0.27,1.48-0.65,2.13-1.1c0.16-0.11,0.31-0.24,0.45-0.37
				c0.08-0.07,0.16-0.13,0.23-0.2c0.05-0.06,0.19-0.19,0.06-0.08c0.31-0.26,0.57-0.54,0.76-0.9c0.19-0.35,0.36-0.74,0.51-1.11
				c0.16-0.43,0.35-0.85,0.4-1.31c0.03-0.27-0.25-0.5-0.5-0.5c-0.29,0-0.47,0.23-0.5,0.5c-0.04,0.34-0.23,0.73-0.36,1.04
				c-0.13,0.33-0.28,0.66-0.46,0.96c-0.15,0.25-0.36,0.41-0.55,0.62c-0.22,0.23-0.47,0.46-0.75,0.62c-0.58,0.33-1.13,0.69-1.77,0.9
				c-0.34,0.11-0.68,0.26-1.03,0.34c-0.36,0.08-0.65,0.13-1.01,0.12C16.64,27.82,16.64,28.82,17.29,28.83L17.29,28.83z"/>
		</g>
	</g>
	<g>
		<g>
			<path d="M17.05,28.83c0.25-0.01,0.54-0.07,0.78-0.13c0.11-0.03,0.2-0.07,0.3-0.09c0.13-0.03,0.24-0.06,0.37-0.1
				c0.49-0.16,1.06-0.2,1.48-0.55c0.29-0.24,0.12-0.75-0.22-0.84c-0.33-0.08-0.56,0.06-0.87,0.13c-0.24,0.06-0.52,0.14-0.74,0.27
				c-0.19,0.11-0.29,0.35-0.23,0.56c0.06,0.23,0.26,0.34,0.48,0.37c0.2,0.03,0.39-0.06,0.59-0.11c0.16-0.04,0.31-0.07,0.46-0.12
				c0.31-0.09,0.6-0.19,0.89-0.32c0.32-0.15,0.64-0.27,0.93-0.46c0.31-0.21,0.59-0.47,0.87-0.72c0.2-0.18,0.18-0.53,0-0.71
				c-0.2-0.2-0.5-0.18-0.71,0c-0.23,0.2-0.45,0.42-0.7,0.59c-0.27,0.17-0.55,0.28-0.83,0.41c-0.21,0.1-0.43,0.16-0.65,0.23
				c-0.15,0.05-0.29,0.08-0.44,0.12c-0.13,0.03-0.3,0.11-0.41,0.09c0.08,0.31,0.17,0.62,0.25,0.93c0.07-0.04,0.32-0.12,0.44-0.15
				c0.09-0.02,0.17-0.05,0.26-0.08c0.04-0.01,0.08-0.03,0.12-0.04c0.08-0.03,0.14,0,0.03-0.02c-0.07-0.28-0.15-0.56-0.22-0.84
				c0.15-0.12-0.17,0.04-0.19,0.04c-0.09,0.04-0.17,0.08-0.26,0.11c-0.22,0.06-0.44,0.1-0.66,0.17c-0.19,0.06-0.38,0.09-0.56,0.15
				c-0.17,0.05-0.38,0.09-0.55,0.1c-0.27,0.02-0.5,0.22-0.5,0.5C16.55,28.59,16.78,28.84,17.05,28.83L17.05,28.83z"/>
		</g>
	</g>
	<g>
		<g>
			<path d="M23.34,22.29c-0.07,0.1-0.08,0.22-0.11,0.34c-0.04,0.14-0.06,0.29-0.07,0.44c0,0.06-0.01,0.12,0,0.18
				c0.01,0.07,0.02-0.08,0.01-0.02c-0.01,0.04-0.02,0.08-0.02,0.12c-0.01,0.07-0.03,0.16-0.01,0.23c0.01,0.06,0.02-0.05,0,0
				c-0.01,0.03-0.02,0.07-0.03,0.1c-0.03,0.1-0.07,0.2-0.1,0.3C22.98,24.02,22.99,24,23,23.96c-0.01,0.02-0.02,0.05-0.03,0.07
				c-0.02,0.05-0.05,0.1-0.07,0.14c-0.05,0.1-0.12,0.19-0.18,0.28c-0.04,0.06,0.05-0.06,0.01-0.01c-0.02,0.02-0.03,0.04-0.05,0.06
				c-0.04,0.05-0.08,0.09-0.12,0.13c-0.18,0.19-0.2,0.52,0,0.71c0.2,0.18,0.51,0.2,0.71,0c0.37-0.37,0.61-0.81,0.77-1.31
				c0.04-0.13,0.08-0.26,0.1-0.4c0-0.04,0-0.08,0-0.12c0-0.01,0.01-0.11,0-0.05c-0.01,0.06,0.01-0.02,0.01-0.03
				c0.01-0.06,0.02-0.11,0.02-0.17c0-0.07,0-0.13,0-0.2c0-0.03,0-0.06,0.01-0.09c0,0.05-0.01,0.05,0,0c0.01-0.05,0.03-0.1,0.04-0.16
				c0-0.02,0.01-0.04,0.01-0.06c0.01-0.06,0.04-0.05-0.01,0.02c0.15-0.21,0.04-0.57-0.18-0.68C23.76,21.97,23.5,22.06,23.34,22.29
				L23.34,22.29z"/>
		</g>
	</g>
	<g>
		<g>
			<path d="M23.3,22.6c0,0.16,0,0.32,0,0.48c0,0.07,0.01,0.13,0.04,0.19c0.02,0.06,0.05,0.12,0.1,0.16c0.05,0.05,0.1,0.08,0.16,0.1
				c0.06,0.03,0.12,0.05,0.19,0.04c0.04-0.01,0.09-0.01,0.13-0.02c0.08-0.02,0.16-0.07,0.22-0.13c0.03-0.03,0.05-0.07,0.08-0.1
				c0.05-0.08,0.07-0.16,0.07-0.25c0-0.16,0-0.32,0-0.48c0-0.07-0.01-0.13-0.04-0.19c-0.02-0.06-0.05-0.12-0.1-0.16
				c-0.05-0.05-0.1-0.08-0.16-0.1c-0.06-0.03-0.12-0.05-0.19-0.04c-0.04,0.01-0.09,0.01-0.13,0.02c-0.08,0.02-0.16,0.07-0.22,0.13
				c-0.03,0.03-0.05,0.07-0.08,0.1C23.32,22.42,23.3,22.51,23.3,22.6L23.3,22.6z"/>
		</g>
	</g>
	<g>
		<g>
			<path d="M4.13,20.23c0.01,0.25,0.14,0.42,0.34,0.55c0.1,0.07,0.22,0.11,0.33,0.15c0.11,0.04,0.23,0.07,0.34,0.1
				c0.06,0.02,0.12,0.04,0.18,0.05c0.1,0.02,0.2,0.03,0.3,0.04c-0.04-0.01-0.09-0.01-0.13-0.02c0.1,0.02,0.19,0.04,0.29,0.04
				c0.05,0,0.1-0.01,0.15,0c-0.04-0.01-0.09-0.01-0.13-0.02c0.01,0,0.02,0,0.03,0.01c-0.04-0.02-0.08-0.03-0.12-0.05
				c0.01,0,0.01,0.01,0.02,0.01c-0.03-0.03-0.07-0.05-0.1-0.08c0,0,0.01,0.01,0.01,0.01c0.1,0.09,0.22,0.15,0.35,0.15
				c0.12,0,0.27-0.05,0.35-0.15c0.09-0.1,0.15-0.22,0.15-0.35c-0.01-0.13-0.05-0.27-0.15-0.35c-0.13-0.11-0.26-0.18-0.44-0.18
				c-0.05,0-0.1,0.01-0.15,0c0.04,0.01,0.09,0.01,0.13,0.02c-0.12-0.02-0.24-0.04-0.37-0.05c0.04,0.01,0.09,0.01,0.13,0.02
				c-0.1-0.02-0.2-0.05-0.3-0.08c-0.1-0.03-0.2-0.05-0.29-0.09c0.04,0.02,0.08,0.03,0.12,0.05c-0.08-0.03-0.16-0.07-0.22-0.12
				c0.03,0.03,0.07,0.05,0.1,0.08C5.03,19.96,5.01,19.95,5,19.93c0.03,0.03,0.05,0.07,0.08,0.1c-0.01-0.01-0.01-0.02-0.01-0.02
				c0.02,0.04,0.03,0.08,0.05,0.12c0-0.01-0.01-0.02-0.01-0.02c0.01,0.04,0.01,0.09,0.02,0.13c0,0,0-0.01,0-0.01
				c-0.01-0.13-0.05-0.26-0.15-0.35c-0.09-0.09-0.23-0.15-0.35-0.15C4.37,19.74,4.11,19.95,4.13,20.23L4.13,20.23z"/>
		</g>
	</g>
	<g>
		<g>
			<path d="M17.02,20.7c0.2,0,0.4,0.01,0.6-0.04c0.07-0.02,0.15-0.03,0.22-0.05c0.11-0.03,0.21-0.09,0.31-0.13
				c-0.04,0.02-0.08,0.03-0.12,0.05c0.18-0.07,0.34-0.15,0.5-0.25c0.09-0.06,0.18-0.12,0.26-0.19c0.08-0.06,0.13-0.15,0.19-0.23
				c-0.03,0.03-0.05,0.07-0.08,0.1c0.01-0.01,0.02-0.02,0.03-0.04c0.09-0.1,0.15-0.22,0.15-0.35c0-0.12-0.05-0.27-0.15-0.35
				c-0.19-0.17-0.52-0.21-0.71,0c-0.05,0.06-0.1,0.13-0.15,0.19c0.03-0.03,0.05-0.07,0.08-0.1c-0.02,0.03-0.05,0.06-0.08,0.08
				c0.03-0.03,0.07-0.05,0.1-0.08c-0.14,0.1-0.3,0.2-0.46,0.27c0.04-0.02,0.08-0.03,0.12-0.05c-0.11,0.05-0.22,0.1-0.33,0.15
				c0.04-0.02,0.08-0.03,0.12-0.05c-0.11,0.04-0.23,0.07-0.34,0.09c0.04-0.01,0.09-0.01,0.13-0.02c-0.13,0.02-0.27,0.01-0.4,0
				c-0.26,0-0.51,0.23-0.5,0.5C16.53,20.47,16.74,20.7,17.02,20.7L17.02,20.7z"/>
		</g>
	</g>
	<g>
		<g>
			<path d="M4.69,13.92c0,0,0.01,0.01,0.01,0.01c-0.03-0.03-0.05-0.07-0.08-0.1c0.01,0.01,0.01,0.02,0.02,0.03
				c-0.02-0.04-0.03-0.08-0.05-0.12c0.01,0.03,0.03,0.07,0.04,0.1c0.02,0.04,0.03,0.07,0.05,0.1c0.03,0.05,0.07,0.09,0.11,0.13
				c0.01,0.01,0.03,0.03,0.04,0.04c-0.03-0.03-0.05-0.07-0.08-0.1c0.02,0.02,0.03,0.05,0.05,0.08c0.04,0.05,0.07,0.11,0.12,0.15
				c0,0,0.01,0.01,0.01,0.01c0.04,0.03,0.07,0.06,0.11,0.09c0.01,0.01,0.02,0.01,0.03,0.02c0.06,0.03,0.13,0.06,0.2,0.07
				c0.07,0.02,0.13,0.02,0.2,0.01c0.07,0,0.13-0.02,0.19-0.06c0.06-0.03,0.11-0.07,0.14-0.13c0.04-0.05,0.07-0.1,0.09-0.17
				C5.9,14.05,5.9,14,5.91,13.96c0-0.09-0.02-0.17-0.07-0.25c-0.03-0.03-0.05-0.07-0.08-0.1c-0.06-0.06-0.14-0.1-0.22-0.13
				c-0.03-0.01-0.05-0.01-0.07-0.02c0.04,0.02,0.08,0.03,0.12,0.05c-0.02-0.01-0.03-0.01-0.04-0.02c0.03,0.03,0.07,0.05,0.1,0.08
				c-0.02-0.01-0.03-0.03-0.04-0.04c0.03,0.03,0.05,0.07,0.08,0.1c-0.02-0.03-0.04-0.06-0.05-0.08c-0.03-0.04-0.06-0.08-0.09-0.12
				c-0.01-0.01-0.01-0.01-0.02-0.02c-0.01-0.02-0.03-0.03-0.04-0.05c0.03,0.03,0.05,0.07,0.08,0.1c-0.01-0.01-0.02-0.03-0.02-0.04
				c0.02,0.04,0.03,0.08,0.05,0.12c-0.02-0.06-0.04-0.11-0.07-0.17c0-0.01-0.01-0.02-0.01-0.02c-0.02-0.03-0.06-0.07-0.08-0.11
				c0,0-0.01-0.01-0.01-0.01c-0.05-0.05-0.1-0.08-0.16-0.1c-0.06-0.03-0.12-0.05-0.19-0.04c-0.07,0-0.13,0.01-0.19,0.04
				c-0.06,0.02-0.12,0.05-0.16,0.1c-0.03,0.03-0.05,0.07-0.08,0.1c-0.05,0.08-0.07,0.16-0.07,0.25c0.01,0.04,0.01,0.09,0.02,0.13
				C4.59,13.79,4.63,13.86,4.69,13.92L4.69,13.92z"/>
		</g>
	</g>
	<g>
		<g>
			<path d="M3.14,11.41c-0.01,0.35,0.23,0.65,0.44,0.91c0.04,0.05,0.01,0.03,0-0.01c0.01,0.03,0.03,0.06,0.05,0.09
				c0.03,0.06,0.05,0.12,0.08,0.18c0.06,0.13,0.13,0.26,0.2,0.38c0.07,0.11,0.12,0.24,0.19,0.35c0.05,0.08,0.11,0.16,0.17,0.24
				c0.06,0.07-0.02-0.04,0.01,0.01c0.02,0.03,0.04,0.06,0.06,0.09c0.1,0.14,0.21,0.27,0.34,0.37c0.07,0.05,0.14,0.11,0.21,0.16
				c0.06,0.04,0.12,0.06,0.18,0.09c0.21,0.15,0.57,0.04,0.68-0.18c0.14-0.26,0.05-0.52-0.18-0.68c-0.05-0.03-0.1-0.05-0.14-0.08
				c-0.02-0.01-0.04-0.03-0.06-0.04c-0.02-0.01-0.03-0.02-0.05-0.03c0.01,0.01,0.03,0.02,0.04,0.03c-0.03-0.01-0.1-0.09-0.12-0.12
				c0,0-0.08-0.1-0.04-0.05c0.04,0.05-0.02-0.03-0.02-0.03C5.12,13.02,5.06,12.95,5,12.87c0.03,0.04,0.03,0.04,0,0
				c-0.02-0.03-0.04-0.06-0.06-0.09c-0.06-0.11-0.11-0.22-0.18-0.33c-0.07-0.11-0.12-0.22-0.18-0.33C4.54,12.02,4.5,11.9,4.44,11.8
				c-0.05-0.07-0.11-0.14-0.16-0.21c-0.02-0.02-0.03-0.04-0.05-0.06c-0.05-0.05,0.04,0.06,0,0c-0.03-0.05-0.06-0.09-0.09-0.14
				c-0.05-0.08,0.01,0.05,0,0c-0.01-0.07,0,0.12,0,0.02c0.01-0.26-0.24-0.51-0.5-0.5C3.36,10.92,3.15,11.13,3.14,11.41L3.14,11.41z"
				/>
		</g>
	</g>
	<g>
		<g>
			<path d="M6.58,9.24c0.64,0,0.64-1,0-1C5.93,8.24,5.93,9.24,6.58,9.24L6.58,9.24z"/>
		</g>
	</g>
	<g>
		<g>
			<path d="M6.41,5.32c0,0.15,0,0.3,0,0.45c0,0.07,0.01,0.13,0.04,0.19c0.02,0.06,0.05,0.12,0.1,0.16c0.05,0.05,0.1,0.08,0.16,0.1
				c0.06,0.03,0.12,0.05,0.19,0.04C6.95,6.26,7,6.26,7.04,6.25C7.13,6.23,7.2,6.18,7.26,6.12c0.03-0.03,0.05-0.07,0.08-0.1
				c0.05-0.08,0.07-0.16,0.07-0.25c0-0.15,0-0.3,0-0.45c0-0.07-0.01-0.13-0.04-0.19c-0.02-0.06-0.05-0.12-0.1-0.16
				c-0.05-0.05-0.1-0.08-0.16-0.1C7.04,4.83,6.98,4.81,6.91,4.82C6.86,4.82,6.82,4.83,6.77,4.84C6.69,4.86,6.62,4.9,6.55,4.96
				C6.53,5,6.5,5.03,6.48,5.07C6.43,5.14,6.41,5.23,6.41,5.32L6.41,5.32z"/>
		</g>
	</g>
	<g>
		<g>
			<path d="M11.47,8.58c0.01,0.01,0.01,0.01,0.02,0.02c-0.03-0.03-0.05-0.07-0.08-0.1c0,0.01,0.01,0.01,0.01,0.02
				c-0.02-0.04-0.03-0.08-0.05-0.12c0,0.01,0,0.01,0,0.02c-0.01-0.04-0.01-0.09-0.02-0.13c0,0.1,0.01,0.19,0.05,0.28
				c0.02,0.05,0.05,0.1,0.08,0.15c0.05,0.08,0.09,0.15,0.13,0.23c0.06,0.11,0.12,0.22,0.21,0.32C11.9,9.35,12,9.41,12.11,9.45
				c0.21,0.1,0.39,0.24,0.6,0.32c0.08,0.03,0.17,0.04,0.25,0.07c0.12,0.04,0.24,0.05,0.36,0.06c-0.04-0.01-0.09-0.01-0.13-0.02
				c0.01,0,0.01,0,0.02,0c-0.04-0.02-0.08-0.03-0.12-0.05c0.01,0,0.01,0.01,0.02,0.01c-0.03-0.03-0.07-0.05-0.1-0.08
				c0.01,0.01,0.01,0.01,0.02,0.02c0.1,0.09,0.21,0.15,0.35,0.15c0.12,0,0.27-0.05,0.35-0.15c0.17-0.18,0.21-0.53,0-0.71
				c-0.11-0.09-0.21-0.15-0.35-0.17c-0.06-0.01-0.12,0-0.18-0.01c0.04,0.01,0.09,0.01,0.13,0.02c-0.06-0.01-0.12-0.04-0.19-0.06
				c-0.06-0.02-0.13-0.03-0.19-0.05c0.04,0.02,0.08,0.03,0.12,0.05c-0.11-0.05-0.21-0.12-0.32-0.18c-0.09-0.05-0.2-0.09-0.29-0.15
				c0.03,0.03,0.07,0.05,0.1,0.08c-0.02-0.02-0.05-0.04-0.06-0.06c0.03,0.03,0.05,0.07,0.08,0.1c-0.06-0.09-0.1-0.18-0.16-0.27
				c-0.05-0.08-0.1-0.16-0.14-0.25c0.02,0.04,0.03,0.08,0.05,0.12c0-0.01,0-0.01-0.01-0.02c0.01,0.04,0.01,0.09,0.02,0.13
				c-0.01-0.07,0-0.14-0.02-0.21c-0.03-0.11-0.08-0.18-0.15-0.27c-0.17-0.2-0.53-0.19-0.71,0C11.28,8.09,11.29,8.37,11.47,8.58
				L11.47,8.58z"/>
		</g>
	</g>
	<g>
		<g>
			<path d="M11.71,8.91c0,0,0.01,0.01,0.01,0.01c-0.03-0.03-0.05-0.07-0.08-0.1c0.01,0.01,0.01,0.02,0.02,0.03
				c-0.02-0.04-0.03-0.08-0.05-0.12c0.01,0.02,0.01,0.05,0.02,0.07c0.01,0.06,0.04,0.13,0.07,0.19c0.03,0.05,0.06,0.09,0.1,0.13
				c0.01,0.01,0.02,0.02,0.03,0.03c0.02,0.02,0.04,0.04,0.06,0.06c0.1,0.09,0.2,0.18,0.3,0.27c0.05,0.05,0.1,0.08,0.16,0.1
				c0.06,0.03,0.12,0.05,0.19,0.04c0.07,0,0.13-0.01,0.19-0.04c0.06-0.02,0.12-0.05,0.16-0.1c0.09-0.1,0.15-0.22,0.15-0.35
				C13.04,9,13,8.86,12.9,8.77c-0.07-0.06-0.14-0.12-0.21-0.18c-0.03-0.03-0.06-0.06-0.1-0.09c-0.03-0.03-0.06-0.05-0.08-0.08
				c0.03,0.03,0.05,0.07,0.08,0.1c-0.01-0.01-0.02-0.03-0.03-0.04c0.02,0.04,0.03,0.08,0.05,0.12c-0.01-0.03-0.02-0.06-0.02-0.1
				c-0.03-0.11-0.09-0.21-0.17-0.29c-0.05-0.05-0.1-0.08-0.16-0.1c-0.06-0.03-0.12-0.05-0.19-0.04c-0.07,0-0.13,0.01-0.19,0.04
				c-0.06,0.02-0.12,0.05-0.16,0.1c-0.09,0.1-0.15,0.22-0.15,0.35c0.01,0.04,0.01,0.09,0.02,0.13C11.61,8.78,11.65,8.85,11.71,8.91
				L11.71,8.91z"/>
		</g>
	</g>
	<g>
		<g>
			<path d="M11.92,8.79c0.64,0,0.64-1,0-1C11.27,7.79,11.27,8.79,11.92,8.79L11.92,8.79z"/>
		</g>
	</g>
	<g>
		<g>
			<path d="M11.44,12.54c0.64,0,0.64-1,0-1C10.79,11.54,10.79,12.54,11.44,12.54L11.44,12.54z"/>
		</g>
	</g>
	<g>
		<g>
			<path d="M13.15,11.91c0.64,0,0.64-1,0-1C12.5,10.91,12.5,11.91,13.15,11.91L13.15,11.91z"/>
		</g>
	</g>
	<g>
		<g>
			<path d="M12.22,11.94c0.11,0,0.22-0.01,0.32,0c-0.04-0.01-0.09-0.01-0.13-0.02c0.03,0,0.05,0.01,0.08,0.02
				c-0.04-0.02-0.08-0.03-0.12-0.05c0.06,0.03,0.12,0.06,0.18,0.1c-0.03-0.03-0.07-0.05-0.1-0.08c0.07,0.06,0.13,0.12,0.19,0.19
				c0.08,0.1,0.2,0.16,0.3,0.23c-0.03-0.03-0.07-0.05-0.1-0.08c0.06,0.05,0.12,0.1,0.17,0.16c-0.03-0.03-0.05-0.07-0.08-0.1
				c0.05,0.07,0.1,0.14,0.16,0.19c0.06,0.06,0.13,0.11,0.2,0.16c-0.03-0.03-0.07-0.05-0.1-0.08c0.03,0.02,0.05,0.04,0.07,0.06
				c0.19,0.18,0.52,0.2,0.71,0c0.18-0.2,0.2-0.51,0-0.71c-0.07-0.07-0.15-0.12-0.23-0.18c0.03,0.03,0.07,0.05,0.1,0.08
				c-0.04-0.03-0.07-0.06-0.1-0.1c0.03,0.03,0.05,0.07,0.08,0.1c-0.07-0.1-0.15-0.18-0.24-0.26c-0.09-0.08-0.18-0.13-0.28-0.2
				c0.03,0.03,0.07,0.05,0.1,0.08c-0.06-0.05-0.11-0.12-0.16-0.18c-0.08-0.08-0.18-0.16-0.28-0.22c-0.14-0.08-0.26-0.12-0.42-0.13
				c-0.1-0.01-0.21,0-0.31,0c-0.26,0-0.51,0.23-0.5,0.5C11.73,11.71,11.94,11.94,12.22,11.94L12.22,11.94z"/>
		</g>
	</g>
	<g>
		<g>
			<path d="M13.53,10.92c0.1-0.11,0.21-0.22,0.32-0.31c-0.03,0.03-0.07,0.05-0.1,0.08c0.07-0.05,0.15-0.09,0.22-0.14
				c0.11-0.07,0.21-0.15,0.31-0.23c0.07-0.06,0.14-0.12,0.21-0.17c0.07-0.05,0.13-0.1,0.19-0.17c0.12-0.14,0.21-0.29,0.21-0.49
				c0.01-0.2-0.12-0.4-0.29-0.5c-0.19-0.11-0.42-0.09-0.63-0.09c-0.11,0-0.23,0-0.34,0c-0.15,0-0.29,0.03-0.44,0.05
				c-0.11,0.02-0.24,0.14-0.3,0.23c-0.06,0.11-0.09,0.27-0.05,0.39c0.04,0.12,0.11,0.24,0.23,0.3c0.04,0.02,0.08,0.03,0.12,0.05
				c0.09,0.02,0.18,0.02,0.27,0c0.05-0.01,0.1-0.02,0.14-0.03c-0.04,0.01-0.09,0.01-0.13,0.02c0.14-0.02,0.29,0,0.44,0
				c0.12,0,0.24-0.01,0.35,0c-0.04-0.01-0.09-0.01-0.13-0.02c0.02,0,0.05,0.01,0.07,0.02c-0.04-0.02-0.08-0.03-0.12-0.05
				c0.01,0.01,0.02,0.01,0.03,0.02c-0.03-0.03-0.07-0.05-0.1-0.08c0,0,0.01,0.01,0.01,0.01C14,9.77,13.97,9.74,13.95,9.7
				c0,0,0.01,0.01,0.01,0.02c-0.02-0.04-0.03-0.08-0.05-0.12c0,0.01,0,0.01,0,0.02c-0.01-0.04-0.01-0.09-0.02-0.13
				c0,0.01,0,0.01,0,0.02c0.01-0.04,0.01-0.09,0.02-0.13c0,0.01,0,0.02-0.01,0.02c0.02-0.04,0.03-0.08,0.05-0.12
				c-0.01,0.03-0.03,0.05-0.04,0.08c0.03-0.03,0.05-0.07,0.08-0.1c-0.06,0.08-0.14,0.14-0.22,0.2c-0.09,0.07-0.17,0.14-0.26,0.21
				c0.03-0.03,0.07-0.05,0.1-0.08c-0.15,0.12-0.32,0.2-0.46,0.32c-0.12,0.09-0.22,0.2-0.32,0.31c-0.09,0.09-0.15,0.23-0.15,0.35
				c0,0.12,0.05,0.27,0.15,0.35C13.02,11.1,13.33,11.12,13.53,10.92L13.53,10.92z"/>
		</g>
	</g>
</g>
</svg>
